<mxfile host="app.diagrams.net" agent="Mozilla/5.0 (Windows NT 10.0; Win64; x64) AppleWebKit/537.36 (KHTML, like Gecko) Chrome/141.0.0.0 Safari/537.36 Edg/141.0.0.0" version="28.2.8">
  <diagram name="第 1 页" id="xYOGEz1v7BRU4eNPS-xF">
    <mxGraphModel dx="1590" dy="830" grid="1" gridSize="10" guides="1" tooltips="1" connect="1" arrows="1" fold="1" page="1" pageScale="1" pageWidth="827" pageHeight="1169" math="0" shadow="0">
      <root>
        <mxCell id="0" />
        <mxCell id="1" parent="0" />
        <mxCell id="yCtW0zK6xdps2pBfvqSu-1" value="main入口" style="rounded=0;whiteSpace=wrap;html=1;" parent="1" vertex="1">
          <mxGeometry x="350" y="20" width="80" height="40" as="geometry" />
        </mxCell>
        <mxCell id="yCtW0zK6xdps2pBfvqSu-2" value="" style="endArrow=classic;html=1;rounded=0;fontSize=12;startSize=8;endSize=8;curved=1;" parent="1" edge="1">
          <mxGeometry width="50" height="50" relative="1" as="geometry">
            <mxPoint x="389.5" y="60" as="sourcePoint" />
            <mxPoint x="389.5" y="110" as="targetPoint" />
          </mxGeometry>
        </mxCell>
        <mxCell id="yCtW0zK6xdps2pBfvqSu-3" value="&lt;div&gt;&lt;div&gt;从redis缓存获取设备任务分配&lt;/div&gt;&lt;div&gt;返回类型Dict[str, List[str]]&lt;/div&gt;&lt;/div&gt;device_tasks = get_device_tasks" style="rounded=0;whiteSpace=wrap;html=1;" parent="1" vertex="1">
          <mxGeometry x="280" y="110" width="220" height="80" as="geometry" />
        </mxCell>
        <mxCell id="yCtW0zK6xdps2pBfvqSu-4" value="" style="endArrow=classic;html=1;rounded=0;fontSize=12;startSize=8;endSize=8;curved=1;" parent="1" target="yCtW0zK6xdps2pBfvqSu-5" edge="1">
          <mxGeometry width="50" height="50" relative="1" as="geometry">
            <mxPoint x="500" y="149.67000000000002" as="sourcePoint" />
            <mxPoint x="570" y="149.67000000000002" as="targetPoint" />
          </mxGeometry>
        </mxCell>
        <mxCell id="yCtW0zK6xdps2pBfvqSu-5" value="&lt;div&gt;获取所有有任务的设备id，返回类型List[str]&lt;/div&gt;device_ids = get_all_device_ids_from_cache" style="rounded=0;whiteSpace=wrap;html=1;" parent="1" vertex="1">
          <mxGeometry x="670" y="110" width="240" height="80" as="geometry" />
        </mxCell>
        <mxCell id="yCtW0zK6xdps2pBfvqSu-8" value="" style="edgeStyle=none;curved=1;rounded=0;orthogonalLoop=1;jettySize=auto;html=1;fontSize=12;startSize=8;endSize=8;" parent="1" edge="1">
          <mxGeometry relative="1" as="geometry">
            <mxPoint x="970" y="149.67000000000002" as="sourcePoint" />
            <mxPoint x="910" y="149.67000000000002" as="targetPoint" />
          </mxGeometry>
        </mxCell>
        <mxCell id="yCtW0zK6xdps2pBfvqSu-7" value="从redis缓存获取当天（或指定日期）所有有任务的设备列表" style="rounded=0;whiteSpace=wrap;html=1;" parent="1" vertex="1">
          <mxGeometry x="970" y="120" width="180" height="60" as="geometry" />
        </mxCell>
        <mxCell id="yCtW0zK6xdps2pBfvqSu-9" value="" style="endArrow=classic;html=1;rounded=0;fontSize=12;startSize=8;endSize=8;curved=1;" parent="1" edge="1">
          <mxGeometry width="50" height="50" relative="1" as="geometry">
            <mxPoint x="789.67" y="190" as="sourcePoint" />
            <mxPoint x="789.67" y="250" as="targetPoint" />
          </mxGeometry>
        </mxCell>
        <mxCell id="yCtW0zK6xdps2pBfvqSu-10" value="for循环逐个获取并验证每个设备的任务应用&lt;div&gt;app_packages = TaskCron.get_device_tasks_from_cache(device_id)&lt;/div&gt;&lt;div&gt;通过for循环返回出devices_tasks&lt;/div&gt;" style="rounded=0;whiteSpace=wrap;html=1;" parent="1" vertex="1">
          <mxGeometry x="627.5" y="250" width="325" height="80" as="geometry" />
        </mxCell>
        <mxCell id="yCtW0zK6xdps2pBfvqSu-11" value="" style="endArrow=classic;html=1;rounded=0;fontSize=12;startSize=8;endSize=8;curved=1;entryX=0.5;entryY=1;entryDx=0;entryDy=0;exitX=0;exitY=0.5;exitDx=0;exitDy=0;" parent="1" source="yCtW0zK6xdps2pBfvqSu-10" target="yCtW0zK6xdps2pBfvqSu-3" edge="1">
          <mxGeometry width="50" height="50" relative="1" as="geometry">
            <mxPoint x="540" y="370" as="sourcePoint" />
            <mxPoint x="590" y="320" as="targetPoint" />
          </mxGeometry>
        </mxCell>
        <mxCell id="yCtW0zK6xdps2pBfvqSu-12" value="" style="endArrow=classic;html=1;rounded=0;fontSize=12;startSize=8;endSize=8;curved=1;" parent="1" edge="1">
          <mxGeometry width="50" height="50" relative="1" as="geometry">
            <mxPoint x="389.58" y="190" as="sourcePoint" />
            <mxPoint x="390" y="280" as="targetPoint" />
          </mxGeometry>
        </mxCell>
        <mxCell id="yCtW0zK6xdps2pBfvqSu-13" value="从上一步获取的devices_tasks中构建应用配置数据。通过for循环提取数据，其对应的键值赋值为device_id和app_packages。通过for循环提取出apps = {&quot;1&quot;:{&quot;package&quot;:&quot;package_name&quot;}}，task_apps = [1, 2, 3]&lt;div&gt;unique_packages = set(&quot;package_name1&quot;, &quot;package_name2&quot;)&lt;/div&gt;" style="rounded=0;whiteSpace=wrap;html=1;" parent="1" vertex="1">
          <mxGeometry x="252.5" y="280" width="277.5" height="120" as="geometry" />
        </mxCell>
        <mxCell id="yCtW0zK6xdps2pBfvqSu-14" value="" style="endArrow=classic;html=1;rounded=0;fontSize=12;startSize=8;endSize=8;curved=1;" parent="1" edge="1">
          <mxGeometry width="50" height="50" relative="1" as="geometry">
            <mxPoint x="389.58" y="400" as="sourcePoint" />
            <mxPoint x="389.58" y="470" as="targetPoint" />
          </mxGeometry>
        </mxCell>
        <mxCell id="yCtW0zK6xdps2pBfvqSu-15" value="第三步，加载脚本数据&lt;div&gt;将上一步获取的apps和task_apps传入&lt;br&gt;&lt;div&gt;&lt;div&gt;script_dic_by_package = deal_data(apps, task_apps)&lt;/div&gt;&lt;/div&gt;&lt;/div&gt;" style="rounded=0;whiteSpace=wrap;html=1;" parent="1" vertex="1">
          <mxGeometry x="280" y="470" width="220" height="80" as="geometry" />
        </mxCell>
        <mxCell id="yCtW0zK6xdps2pBfvqSu-16" value="" style="endArrow=classic;html=1;rounded=0;fontSize=12;startSize=8;endSize=8;curved=1;entryX=0;entryY=0.5;entryDx=0;entryDy=0;" parent="1" edge="1" target="yCtW0zK6xdps2pBfvqSu-17">
          <mxGeometry width="50" height="50" relative="1" as="geometry">
            <mxPoint x="500" y="510" as="sourcePoint" />
            <mxPoint x="600" y="510" as="targetPoint" />
          </mxGeometry>
        </mxCell>
        <mxCell id="yCtW0zK6xdps2pBfvqSu-17" value="deal_data：预处理数据，准备开始任务 - 从Redis缓存获取脚本数据" style="rounded=0;whiteSpace=wrap;html=1;" parent="1" vertex="1">
          <mxGeometry x="685" y="485" width="200" height="50" as="geometry" />
        </mxCell>
        <mxCell id="yCtW0zK6xdps2pBfvqSu-18" value="" style="endArrow=classic;html=1;rounded=0;fontSize=12;startSize=8;endSize=8;curved=1;" parent="1" edge="1">
          <mxGeometry width="50" height="50" relative="1" as="geometry">
            <mxPoint x="785" y="535" as="sourcePoint" />
            <mxPoint x="785" y="600" as="targetPoint" />
          </mxGeometry>
        </mxCell>
        <mxCell id="yCtW0zK6xdps2pBfvqSu-19" value="通过for循环从task_apps中获取每个app_id，再通过app_id从获得apps中获得应用包名package_name" style="rounded=0;whiteSpace=wrap;html=1;" parent="1" vertex="1">
          <mxGeometry x="670" y="600" width="230" height="80" as="geometry" />
        </mxCell>
        <mxCell id="yCtW0zK6xdps2pBfvqSu-20" value="" style="endArrow=classic;html=1;rounded=0;fontSize=12;startSize=8;endSize=8;curved=1;entryX=0.5;entryY=0;entryDx=0;entryDy=0;exitX=0.5;exitY=1;exitDx=0;exitDy=0;" parent="1" source="yCtW0zK6xdps2pBfvqSu-19" edge="1">
          <mxGeometry width="50" height="50" relative="1" as="geometry">
            <mxPoint x="775" y="710" as="sourcePoint" />
            <mxPoint x="785" y="750" as="targetPoint" />
          </mxGeometry>
        </mxCell>
        <mxCell id="yCtW0zK6xdps2pBfvqSu-21" value="将上一步获得的package_name传入函数中&lt;div&gt;&lt;span style=&quot;background-color: transparent; color: light-dark(rgb(0, 0, 0), rgb(255, 255, 255));&quot;&gt;scripts = TaskCron.get_scripts_by_package_from_cache(package_name)&lt;/span&gt;&lt;/div&gt;&lt;div&gt;&lt;span style=&quot;background-color: transparent; color: light-dark(rgb(0, 0, 0), rgb(255, 255, 255));&quot;&gt;返回类型为List[Dict[str, Any]]&lt;/span&gt;&lt;/div&gt;" style="rounded=0;whiteSpace=wrap;html=1;" parent="1" vertex="1">
          <mxGeometry x="577.5" y="750" width="415" height="80" as="geometry" />
        </mxCell>
        <mxCell id="yCtW0zK6xdps2pBfvqSu-22" value="" style="endArrow=classic;html=1;rounded=0;fontSize=12;startSize=8;endSize=8;curved=1;" parent="1" edge="1">
          <mxGeometry width="50" height="50" relative="1" as="geometry">
            <mxPoint x="992.5" y="790" as="sourcePoint" />
            <mxPoint x="1085" y="790" as="targetPoint" />
          </mxGeometry>
        </mxCell>
        <mxCell id="yCtW0zK6xdps2pBfvqSu-23" value="从redis缓存获取当天（或指定日期）指定包名的脚本数据&lt;div&gt;scripts = [{&quot; &quot;: &quot; &quot;}, {&quot; &quot;: &quot; &quot;}]&lt;/div&gt;" style="rounded=0;whiteSpace=wrap;html=1;" parent="1" vertex="1">
          <mxGeometry x="1085" y="750" width="320" height="80" as="geometry" />
        </mxCell>
        <mxCell id="yCtW0zK6xdps2pBfvqSu-25" value="" style="endArrow=classic;html=1;rounded=0;fontSize=12;startSize=8;endSize=8;curved=1;entryX=0.5;entryY=0;entryDx=0;entryDy=0;" parent="1" edge="1">
          <mxGeometry width="50" height="50" relative="1" as="geometry">
            <mxPoint x="784.57" y="830" as="sourcePoint" />
            <mxPoint x="785" y="969" as="targetPoint" />
          </mxGeometry>
        </mxCell>
        <mxCell id="yCtW0zK6xdps2pBfvqSu-26" value="对上一步获取的scripts进行验证之后得到formatted_scripts&lt;div&gt;script_dic_by_package = {&quot;package_name&quot;:&amp;nbsp;&lt;span style=&quot;background-color: transparent; color: light-dark(rgb(0, 0, 0), rgb(255, 255, 255));&quot;&gt;formatted_scripts，&lt;/span&gt;&lt;/div&gt;&lt;div&gt;&lt;span style=&quot;background-color: transparent; color: light-dark(rgb(0, 0, 0), rgb(255, 255, 255));&quot;&gt;&quot;package_name&quot;:&amp;nbsp;&lt;/span&gt;&lt;span style=&quot;background-color: transparent; color: light-dark(rgb(0, 0, 0), rgb(255, 255, 255));&quot;&gt;formatted_scripts，&lt;/span&gt;&lt;span style=&quot;background-color: transparent; color: light-dark(rgb(0, 0, 0), rgb(255, 255, 255));&quot;&gt;}&lt;/span&gt;&lt;/div&gt;" style="rounded=0;whiteSpace=wrap;html=1;" parent="1" vertex="1">
          <mxGeometry x="630" y="969" width="310" height="70" as="geometry" />
        </mxCell>
        <mxCell id="yCtW0zK6xdps2pBfvqSu-28" value="" style="endArrow=classic;html=1;rounded=0;fontSize=12;startSize=8;endSize=8;curved=1;entryX=0;entryY=0.5;entryDx=0;entryDy=0;" parent="1" edge="1" target="-zhdSYO7AKNaBKJBqnGX-1">
          <mxGeometry width="50" height="50" relative="1" as="geometry">
            <mxPoint x="940" y="1003.71" as="sourcePoint" />
            <mxPoint x="1030" y="1004.0699999999999" as="targetPoint" />
          </mxGeometry>
        </mxCell>
        <mxCell id="-zhdSYO7AKNaBKJBqnGX-1" value="" style="shape=image;imageAspect=0;aspect=fixed;verticalLabelPosition=bottom;verticalAlign=top;image=data:image/png,iVBORw0KGgoAAAANSUhEUgAAArUAAAKSCAYAAADMCSPPAAAAAXNSR0IArs4c6QAAIABJREFUeF7s3XdYVMcexvEv0QSNSTSKFb1qFBErdhHFqIgFBXs3dsXeG4pGLIkoFmzYjYk9JiooNsSCDSv2ggVjF7GBYt37ALtIWWCX5i78/Oc+N86ZM/OZOeu7Z+fMMVAoFArkjwiIgAiIgAiIgAiIgAjosYCBhFo9Hj1pugiIgAiIgAiIgAiIQISAhFqZCCIgAiIgAiIgAiIgAnovIKFW74dQOiACIiACIiACIiACIiChVuaACIiACIiACIiACIiA3gtIqNX7IZQOiIAmAnfxmrGEo6+ily1HB+dWlNTkcCkjAiIgAiIgAjouIKFWxwcoQzcv2JfpA6fgY1AXp3mjsPwxQ2sks/OnmFDSkhmBBlH1KBRd2BLmTsNk1iyHi4AIiIAIiIAuCEio1YVRkDaoFQjd3AWjThsj/q7tmiBWtcgmUkkWiAy1Lozi8BVnKiW5HjlQBERABERABHRTwODChQtq96ktXbq0mha/wP/PyUyc58nxq7d5/i7yro+i7RperGqBoW72MYmtuoe7TTGGHOyq4d0sbcsnsVnRDts7JBdN3Evjevkg/Ysmvz6dqyFwE13tB7GLRsz3WEHLQinZwrQfr5RsvfZ1SajV3kyOEAEREAER0CcBtXdqL168iLpQG7pvKOUaL+JVGTs6NSjJd5mUXTVrxYT25cisTz1PtK3ahh5tyyfagEQLpPtQm6hAcgqk/Xglp7XJP1ZCbfINpQYREAEREAFdFtAq1J6ZUh6LKa8Zfegak6p8Xpunyx1Metu0DT3alk96y1RHSqhNjmHaj1dyWpv8YyXUJt9QahABERABEdBlAa1C7RHHYtSd9QPOJ88wqkxC3Qrl6lY3XN034X36Jk8VufipUj3a9BvJoKYmfBvj0Icssy3CgIM98bjRFv9RTizffZ7HmQtSqfEvjHEaRF3jr5VHfGBrz+9o6zuSDa6vce2/lvsmvVi+3oGQaZ0YuC6QfI0dWebWg1IxThLKjV0rmbd4Az7+13jw3ohipatj5zCK/nam/BCVz+M+TKOul3Yr7rOhffhTS9qWV9X2lsDdi5i5YB27TwYQhBElqjai44AR9K5XkG9in/T9PfbO+ZVpq3fg/+hr/lfZjgGTJ1HkL1NsF5VM/vKDj484smIGrqu98b8WwN3QrBgXL4WFvQNjhrWjTPbYDXrDTa+FuC7ayO4T13n2tTElylSlae8R9LM3I3uM7zvajG/4eSLD5tBDMb80fTaP1ZZbC7AyG85FB0+udbzFxIkL8Tx5h3e5y9G4iyOThtYnavokdby09tHFS15CrS6OirRJBERABEQg5QQSCbXPObx0Frv+izzh/f0L+cvPkFo9emCRK1ojYiw/eM/lhfb8PGwfr/JWolnT6uQ3eIjf9n85cT871nP2s8XBNNpSBVXoaUIr22Oce9WIembZeHZ2J5t9b/PRpB9evrOoHRGslKF2XzXs6pah0KfzrF/rR+EmHSj0w4/k/G8rKw89xGbRVbZ1M1Y28B2XF7ei/uDdvC5qhX0Dc3IbBHN+9z/43PhElUn72Du6onI9cCBbJ7lx8GX4oaGc27KKQ/fMaNK/LoWjdbdkG2d6VQt/aEnb8pF9uPlHO2r18eRl4Rq0sKlIboMgTu/azJHAH2m2/CBrOhZBtbID3nFqSk1qTTnHVwWq0qxJFfK+u8k+n+zUrrkP9zVFkhlqP3JpjjU1xhwla5kmtKxjSk7DDwRf9WaTxwUy2yzi8LZuFInq/weuLm1BnYG7Cc5Vnqb2NSnyzXPO797M/psKyo3Ywb4plnwXVV6b8Q0/KOacC7u0hXnbr5NoqG3+C41PnOCldR1MDJ9wwvNfjt/7RLnxh/AdX0n5RSEp46Wtj5YXZ8BWJq8+xft4D/uaSr84YV9cy3rjFJdQm1xBOV4EREAEREC3BRIJtervmsXuUowHxV5to1vRNqz7sSubDy/ANk9kPPsU5MUAy+aseNqRv28vp0lU6lGGHm9Dqk/0YfvYikQ84654jvfwWtguvIH1gut49ggPqcpQ+1cz/nq8nlY/3GWRdXGGMpuAvX0p+HwDrfN1YV8fD4Lm1ifiXt87X8ZW68Imo+5s2DKOSqoH6ENP4vRzTWZca8v6e3/Q7HMKU3ZP25+nNSwf6kUfk+b8aTwcn31Tqfa98nSvjjOubh1cH3TH89p8rFV3ml9spsP/OvJPvu5sOTyfhkZfRRwQdtWdjjaObH9UJpmh9jquFmUZd7sL/15fTKMoh9f4uY9lxVkjmk9yokFeZTtDPOhepDVrc3Ri/SF3muVXrqQOPcsUm5pMOVUdt+t76R31UJc24xv3Ynm2ri0Fum9LNNSezlkfF++N9DPLqpxvOxlg2YwVD5uzJnAdLXPErlvD8UJLH22vd5/h5Gq0gNcG6pfzKBTf0t/rKa51tK04dnkJtckVlONFQAREQAR0WyDllx+cmEjxWtNhuA8BUy1i9P7ouOLUcYXRhwKYVEX1V6rQU5dFt3bQLX+0Q/ynUbaaM/f6eBA8t/7nULuhJ56v5mNNKJs65qIzf/J0TWuysZcB3zdhWdsNhCyzT/TBtYMjC2IzrwDT/P0YZprU0KM6TsOQdMqZkpbTyDHlDMdGmMU46eWZ1akw/hVOxy4yzlz5V2emUMpiCu9H7Of6lOrRyr9ifbvcdN1SNZmh9gouVcyZ8Kg326+5US9LIhPWbwLFrFwwUDO+93ZM4bcdT6jWZy6dyyZlfJMeav2areLJ+naoviOE1xQ5375h/NFLjK+Q1PHV0kdnr3cJtTo7NNIwERABERCBFBGI2tIr+m4H8e1+oNGa2v3DMWq4gFLTz3NwsEmMRl6fa0XZ0ZfovzMI159jh55ObA5Zhm30LRSCfZgxYTOBFbrh1qMSX6nu1Gobaj+94Mo+Lw5duMX94Dd8VJ46cjlFoXjWCGsYUqN6qGF5pY9Rg360KR/z9nCI/0YW7gqK6aO8k1dajWfKPCj2nnMutakx4TTZzVvQ3r4m5U1NKFm2AuWKG2EY+wZiAu1RPyNVX1o0Gd+kh9rwNbVP51irmW8X47nTqeF4oaVPilyWqVGJhNrUUJU6RUAEREAEdEcg5e/UJhB6IkNt7JCRQOiJ46RcfqBNqH13kYWtbBmx+yEKNT/xKhQl0zbUavtzc6qHWuD9Qw6vnMGsFVvwPnuPt0qnbKZ2jHCdxah6xkQuegBSMtRqcB1ouvwg9UKtlj4a9OnLFJFQ+2Xc5awiIAIiIAJpJZDyoTYl79SmQKi9u7wJJfvvp3TfP1k9vhEmubJEBbSE7zxreidP1UgNyyt9qs2/wfaeqofZEhjutAi1UadXEBZ8l1s3rnLu4CZmTf8D/08NWea/hU6qpmbEUKuNj7ZXrjwopq2YlBcBERABERABtQJxQm1oaCi3b9/GzMyMr76Kuj8XcbBGyw8SXVNrwBjf6/xaWdWe1LxTq2D3ICPslpRjzlUfHKJvYcBH9g4pQBP3Aml7p1a5pva7SSc4OTpq4Wn80/P0ZMxqTOVDnDW1IaxvZ5QCa2rjO7WCq7OtKD/2DF03B+Nuq9xoLKE1tducmLjtCZaDFtGtnGrdgjbjG7ctmt6pjX9NrWHMNcpRp9DwS0i8IxOPj7YfNNreude2/qjycqc2yXRyoAiIgAiIgF4IxAi14YH27t27GBkZkStX9D27IvuiUagN8aRHkVasiW/3g2ed2XxrKbaqXQjQJvRov/zg9ORy1Jj6lLZ/nWJVq3yROyIAb67/Qa+mQ/n7duF4Qq3qQawmrHr4N+3iPD0fe3w1LB+6i74m9qzMOwjv/dOxVG3q+j6QZR2scDpiwewz62mXR1n/8820L9yRf/N3Z4vv590P3l5fTGur4ex+VjF5D4q93MnoFi6cKtWX1XNaUyDqe0wYRxyrUnfWUwbtuYtLLaXcKw+6F23N2uwdWee7mOZRux+cwbl+LaadtWDetT30KpiULy1JD7XncjXgt30b6Wsa+bLmT0Gq3Q9asObOWlrG2WtXw/HS1kdnL3sJtTo7NNIwERABERCBFBGICrWqQFuwYEGyZYtKnDFOolGo5QNXFtlRe6hyn1o7CwrwgOPKfWrru+3n395q9qn1VvMgUZwuah9q3193p6nFEPaH5aFSEzssChsSdvc0O/d/T4OGt1i+JnO8L5O4tbgh5oP382O1tthXNlLuppAL62GONFKzckCz8h+5tbodtXp78KKQBS0aVyZf5hACDmxj+4U3VBrtwY5JlnzOYO84Nbkmtaaq9qmtSt4Pt/DZlZlylfayflvp5IVagtjuUJOWq+5RsEZLmlYrxPdfhfH02gH+8ThHSPkx+Pj8SuWol1nE3KfWLnyfWsMXnNv1d+Q+tSN3sG+ymn1qNRpfINbP8ap9ak1sB9KslGprhqLYje5G5fBpqnz5QmD7HtQ4eIQwm7oU++ZxtH1qffEdXzHuCy3CD9VofLX1SZHrMhUqkVCbCqhSpQiIgAiIgA4JRIRaTQKtxndqIzoXytUtbsx038ie0zd5xo/8VKk+bfuOZJBdCfVvFNMo9GgfauETwf7rmfnbErxOXOa/sB8pXq0xvcY6Yu5VB8tp8Yda3t1hp8s4pq314dzNoIgHqOJ/sCx8T1xNy39+o9jOEwE8y5yXYmVq0rzHAPq0KMePsXccUL1RbNV2zj7MTMGKjej962RKbjKjiXtyQ234betbeC2ayfz1PvgH3Cbo/fcULFaC8nU7MWx4NyyNY7/j7A03diyIfKOY3zWeGRpTIvwNbeFvFGsWzxvFNBrfzw+ixbdva/jsUihsWPrfVjrn/hxqA/rv5FzrK0z41Z3tJ+/wPk95GnV1xDnGG8ViXXmajpfWPjp0hUc1RUKtLo6KtEkEREAERCDlBAxCQkIU4UsOErpDm3Knk5pSVyDm27jiPVehBgzrZUmiKypSt7EpU7vyTu0lh+0EzamXMnWmy1qUofZZdbr0sSLyXRrl6ODcipLpsr/SKREQAREQgYwmYHDlyhWFBNr0MuwavgGu1mxu7HZAg70XdB9GGWrVbeml+41PyxZGhtoZgZ9/BlAourAlzJ2GadkMOZcIiIAIiIAIpJJAxJ3a+NbQptI5pVoRSDkBCbUpZyk1iYAIiIAIiIAeC6jdp1aP+yNNz2gCEmoz2ohLf0VABERABERArYCEWpkYIiACIiACIiACIiACei8goVbvh1A6IAIiIAIiIAIiIAIiIKFW5oAIiIAIiIAIiIAIiIDeC0io1fshlA6IgAiIgAiIgAiIgAhIqJU5IAIiIAIiIAIiIAIioPcCEmr1fgilAyIgAiIgAiIgAiIgAhJqZQ6IgAiIgAiIgAiIgAjovYCEWr0fQumACIiACIiACIiACIiAhFqZAyIgAiIgAiIgAiIgAnovIKFW74dQOiACIiACIiACIiACIiChVuaACIiACIiACIiACIiA3gtIqNX7IZQOiIAIiIAIiIAIiIAIZNBQq+DF1X3s9L3IrXsvMOvghH1xmQwiIAIiIAIiIAIiIAL6KpABQ20IJ1zb0nqiN48+GqBQfEt/r6e41tHXIZR2i4AIiIAIiIAIiIAIZLxQe3cp9UsM5HApB9atcaKBSS6yfCUTQQREQAREQAREQAREQJ8FDC5cuKBQ14HSpUvrc7/ib/vBkeS1mcf/nE9yYlSZ9NlH6ZUIiIAIiIAIiIAIZDABtXdqL168SLoNtX4TKGblwg8TjnPGsXwGG27prgiIgAiIgAiIgAikT4GMF2qvuFLFfByPBu3hjkut9Dmq0isREAEREAEREAERyGACGS/U3luGTbEB+HbdTIi7LbKcNoPNeOmuCIiACIiACIhAuhTIgKF2KfWLDcSv5xaez2+IQbocVumUCIiACIiACIiACGQsgQwUaj/x9uUDzrj3ouGE4zT64zLr2ubJWKMtvRUBERABERABERCBdCqQ/kOtz3ByNVrAa4PIe7KKbGXoPGU+0/tUI6fcpk2n01q6JQIiIAIiIAIikNEEorb0ir7bQbra/SBgK5NXn+I9nwh7+R9+2zZzIXdv1m2bRf28GW24pb8iIAIiIAIiIAIikD4F0v+d2ljj9uHkr5Sr+Ttfjz+K//gK6XNUpVciIAIiIAIiIAIikMEEMlyo5eEqbIs44P3LJkKXNCVTBhtw6a4IiIAIiIAIiIAIpEeBOKE2NDSU27dvY2ZmxldfpcMNr24twMpsOBcdPHk6xzo9jqn0SQREQAREQAREQAQynECMUBseaO/evYuRkRG5cuVKnxj+0yhbzZkPow9xeVKV9NlH6ZUIiIAIiIAIiIAIZDCBqFCrCrQFCxYkW7Zs6ZfBdzQFrOfyvylnODbCLP32U3omAiIgAiIgAiIgAhlIICLUZphAGz6wJydhWvM3Qrtt5soiW77LQIMtXRUBERABERABERCB9CpgEBISoghfcpDu79CqRvDdWabUrMWUc1kpZdsaa7N8WHZ1wr54eh1i6ZcIiIAIiIAIiIAIpH8BgytXrigyTKBVjueHR36sdp3Jqt0nuRLwks4eQbjWSf+DLT0UAREQAREQAREQgfQqEHGnNl2voU2vIyf9EgEREAEREAEREAERiBJQu0+t+IiACIiACIiACIiACIiAPglIqNWn0ZK2ioAIiIAIiIAIiIAIqBWQUCsTQwREQAREQAREQAREQO8FJNTq/RBKB0RABERABERABERABCTUyhwQAREQAREQAREQARHQewEJtXo/hNIBERABERABERABERCBdBVqHzx4QP78+WVURUAEREAEREAEREAEMpiAhNoMNuDSXREQAREQAREQARFIjwISatPjqEqfREAEREAEREAERCCDCUiozWADLt0VAREQAREQAREQgfQoIKE2PY6q9EkEREAEREAEREAEMpiAhNoMNuDSXREQAREQAREQARFIjwISatPjqEqfREAEREAEREAERCCDCUiozWADLt0VAREQgTgC7x5xasdmNj4sz2QHS74RIhEQARFIVOAdh92d8M/XhhaNK5FPBz44JNQmOmhSIMUEQo/w+z8u7DOozcTmQ7HMlmI1p01F+t7+tFFKvbME+zJ94BR8DOriNG8Ulj+m3qkyUs3Pz/7BuL5jWHH2OZk6rid4mX36DLX6fv3qe/sz0kWVYfr6jq09c9JuzUdymHfjt0XT6Gqe44v2XkLtF+XPWCcPPdubnP9si+h0m5Y3+bP8t3oFoO/t1ytsNY0N3dwFo04bI/6m7ZogVrXQt29FujcCz4//RvOmkzia1YqRM3+nf9OK5Muie+1MiRbp+/Wr7+1PiTGUOnRQIOwhpz0WMHrEDA69qcGvnv8wpuqXC7YSanVwjsRt0l56O3VkZdbeHHCcTA2OM3KaHXPetMVjshsN9aIPQPBmOq8czS7qs7D7Ilql6J22+7i7V2DgvVQ0SWb7924uQqOzJZk9eCcDjKIPWjoZ39Seh4Gb6Go/iF00Yr7HCloWSskT3sPdphhDDnZlS5i7/lxTUQRJaP9zL/pUbM4fn5qy1HsNnYvF99thOpmfybx+E55t8vmTclejDs23kHXYTR+CV8klhHS0xzDlOqnDNSXN/92N1XSo2xvPzN3ZdmohNl8o10qo1eGp9blp3vRx6sCKrH046OiMBX6MmtaU2W/a4Tl5Lg30og+p3cg0+EclmV2IP9TK+CaTNgUOT0IoTIGzplwV2rb/E6ecK2I57RFt1/jzR8s8CTRF5mfi4ySfP4kbaVpCh+Zbhgy1Sfd/vKkjZTpvpuCE45xyLI+BpkOeguUk1KYgZupV5csQ55YsyDKY46McqYg/E11smBbWlb0TplM79U6sRzXr8z8qMr5ffqJpGwq/fItjtkDL9n86yfjSNZn5aRgHL0+j6lcJ9UfmZ+KjLZ8/iRtpWkKH5luGDLXJ8P94lNEl6jA3y2iOXJhExS+QaiXUanqdfdFyZ3ByacjvWcZxcdAgShDATDdLxoYN5Oio8VSO3bZPjzlybC4zT/tw9lkg/73PgnF2U2qYdWdsnVaUzRr7gDBuXFrCzCP/svvBTZ5lyoepUSWaVh9M/7KmZI8xMR+zdGlZ+t3twI4RrTi7bSrLbl3i0Vf5qFK8A2Nt+lI3x9fRThD5YT/4fszZbWd3hU2V1fw+EbSYWnMncN58HTcqB+K0aymeD+/zNmspbCsOx/nnehTMpKo+0sUlJOErJ95zaTSmWrY/vM6P99i7/zemntnDmdeZKZyvIQMbOlH0VCUanjZRs/xAy/FVtvvVcVc6dHPBT1GFkavWMaLa9xr1KNFCHx9xZMUMXFd7438tgLuhWTEuXgoLewfGDGtHmeyxa3jDTa+FuC7ayO4T13n2tTElylSlae8R9LM3izV/HrLMtggDDvbE40Zb/Ec5sXz3eR5nLkilxr8wxmkQdY2jz5/IsDb0UKz5s+I+G9qrWb9yawFWZsO56ODJtY63mDhxIZ4n7/Audzkad3Fk0tD6fK7+FBNKWjIjMJH5E9+5EoVUFvj0mMOLnJm8dBsn7oJxhUY4OE+hxIaSNHEvz5xr+3D4X/TK3hK4exEzF6xj98kAgjCiRNVGdBwwgt71CkZ7iCsZ7b+9iJ9LDuVCr608nNeAzAn2Rcv5KZ8/MTTT6+ePptNf+3JazLf7syi/aDovqm3jdpNqMU51xLMctY9/x5S+RxhdQPlXUf++rOWq+RXG7F7NrqDnZM9RnvoVR+FkUZnc0b/gJRBqH18YRPUNG/hguojjHVuQP/xjRNv6I5r1mqvnFjLj2Fb2PgrkqSIHxfPVpo3FYAaXLU7Ukyf3ZlDKfRbVWt9iZbnwhe/HGDHNnrmofsEFxXVHcq/ex3CHY4w1Tmp7tPCPM7jv8eqfn+bLyzLnqg8OhbUf/eQeIaE2uYJpcvx1XObWZFyW37jdpzvGPGTxkvIMeDOG84OHUjJGGz5ycX9TqnufImsua1oVLUGuzB95+mQ/G29c5evCMznSszNFo475wNUjHbDyOkCwYSnsTKtTNNMLzgV44vPqE+bVN+Fja8F3UeVVodaa1sVO4f/Wmvp5svL0gTeb793jY/Zu7O7/O7WjgvMLDh+Zx87nkRWEPfbA7WYgiYbaEm2wvX+KV0WtMMn0lBPXt3M0VIF5zR0cblBB+Q/7HbZ6LWL/2/CaQzl/ZQMHQovRtFJtol9LZuZO9C6S1IfStGw/7zi5ywZL38sYfFuBFiUqkvfjLXxu/4BVoYMsulRYTajVZnw/D7bv6MLUd3sc8R/yDNpD4PSaKTAbP3JpjjU1xhwla5kmtKxjSk7DDwRf9WaTxwUy2yzi8LZuFIk+f5a2oM7A3QTnKk9T+5oU+eY553dvZv9NBeVG7GDfFMto80cVapvQyvYY5141op5ZNp6d3clm39t8NOmHl+8sakcF5+ccXjqLXf8p58+lLczbfh27xEJt819ofOIEL63rYGL4hBOe/3L83ifKjT+E7/hKyvkTyNZJbhx8GTl/zm1ZxaF7ZjTpXzfG/CnZxple1ZL6UJqCgEU2VBp6iLd5KtDMrgYF3gewb8+3VKyym7VbY4faD9z8ox21+njysnANWthUJLdBEKd3beZI4I80W36QNR2LEPm9Lhnt95tAMSsXfpjox5mx5RKZN9rMT/n8ySifPynwYRNPFVrMt6SGWpMWNLjnT1gxK4pleszRq16cfGNA1Z/3sL9eaaK+VscTahXPN9NmQT+2fN0Oz/5zaaD6eFCFWk3r5z2XDrXFavdhXmUtR/MSVShg8Ijj13bg9zobNg13sNWyROSXzrB/aDO1L3fr+nKkjgmErKXprIn4fazIzJEb6PwdPDzWlkI7vmfD+GW0CF8ir3V7wk+khb+aETz3WwWqTnrF6EMBTKqSerMkvpol1Ka9eRLO+AD3xeYMNHTjSde25CCEdauL8cvrKdx06EXM52WUd3FftGHbqHk0ilrZ/ga/w04su5eblg1H0+AHZTPe7qDr9G6sMWzFJoe5NMuuvGfz7hyTlzTE+VEl5g/zoE/UTTFlqL3zNTWsPNlR35yI61nxAu8tNjQ8fQebxqfYbqH6ahyzu89OdiHftl2JhtoThla49vyT/spHsT+F7qXfgo4sD23MujEraRXnbnPa/PyXaPvfbKHd733YnK09Hv1n0TBb5Nf+sEfL6bDcGY83ZmpCrTbj+9kz9MwievSZwxkqMGTxcvpWSGrwij5G13G1KMu421349/piGkV9m3mNn/tYVpw1ovkkJxrkVR4T4kH3Iq1Zm6MT6w+50yy/cv6EnmWKTU2mnKqO2/W99I6apMpQ621I9Yk+bB9bUTl/nuM9vBa2C29gveA6nj3CbzPE/fNsXVsKdN+WaKg9nbM+Lt4b6WcWOVE+Be1kgGUzVjxszprAdbSM8yOBlj/fa3oVv/dhSJFGuH+yZ/nJv+iovE38+sIcWtQbz/4XVWPeqQ31oo9Jc/40Ho7PvqlE3Xx/dZxxdevg+qA7ntfmYx3nO5qW7fcZTq5GCyg9/TwHB5sk0htt5qd8/qTmw7u69Pmj6SWgfTkt5lsSQ+0Jw9rM7rWavnkjt/r48Hwzvyzsx6Z37fB0mksD1a+B6kLtp1u4L7dm4H95GPbLbqYXj/YLmTJEalx/2Ha6uHRnrWFbtvSfje13kSf+FLqHfgs6sTysJf+OXkiTiH/HI5cdzi22luCW9fjq9mSKbH9EvQ8HKWB/jslF4Nh2c2pd7cjpYSMpG36Itu2JOLsW/moG9/pcK8qOvkh/r6e41tF+9JN7hITa5Arq3PFXmT7HivGvO7FzpCv1ov+Sq66tt6dQZPk8vqruwU3bqjFK3LvowtTLj7GwmEnnqIyhCrWWLB7xD92j/xQd8fPITO6Zr+VFy3rqQ4mGofaYyQKCf2lF9B/Uj24vj9Wxb5jQ5wROBWNXryOh9q4LJRe78r66Jzdso39NVX4RuV5BTajVpUl0BZcq5kx41Jvt19yol9j2Tso7fgbDfQgbUvzuAAAgAElEQVSYahFz/uyYwm87nlCtz1w6R3zChv9Rhdq6LLq1g275ox3iP42y1Zy518eD4Ln11c8fDUOtX7NVPFnfLub8GVecOq7fMP7oJcZXiF29lqFQ0yFT/sx/tvs/PF3YWHmHNfzgZ/zZMj+9tteIGWpPOVPScho5ppzh2AizGGe5PLM6Fca/wunYRcaZJ7P9WoVaTTsbXk4+f75oqNX7zx9t5hqQxFB7zGQ+T39pjereDnxgx6afsD9XKubnc5xQ+45z3s2w3O9PmZoe7GtQkRj3V5QhUuP6A6fy0zI3UPPvb+S/dzC2pz/OET89vuSvVSZ0exv5i23Wk50pfLMVKz/2ZYPJJTZVzhxxs6trpsU869gsctmCtu3Rkl9dcQm1KYCoquLBgwfkzx/9X8kUrFxvqnqPv3cjqu0/z4+5belgVp3yeYpRMr855XPnwjD28sFrY8nx5wrK1jvMoZ+La9BLVahtxZZJC7CNvv4o9CAuXv9y2/gX5ltUQN2zJ4neaYi2pvZ5y7ox2nNtf0NKe19hQOfbzC6ho6E2Ac/4dz/QgD3NirznnEttakw4TXbzFrS3r0l5UxNKlq1AueJGceeP1uFIFWo7sTlkGbbRF3MG+zBjwmYCK3TDrUcl9fNHw1Abvqb26RzrGGoJf9imUqg9PRmzGlPJ7HiY8xMqxWjPnsE5abrYPGao3T8co4YLMGrQjzblPy/6CT8wxH8jC3cF0X9nEK4/62qolc+fLxpq9f7zR8sPuiSG2vBnNmL/+6J2Da4q1P7YkJElTcj0MYBtJ7y4XWACx3r1xyzq+Q5luxP490tt/dcdybl6OaXV/Psb+e/dNQb+cpNZyh9Tjm+vQE3/phG7IH3tVZVBWdbg/rEH7T7M5VLDb5jiWpfN5bw5U79MZIO0bY+W/BJqUwAsoSok1Cp1Pj7m8LE5uJ7yZM+TR7wziEyy2bI3YGST3xhtWuBzYEjJUKvB+EqoVbdPrQZwaVnk/UMOr5zBrBVb8D57j7eq+WNqxwjXWYyqZ/x5/qRkqNWgj5ouP9CZUKu88/q1mlC7d0iuuA+KKT1fK81jkygU38bzs56WofzACPI0mI/p7+c4NCTON0QNRiKBIvL5k2r7HCf6+SmhNmpiJvygmHahdles6/GnSn9z0r5m5NKp6H+0DZEJjJe6mzhPTnSkwDb4Y8wSMv1jineFm8z+MICc5xsQ3C4r/Sf3QNHyBn+oXmykbXuSd+VHHH1tTi3KjbnKgF2PmfkFtmaS5QcpMIi6W4WCsNB73Ay6xrkb/zLLdyNnqMOKQevprFpTKKFWq+HLWP+oKAgLvsutG1c5d3ATs6b/gf+nhizz30In1XIUCbUJz59zv1O+6q+Exlme8ZHtDjlouaqK2ju11ebfYHtP9euK1Z9Qy1B7chKmNX/jq9GHuJxqT3PI549WHy4aFM5Ynz8agDyYjfnC33ke7+4H3zO132FGqX7A1TbkxV5+8PEarkvqMuZBYcZ234tzkVgPd2hbv5Z3ark1iYIrdtDXYQWK9QPJ1nkfQ9+5YLbRgI2dstFr3l80V7vbg4YhXgPyxIr4TSiJlYsB445cxqliYqVT/u8l1Ka8qY7WqOCqTwPK7LtAt7a3WVJG+fagBNbU3j0/mQkXn1Cz1ly6G6vWLSSw/ECDnif6oRy1Bii+NbWGTOzjx3hdXVP733RMl8ziQ5w1taGsW/0Tv+j8mtr4BlHB1dlWlB97hq6bg3G3Vc6fhNbUbnNi4rYnWA5aRLdyqvmTwPIDTeaPhssP4l9Ta5gya1I1aGtEkadraG7cAy/rBQR69kD1fB2fLvJbtUpMOq9+Te13k05wcnTUQmQNzqZlqH3yJ/aFerGn6XLubepIir7cT21r5fNHg0FMtEiin5/p9vMnHpqnS6k9ZzzHS6/gZTvbaNvdvWXLuqK0vmSO29Ad9M2pPF7b0KnmQbF392ZTe/HvnMk1jKP9RlMh+nMr2taf6JpaAxx7nmWSajufl39hO2MkeZvN572HD+3Gz8f2w2ZaTdtDh9bf0W3TS/4Yv4RmqpcDatueRGdgYgWe8mfLQvTabsOyu1voFOPNmYkdmzJ/L6E2ZRx1p5awvYxaNZtTubvzZ4uWFIhaQxvGEc/a1D7+nCFdrjCjuPIvwnbQ1aUba75pyca+bjSP2v3An0mLGzHlSWUWDN1G7zi7H6hZU6uBQqIfysqL8Kzhz0zvtZp+eSO3b/i8+4Et68esoGWc3Q9UD2JZs3rsGtondQevRPqQaPvf/Evb3x34J9buB28fr6DV4vHsfFcuxR4UCz3jTk+H2ZxWpODuBy93MrqFC6dK9WX1nNYUiFoYHcYRx6rUnfWUQXvu4lJLOX9eedC9aGvWZu/IOt/FNI/a/eAMzvVrMe2sBfOu7aFX1JeQtAm153I14Ld9G+lrqpw/UbsftGDNnbW0jLPX7ivWt8tN1y1NWPXwb9pp8IrHED9X2nedyUmqMGr1OoZWVrf7xB3cG5ZlyP7c2M1YgUvnyuR+/x/7503g17/3cv5mrC29QnfR18SelXkH4b1/OpaqTaLfB7KsgxVORyyYfWY97eK8AEzb9t9krlUpRl9oyh9XN9E2twYXryZF5PMnw3z+aDIdUr2M4iSOM2yZEVaXxf3/oHuuyDT37slKWi4aw84sAzk6cjyVVf8Oahvy1G7p9ZaTuxpi6XuVyj/vxqdemc9hWtv633rRbXpX/op394PWbBkzH9U9BDjK8KnNOF28DS8eFWfdoMGYcprxLsMJ/ul7lv5Xm7NDh1NaBa9te5I7YI/X0sKkOzvKT+fywcHRtg5NbsWaHy+hVnMrPSn5lO0b69Ps/CMKFWiCXaGCfG/wlqAnvmy+cZkQo8Ec7OtI5ajXvMfcp9be1IKimV/gf91DuU/t3/jYVo+7T+0dDUPt4+04nzzDe6Weap/a4j/1okUe1X5jhbGz7kyVaPvq3TJrj+WdE7z9KXwfwaBo+9R6cbiBebRv5J+H5ebhZpTbeZSc+eyxN86l3FA+JzY/j6SRBiFF7QBr2/44+9RWIu+n2+y/kZky+Q+wPiDl1tQeGvU/bOY9iWh2yu1TG8R2h5q0XHWPgjVa0rRaIb7/Koyn1w7wj8c5QsqPwcfnVypHfWn4wNVo+9Tahe9Ta/iCc7v+jtynduQO9k1Ws0+tt5oHxdQNQMBWJq8+9Xn+KPepNbEdSLNSqq0ZimI3uhsRmVL58oXA9j2ocfAIYTZ1KfbN42j71PriO76i2vlza3FDzAfv58dqbbGvbKScP7mwHuZIIzUrATT1DzvnRpMGozj8/PNTmjnqzGJskXGMWhHrQTE+cmt1O2r19uBFIQtaNK5MvswhBBzYxvYLb6g02oMdkyyJk8nDu65l+x+sbUPZ7tsw7r+TQ64/R3sSPDkfdfL5k1E+fzg9mVI1pnKTggzacxGXWlH7RyZnAml97D3/vtT6+x/+MzTDvmQNChHIgct7Of/emG5tdrKkTLRvgNqGvPhevvDuJI7zmzLjRQVm9N3KkHzK27Xa1s8HLvu2odYu5T61plUj9qE/ptyntkFDL7ZYmkR7Ocojliwph+PjHLwvPosnEXenn7F6ZRnG3M9CcNHZPOtg93lHBq3bozV/tANesG9YTRovfECzVRdY3y5fwpWl0vyRUJucMdTVY9/dxst3DvPOH+bss7s8UXxLoR+KYf5TO4bX6YRljqhEq4qaBFxczMyjkW8UC86Uj5JGlbFL6I1imoZa5ZrdN/E8+BJxF1ZRmxWjIzePVj2tea3S31wsf5Xxu5fj+eg+77OUpnGl4UyO8UaxWAPw8T927nVmqv8hzr56FvGA3CfFTzHfKKPtmGnb/vD6VW8UO72L068zUzCvNQ42EzA7U4VGZ1Mu1L46PpP23WZwIqXfKPbmFl6LZjJ/vQ/+AbcJev89BYuVoHzdTgwb3g1L49jz5w03diyIfKOY3zWeGRpTonR17MLfKNYsnjeKaRpqE3lwKpxbobBh6X9b6Rx+t1EZagP67+Rc6ytM+NWd7Sfv8D5PeRp1dcQ5xhvFYk2Gd3fY6TKOaWt9OHczKOIBOYWiZMSXslHKh4mjH/Hy8O+06TGL01RmxMr1jLL4vEFQ7Gn27sFJPD32czkIcpWwxK6pBedHZMd+aaUE3yi280QAzzLnpViZmjTvMYA+LcrxY3wvQNOy/Xy8yRJ7CwbtzYzN5E0sG1aDPLGf5tb2eom4TSafPxnh8yfArTZlR/uhMJ+M/5ERmH6BV6JGTs933Lm6jN8PbWD7/RsEkwuzgjZ0sRpGn+L5Y74tT9uQl8AbxUJuTKDqqsXcM57Eyd4OmIT/qqVt/RHtf82V8DeKHf2XPY8CCSY7xfPVoW3EG8VMPr9RTHkt+mwxoeHpV5jXPsDxeqYR/zX8obg6fo8pbeXNaeuo+7RJbE8SLvqPTzgyqwetnXbzqf48Dm/pxU+JfJak1vyRUJuE8ZNDUlFA+aFwscJ6gluk9M7NMd8OFm8vclgzvEZ1knpzNxV1pOrEBJSh9pLDdoLmqN8rObEq0urvdw74nmbLquEWsJfecdaIp1Ergg8zqVVrfjvynHxV29N9pCPjmhaLtp9uGrVDV04jnz8ajsQTVtkXwmGXIU2XX2NTx6jV4hoeL8XSh8BHbnhM47cZy1nr95AcNcay6e+JWKrWMMfbydSbPxJq08fMSj+9SOCbbvI7GfmChsH3E76l8KnAVG479ECbZ8+T3zapIUUElKFW3ZZeKVJ/ilVyhwX1SjD8ZBf+fbKYRrFvfqfYeTSoKOw2Xm6TmDh7HecarOXFqhZ8mR+SNWhraheRzx/NhEO30KVAOzZk74nn5flYp8TLDDU7s5TSKYG3/NM1Ox12laP9MGcmDmpIEU0+PFJx/kio1akJIo1J6Ocb0RGBRAV0MtS+5OjymXgFKluveEfw+Z2s3XmF/P12cGxW3RhvPku0j6lU4FPoPc7cAvMyxhn+Tq26zflTiV0vq32/bxiFGy8kn9MxTo4zV/uiFL3smDRaS4GP3LtwFopWwFj5SnhNKkjN+SOhVpMRkDJpJ5Cqd0rSrht6e6bAQOjWDVauhMKFQd/+v+9krKyncrHjcp4u75jy7U/SwEbu+DBwX+QvBAqDb8lXoiy1Wg3j16F2FJO7XElSTZWD5PNHI9aTv5am5sxCLLi6kx7yk5ZGZlLos0Bqzh8JtTLTREAEIgUOHIBJk2DiRPlfdQ779slMEQEREAER0GEBCbU6PDjSNBFIU4G6dfX3Dm1a3FEOv3Mtf0RABERABHRWQEKtzg6NNEwEREAEREAEREAEREBTAQm1mkpJOREQAREQAREQAREQAZ0VkFCrs0MjDRMBERABERABERABEdBUQEKtplJSTgREQAREQAREQAREQGcFJNTq7NBIw0RABERABERABERABDQVkFCrqZSUEwEREAEREAEREAER0FkBCbU6OzTSMBEQAREQAREQAREQAU0FJNRqKiXlREAEREAEREAEREAEdFZAQq3ODo00TAREQAREQAREQAREQFMBCbWaSkk5ERABERABERABERABnRWQUKuzQyMNEwEREAEREAEREAER0FRAQq2mUlJOBEQgYYFgX6YPnIKPQV2c5o3C8kcBEwEREAEREIG0E5BQm3bWciYRSNcCoZu7YNRpY0Qf264JYlWLbOm6v9I5ERABERAB3RKQUKtb4xFPa/bS26kjK7P25oDjZGpwnJHT7Jjzpi0ek91oqBd9uI+7ewUG3tOVNmvTnvTgnwaTJHATXe0HsYtGzPdYQctCKXnOe7jbFGPIwa5sCXPXkzmfnP7rWn91rT3JsZVjRUAE0quAhFq9GFlv+jh1YEXWPhx0dMYCP0ZNa8rsN+3wnDyXBnrRB21CZFp0SJv2pAf/tDBNzXNktFCla/3Vtfak5lyTukVABPRVQEKtXoycL0OcW7Igy2COj3KkIv5MdLFhWlhX9k6YTm296IM2ITItOqRNe9KDf1qYpuY5Mlqo0rX+6lp7UnOuSd0iIAL6KiChVi9G7gxOLg35Pcs4Lg4aRAkCmOlmydiwgRwdNZ7KcfoQxo1LS5h55F92P7jJs0z5MDWqRNPqg+lf1pTsBrEPeM3VcwuZcWwrex8F8lSRg+L5atPGYjCDyxbn2+jFgxZTa+4Ezpuv5ar5FcbsXs2uoOdkz1Ge+hVH4WRRmdxfqQ6IbLdLSJwTxmiAnd0VNlXOEe2/veX2lWXMOPw3ux7cIogfKVnAmo6WQ+hjasw3ad4ebf0jG/jquCsdurngp6jCyFXrGFHt+5SZbR8fcWTFDFxXe+N/LYC7oVkxLl4KC3sHxgxrR5nssU/zhpteC3FdtJHdJ67z7GtjSpSpStPeI+hnbxZrPjxkmW0RBhzsiceNtviPcmL57vM8zlyQSo1/YYzTIOoafx3tBJFhZ+ihmGNst+I+G9qreVLs1gKszIZz0cGTax1vMXHiQjxP3uFd7nI07uLIpKH1+Vz9KSaUtGRGYCLzJ75zaaytjU94paFc3eqGq/smvE/f5KkiFz9VqkebfiMZ1NQk5vUS1V8PLrW6iOOE5ey6GEz2YpWo32Uc43pWI3cmVUOT2t+3BO5exMwF69h9MoAgjChRtREdB4ygd72CMa+XNGmPxvBSUAREQARSVEBCbYpyplZl13GZW5NxWX7jdp/uGPOQxUvKM+DNGM4PHkrJGKf9wNUjHbDyOkCwYSnsTKtTNNMLzgV44vPqE+bVN+Fja8F3Uce859KhtljtPsyrrOVoXqIKBQwecfzaDvxeZ8Om4Q62WpYgs6q8KtSatKDBPX/CillRLNNjjl714uQbA6r+vIf99UoTGXvusNVrEfvfRgaB81c2cCC0GE0r1aZwtDabmTvRu4gqOn/gxvEu1PTcy4vvK9OimDl5CeL0DU98X/1Ac/udrKtcmKgckOrtCW+oNv6fO+Y7ujD13R5H/Ic8g/YQOL1mCkyQj1yaY02NMUfJWqYJLeuYktPwA8FXvdnkcYHMNos4vK0bRaLO9IGrS1tQZ+BugnOVp6l9TYp885zzuzez/6aCciN2sG+KZbT5oAq1TWhle4xzrxpRzywbz87uZLPvbT6a9MPLdxa1o4Lzcw4vncWu/yJPGHZpC/O2XyfRUNv8FxqfOMFL6zqYGD7hhOe/HL/3iXLjD+E7vpIyiAWydZIbB19Gzp9zW1Zx6J4ZTfrXjTF/SrZxple1pD6Upq3Pey4vtOfnYft4lbcSzZpWJ7/BQ/y2/8uJ+9mxnrOfLQ6mn68XVYhs1gEbvzO8salDsW8ecnTrFk4/+ooqzkfZN6qs8npJSn8/cPOPdtTq48nLwjVoYVOR3AZBnN61mSOBP9Js+UHWdCzy+XpJ9fakwBSXKkRABEQgiQISapMIl7aHPcB9sTkDDd140rUtOQhh3epi/PJ6CjcdehHjeZy3O+g6vRtrDFuxyWEuzbIr4+i7c0xe0hDnR5WYP8yDPqqbaGHb6eLSnbWGbdnSfza230XGxU+he+i3oBPLw1ry7+iFNDFU9lgZIk8Y1mZ2r9X0zZsl4i8+PN/MLwv7seldOzyd5tIgKnWqpDT8uf/dHnq5dGL1d/046DCRapHVQ9hJHN2bMiO0HV4jZ2Otul2b2u2JOLkW/tEmRuiZRfToM4czVGDI4uX0rZDU4BV9tl3H1aIs42534d/ri2kU9e3kNX7uY1lx1ojmk5xokFd5TIgH3Yu0Zm2OTqw/5E6z/Mr5EHqWKTY1mXKqOm7X99I7ahIpQ623IdUn+rB9bEUiWq14jvfwWtguvIH1gut49jBWewk8W9eWAt23JRpqT+esj4v3RvqZZY2cb0E7GWDZjBUPm7MmcB0to9+4jyiRSj9/a+vzahvdirZh3Y9d2Xx4AbZ5lNdLkBcDLJuz4mlH/r69nCaqcVGGyNM5bZjpsxEHU+X1cm8TXS0683dIN7Y+WkSD6De/telvqBd9TJrzp/FwfPZNJerHgFfHGVe3Dq4PuuN5bT7Wqu+Mqd2etP1glLOJgAiIQAwBCbXpbULcnkKR5fP4qroHN22rxujdvYsuTL38GAuLmXRWZZLAqfy0zA3UlD+6vTxWx2BsT3+cVbdWlSHymMl8nv7Smh+izvCBHZt+wv5cKWYP3skAo9iwGobaO79jsnQ2OX8+yPF6pjEqueRdl/L7Q5jYx4/xBWOG7FRrj87Njyu4VDFnwqPebL/mRj1V6I+vnX4TKGblgsFwHwKmWsScDzum8NuOJ1TrM5fOZVV/pQq1dVl0awfd8kc7xH8aZas5c6+PB8Fz6ycr1Po1W8WT9e2IviDj6Lji1HH9hvFHLzG+QuzqUynUautzYiLFa00HNZ6R7YfRhwKYVEXZfmWI9LNfyeMN7WNeL/2MaLGiHK6XD9K/aBL7e8qZkpbTyDHlDMdGmMWo5PLM6lQY/wqnYxcZZ55G7dG560UaJAIikJEEJNSmt9G+NpYcf66gbL3DHPq5eOK9u+5IztXLKa2m/LX9DSntfY2Bv9xklknMEHnefB3PW9aNUf8Rz3LUPv4dU/oeYXSBJIZaZXtyFelGu/yfF0mE1/bqwT8suP08bduTuGAal3jPOZfa1JhwmuzmLWhvX5PypiaULFuBcsWNMIy9/NRnOLkaLaD09PMcHKwaxISarAq1ndgcsgzbqHUnQLAPMyZsJrBCN9x6VCJq6XS06jS9Uxu+pvbpHOsYDbk+14qyoy/S3+sprnWSGPK0HQ1tffYPx6jhAkqp8Yxs/yX67wzC9eeYIVJdf484FqPurB9wPnmGUWWS2F9le4wa9KNN+ZjXS4j/RhbuCkrb9mjrL+VFQAREIAUFJNSmIKZOVKVtqE2gfGSovcKAzreZXSKNQq2yPW8M1D8c9EmRJW3boxODGqsR7x9yeOUMZq3YgvfZe7xVWmUztWOE6yxG1TP+HDi1DW0kEGo1sEj3oTYBT7WhPNqDcbFDfIqEWmV7XsdzvSgU38b8kpDa7dFgjkgRERABEUgtAQm1qSX7perVNtTq6J3a6o3OsKNGnNu9cVWjdmNIpTvHX2ocNTqvgrDgu9y6cZVzBzcxa/of+H9qyDL/LXRSLS+RUJuwpLY+Onqnttr8G2zvqX6dcwwACbUaXVlSSAREQD8FJNTq57jF3+oE1tTePT+ZCRefULPWXLobK++EJrqm1gDHnmeZFGtNbaotP1Cuqf2+9j5OW5dOfHQydKiNzqPg6mwryo89Q9fNwbjbKp+kS2jN6DYnJm57guWgRXQrp7oznjZ3auNfU2sYcw1oVBe/wJpadT6Jrqk1YIzvdX5V7bOX2iFSuab2u0knODk6amF0/NdNarcn8StWSoiACIhAqglIqE012i9UcdgOurp0Y803LdnY143mUbsf+DNpcSOmPKnMgqHb6K3a/eCtF92md+WveHc/aM2WMfNRZSSSHCKVOzZct2b12DW0j7H5bTSrd970cenAim97s7+vM5ZZlWHr4x2W/tmQcXerMnfIKtqrlg+mdnuSMYyhZ9zp6TCb04oU3P3g5U5Gt3DhVKm+rJ7TmgJRC1vDOOJYlbqznjJoz11caindXnnQvWhr1mbvyDrfxTSP2v3gDM71azHtrAXzru2hl+rBuzRafnAuVwN+27eRvqaR22p83v2gBWvurKVlnL12X7G+XW66bmnCqod/0y7O7ghJHChtfUI86VGkFWvi2/3gWWc231qKrWqjiySHSA37G7qLvib2rMw7CO/907FUbUL9PpBlHaxwOmLB7DPraZdH6ZPa7UniMMhhIiACIpASAhJqU0JRp+qIuU+tvakFRTO/wP+6h3Kf2r/xsa0ebV/SD1z2bUOtXcp9ak2rRuyDe0y5T22Dhl5ssTSJu0+t1g+Kwc3DzSi38yg589ljb5xLWWdObH4eSaOokPKRm35dqOmxh+ffVaJF8YoUyPSKgNs78XgaRhWL9Xg1tiAq8yQ51GranqQP7qFR/8Nm3pOIClJun9ogtjvUpOWqexSs0ZKm1Qrx/VdhPL12gH88zhFSfgw+Pr9SOepLQ8x9WO3C96k1fMG5XX9H7lM7cgf7JqvZp9ZbzYNi6igCtjJ59SneK/9OtU+tie1AmpVSbc1QFLvR3agcHvSUoSqwfQ9qHDxCmE1din3zONo+tb74jq8Y84UBqjy2uCHmg/fzY7W22Fc2Us6fXFgPc6SRBr+8qx9JbX0+cGWRHbWHKveptbOgAA84rtyntr7bfv7trWafWjUPxiW8phZuadTfj9xa3Y5avT14UciCFo0rky9zCAEHtrH9whsqjfZgxyTLz9dLkkOtpu2Jpnx6MqVqTOUmBRm05yIutVT7Aib9mpIjRUAERCAhAQm16XJ+hBFwcTEzj0a+USw4Uz5KGlXGLoE3il0Jf6PY0X/Z8yiQYLJTPF8d2ka8USzWG5KSESL5+B879zoz1f8QZ189452BAZ8UP6nZLeHzG8V2PrjFs69yU9yoOs2r9sGhfBl+jP4MWZq0J2mT5NXxmbTvNoMTKf1GsTe38Fo0k/nrffAPuE3Q++8pWKwE5et2Ytjwblgax3jnGvCGGzsWRL5RzO8azwyNKVG6OnbhbxRrFs8bxTQNtYk8qBQup1DYsPS/rXTO/TnUBvTfybnWV5jwqzvbT97hfZ7yNOrqiHOMN4rFcn93h50u45i21odzN4MiHpBTKErGs3uANmOmjU94vaFc3eLGTPeN7Dl9k2f8yE+V6tO270gG2ZWI541icXd7SCzUonF/P79RbOeJAJ5lzkuxMjVp3mMAfVqUi3m9JCPUat6eSPsAt9qUHe2Hwnwy/kdGYJrwi+G0GTApKwIiIAJqBSTUysQQARFIOwFlqLrksJ2gOfVS+Lwx324Wb+WFGjCslyUptYIhhTuRTqp7wir7QjjsMqTp8mts6qh6G0g66Z50QwREQCcFJNTq5LBIo0QgnQokcKcw+T2OfJhs6HKousEAACAASURBVKGEbwkqas3mxm4HkrxiIfkNTf81hG6hS4F2bMjeE8/L87FOiZfppX816aEIiEAyBSTUJhNQDhcBEdBCIFVDrRbtkKKpKvB+3zAKN15IPqdjnBxnrvZFHanaAKlcBEQgQwpIqM2Qwy6d1luBwEDo1g1WroTChUHf/r/vZKysp3Kx43KeLu+of+3XN++0bq/ywjr5a2lqzizEgqs76SG3xPX240YaLgL6JiChVt9GTNqbcQUOHIBJk2DiRPlfcdC9ebBvX8a9NqXnIiACOiEgoVYnhkEaIQIaCNStq793aNP6jqGcL+3v6If/ciB/REAEROALCkio/YL4cmoREAEREAEREAEREIGUEZBQmzKOUosIiIAIiIAIiIAIiMAXFJBQ+wXx5dQiIAIiIAIiIAIiIAIpIyChNmUcpRYREAEREAEREAEREIEvKCCh9gviy6lFQAREQAREQAREQARSRkBCbco4Si0iIAIiIAIiIAIiIAJfUEBC7RfEl1OLgAiIgAiIgAiIgAikjICE2pRxlFpEQAREQAREQAREQAS+oICE2i+IL6cWAREQAREQAREQARFIGQEJtSnjKLWIgAiIgAiIgAiIgAh8QQEJtV8QX06tKwIKXlzdx07fi9y69wKzDk7YF9eVtkk7REAEREAEREAENBGQUKuJkpRJxwIhnHBtS+uJ3jz6aIBC8S39vZ7iWicdd1m6JgIiIAIiIALpUEBCbTocVOmSFgJ3l1K/xEAOl3Jg3RonGpjkIstXWhwvRUVABERABERABHRCwODChQsKdS0pXbq0TjRQm0Y8ePCA/Pnza3OInpTdS2+njqzM2psDjpOpwXFGTrNjzpu2eEx2o6HO90KH239wJHlt5vE/55OcGFVG5yWlgSIgAiIgAiIgAuoF1N6pvXjxIhJqdWnKeNPHqQMrsvbhoKMzFvgxalpTZr9ph+fkuTTQpaaqbYsOt99vAsWsXPhhwnHOOJbXeUlpoAiIgAiIgAiIgIRaPZ4DvgxxbsmCLIM5PsqRivgz0cWGaWFd2TthOrV1vmc63P4rrlQxH8ejQXu441JL5yWlgSIgAiIgAiIgAhJq9XgOnMHJpSG/ZxnHxUGDKEEAM90sGRs2kKOjxlM5Ts9eE3B5NW7H/sHn0Q3uf8qFiVFl7KoPYUDZEvxgEO2AoMXUmjuB8+bruFE5EKddS/F8eJ+3WUthW3E4zj/Xo2CmZJSPOFTb9kee79VxVzp0c8FPUYWRq9Yxotr3KT+G95ZhU2wAvl03E+JuiyynTXliqVEEREAEREAE0kJAlh+khXKyz3Edl7k1GZflN2736Y4xD1m8pDwD3ozh/OChlIxR/zsuHe6E9c4DhH5fnWbFy5HHIJjzAZ54v1RQtfY29lmbY6g6RhVqS7TB9v4pXhW1wiTTU05c387RUAXmNXdwuEEFvklq+YjjtGn/5874ji5MfbfHEf8hz6A9BE6vmWzJOBXcW0r9YgPx67mF5/MbEj3vp/zJpEYREAEREAEREIHUEpBQm1qyKVrvA9wXmzPQ0I0nXduSgxDWrS7GL6+ncNOhF4Win+vDEca4ObDx205s7D6Kyqo0+u404xc2YvozezY5LqGZKtUqQ+0JQytce/5J/3xZImr7FLqXfgs6sjy0MevGrKRVVuVJtC0fcZgW7Y/Wl9Azi+jRZw5nqMCQxcvpWyFbCqp+4u3LB5xx70XDCcdp9Mdl1rXNk4L1S1UiIAIiIAIiIAJpKSChNi21v/C5Dm4tSb2T+fh9wH6G540ZUo+ZLCD4l1ZE/4H/6PbyWB37hgl9TuBUMInlv3Cf45zeZzi5Gi3gtUHkPVlFtjJ0njKf6X2qkVNu0+raaEl7REAEREAEREBjgagtvaLvdiC7H2jsp5sFFS+5fG03hx7c5v7rMD4qW3nv1gr+fJiPKX2PMLpAzJAavqb2ecu6MfpzbX9DSntfYUDn28wukcTyuiYUsJXJq0/xnk+EvfwPv22buZC7N+u2zaK+KujrWpulPSIgAiIgAiIgAokKyJ3aRIn0rMCHyyxY1YphgUGgvBsZvQefFD9l7FAbazg/nPyVcjV/5+vxR/EfX0HPBluaKwIiIAIiIAIioBKQUJvO5sJ/R1thsuMI5SouZrVNfUpkyxL1RP8Rz3LUPv6dhNroY/5wFbZFHPD+ZROhS5oSfaOHdDY1pDsiIAIiIAIikK4F4oTa0NBQbt++jZmZGV99pV8bHKXfN4ppOgcV7N5cFNuzpXAbuoO+OaMf95G9m0vQ6GxetaE2/jW1hkzs48d4jdfUxiqvadO/VLlbC7AyG85FB0+ezrH+Uq2Q84qACIiACIiACCRTIEaoDQ+0d+/excjIiFy5ciWz6rQ/XEItnNpVjeq+z2nb4hB/VsgTtUXVm8d/0WPVODa9MlYbas8a/sz0XqvplzdyW4TPux/Ysn7MClrG2v1A4/LJmAahZ9zp6TCb04rU2P1A2TD/aZSt5syH0Ye4PKlKMlorh4qACIiACIiACHxJgahQqwq0BQsWJFu2lNw6Ke26J6EW3j9ejq27Iz4fclKleEMsfszKm+dn2Rn4HQ2KBbLsUia1ofaWWXss75zg7U9WFMsUFG2fWi8ONzCPs0+txuWTMfyHRv0Pm3lPImpItX1qfUdTwHou/5tyhmMjzJLRWjlUBERABERABETgSwpEhNr0EGjDESXURtxjJfje38zwXsWO+1f570N2TIxt6FV3JOaXG2NxWH2ovVbpby6Wv8r43cvxfHSf91lK07jScCbH80YxjcsnY3a/Oj6T9t1mcCI13yh2chKmNX8jtNtmriyy5btktFcOFQEREAEREAER+HICBiEhIYrwJQf6fIdWxSehNgkTSfkyhYsV1hPcok7iFWhbPvEav2yJd2eZUrMWU85lpZRta6zN8mHZ1Qn74l+2WXJ2ERABERABERAB7QQMrly5okgPgVbu1Go38FGlVa/JVbNPrdoatS2fxGal5WEfHvmx2nUmq3af5ErASzp7BOGqQb5PyzbKuURABERABERABBIWiLhTq69raGN3Te7UJmG6axtStS2fhCbJISIgAiIgAiIgAiKgrYDafWq1rURXykuoTcJIaBtStS2fhCbJISIgAiIgAiIgAiKgrYCEWm3FpLwIiIAIiIAIiIAIiIDOCUio1bkhkQaJgAiIgAiIgAiIgAhoKyChVlsxKS8CIiACIiACIiACIqBzAhJqdW5IpEEiIAIiIAIiIAIiIALaCkio1VZMyouACIiACIiACIiACOicgIRaHRoS2b1BhwZDmiICIiACIiACIqBXAhJqdWi4JNTq0GBIU0RABERABERABPRKQEKtDg2XhFodGgxpigiIgAiIgAiIgF4JSKjVoeGSUKtDgyFNEQEREAEREAER0CsBCbU6NFwSanVoMKQpIiACIiACIiACeiUgoVaHhktCrQ4NhjRFBERABERABERArwQk1OrQcEmo1aHBkKaIgAiIgAiIgAjolYCEWh0aLgm1OjQY0hQREAEREAEREAG9EpBQq0PDJaFWhwZDmiICIiACIiACIqBXAhJqdWi4JNTq0GBIU0RABERABERABPRKQEKtDg1X+g21e+nt1JGVWXtzwHEyNTjOyGl2zHnTFo/JbjTUoTGI05SQddhNH4JXySWEdLTHUJfbGm/b9Ng/tb2f/Il9oV7sareWF6ta6On4pjaS1C8CIiAC+iEgoVaHxin9hlpv+jh1YEXWPhx0dMYCP0ZNa8rsN+3wnDyXBjo0Bukz1Oqxf2rPDQm1qS0s9YuACIhAmglIqE0z6sRPlH5DrS9DnFuyIMtgjo9ypCL+THSxYVpYV/ZOmE7txGm+XIl0cadWj/1Te+Ql1Ka2sNQvAiIgAmkmIKE2zagTP1H6DbVncHJpyO9ZxnFx0CBKEMBMN0vGhg3k6KjxVI5OE7SYWnMncN58HTcqB+K0aymeD+/zNmspbCsOx/nnehTMFNvyNQGXV+N27B98Ht3g/qdcmBhVxq76EAaULcEPBrHLh3Hj0hJmHvmX3Q9u8ixTPkyNKtG0+mD6lzUle/TyCYTaxxcGUX3DBj6YLuJ4xxbkjzpOy/YonnDYdxqT/HbiFwrGeazp12Aipqcr0+hsaeYN3Y5Dzuh9eMvtK8uYcfhvdj24RRA/UrKANR0th9DH1Jhv4kw1LfyjHfvquCsdurngp6jCyFXrGFHt+8QncWIlbi3Aymw4Fx08udbxFhMnLsTz5B3e5S5H4y6OTBpaH+OvY1cSyo1dK5m3eAM+/td48N6IYqWrY+cwiv52pmrG9w03vRbiumgju09c59nXxpQoU5WmvUfQz94s5vgmEGofb3egRstVfGj9F0dXt4o2vlq259NjDi9yZvLSbZy4C8YVGuHgPIUSG0rSxL08c67tw+F/Mcc3cPciZi5Yx+6TAQRhRImqjeg4YAS96xVUM76JoUf7+yh/Dy61uojjhOXsuhhM9mKVqN9lHON6ViN3nOtL0/5+YGvP72jrO5INrq9x7b+W+ya9WL7egZBpnRi4LpB8jR1Z5taDUt+mUX+1oJGiIiAC+i8goVaHxjD9htrruMytybgsv3G7T3eMecjiJeUZ8GYM5wcPpaS6UFuiDbb3T/GqqBUmmZ5y4vp2joYqMK+5g8MNKkT7h/0dlw53wnrnAUK/r06z4uXIYxDM+QBPvF8qqFp7G/uszaOtlfzA1SMdsPI6QLBhKexMq1M00wvOBXji8+oT5tU34WNrwXeqNsUTahXPN9NmQT+2fN0Oz/5zaZBNdYC27VFw3dee/7N3HlBRHV0c/5GYWFLUWCP6aYK9YhexImJFFDT22KJi72JX7GIvKMYajSWWRAUBGxK7iA0LilhQiYqgGEWNCnxnYSkLC+xSdBcu5+TkJDsz787vznv73/vu3Kl64Cz/5axIu9K1KRJ+G487uahmeJQttxKK2g/cPtuDei6HefFNDayNjClEMBduu3Di5be0s3JnW43iqOoSLfjH88UJu+I0XRYU9X8KDj1EwLx6ab9bYkRVu59pee4c/5o3plT2p5xz+YuzgRFUnnScE5Oqq/jXd3V7mg47yOsfGmDVzJgCCv8e/JOjtyOoae/BYbtqqv5dY03jIQd5lq8Kllb1KPFlKFcO7sbzTiSVR7viMdM0zr9JiNrIwD/oVLsHe7/uxd6Tq2iWL86/2tkTif8qC6qPOM5/BavStk1dirz3x+NQLqrVPMjWvQlF7Qfu/NaJ+v1d+Ld4XawtqlHAIJgLB3ZzKiAvbdcdY0vXEgn8q4VbYvi37YKF10XeWDTG6MvHnN67hwtPPqPm9NN4jK1E3O+Kd2g+X6Wo9ahNG7OKFIu4wvatXhRv3YVi3+bluwd72XD8MRarbrKvl6HS6AyerxZopKkQEAL6T0BErQ75MPOK2kc4rTZmSPZlPO3ZkTy8YtsmI35+PZM7tn0ppkbUnsvegIW/bGZQ4RxRn0aEHWagY1fWhbVk27gNtM8Z8514inHLbNmRqxs7eo+lRkyY8t0FJq1swbznVuyc8CttY3Z4/edKz3m92JK9PTttl9I2d7bogd75MOPX5kx/Up0VI53pn1c5vjpRG3EXp3XmDHlQkJE/H2ReyXgRzA9a2hN+jKFzOrAqsjkbhqylW55oOfH6H0farpvF0XdVVSO17w7R16Ebm74eyDHbqdSOxgNvvZngZMn8sE64jVmMuUq4Vgv+8XwRdnEVffov4SJVGb56HQOqxir31N81SlF14bumOBzZwcBy0Y6MCHZnsGlb1j9ux5aAbdjkUV7i3QnG1+7Bzvy9+WPPRKrHmBDmzeRG9Zjv15Htgb/RNuZXyCtnepfowNY83dh+3Im23yv9G3aJmRb1mHm+DstuHaZfzKJTJ2o/3MGprQnDPb5n+IFjzK3/bdx8tbXn/VGGl2iBU4QV67x/p6syDP366hKsm0zC80Ut1UhtmBv9S7Vjs+EojnrMIjY4/vIsE80as/BRb1z8VmCuEunUwh2x/C1YcHQHtmWiF9CHwJ30NOnOrle92PtkFc1iVK1W81WK2t/b8nvQdtp/+5BV5iUZwWL8Dw+gaOgfdCjcA4/+zgQvbUrUi42Mnq8WaKSpEBAC+k9ARK0O+TDzilotICvTD86UcuTZz+2J/8L79P4qNDjzJVP6n2Ny0ZTHPLa3LE28CzN3sCejCinb35tJiXXL+ayOM3da1VIZJPCaA7N8gzAxWUD3mEBSIlH7Dp8jbTH1vEzFes54NKtGjL5OySK19oSsoeGSSVyovJnQDhbxInChbN5Qht53aqiK2vtzKbVmMd81OsbZJmVULnn9iBlVPF8xtb8XkzTgk5K9GfK5UlR5td3I0+2dVP07sSSNF37JpNPXmVQ15asfG1MUi+VFmH3Zi5ExKLymYNTAAYNRR/GfZaLqX9eZzHF9Su3+S+leSflRIlH7Dp8FzWgwyZvyk45yZFINzf2rzp57q2hUdgSXev9JyMqW8fz7nM0239N3f11VUXt+OmVNZ5Nn5kXOjC6nYr/vgjpUnfSSyWeuMdE4ZT5qW8Twt9pA0B+diZPrH3AdmB/r9ZVZ6HuMQT+kPH5i/kpR+8cvuLxcgTlh7Oyaj+5sJmRLB77iMIO/ac3ajn/waq0VUT83Mnq+KU9DWggBIZCJCIio1SFniqgF4uXUhtqYqXjHz7M5FY7cYHD3eywuHe+jyH/x9TvI8Uf3+Of1W8KVHwXeXc/mx4WZOeAUdkWU/9NvPHk2r6dSk5Mcb1QyZe/HiNq8zRlTthSfh/uz75wb94pM4UzfQZRLlH8IaGPPg3mU+XURn5u6c725qpI7tLs4LS9VVBW1tybw3aZ15CvRi07fxyZJRM3j5aM/cbwXypCf77CoVMpT+yQt4uXUhiwxVzHh1tIGVLK7xiC3EBY2jvdRxAtueLhx/Opd/nn2Jta//3iu5HevYkz3vsjYisr2R0eRr4UjFeZd4dgwDSDEiNpyVoyyLMPn7/xwXrGHgDpzOeU6nLKJE5RBG3suzKBc3Vlkm3CSK1Oqq8z30LDvsFxtrCpqPUeRv7kj+ZsN5Kcqqv59dXkHKw8EM8g9mIWNUum9ZPifmmCE2aJvVXkqLqPxfFMhajN6vqnEJN2EgBDQTwIianXIbyJqUyFqP/jiuLE9IwOCwSDRjjAiIn9MF1F7IMHYP1bfhbdVPRK9kNfWHmXk9Qs1ovbw7hKJN4opRfkbNXON0h+RORKLfh1a42grat9dY2X7Vow++JhINXOOjCybLqL2YEL/DnLHa0HDxP7V1h5lJPILNaL28PB8iTeKKUX56yT8GxmZK7Ho18a/2opareabClGb0fPVho20FQJCQO8JiKjVIReKqNVe1D443Z5SrqeoXG01myyaUvqrHHym9Okpl8o0PPt1uoja2MMXwv1Y+KsZ4x4VZ3zvw0wvoZp8oLU9gQup5ORAWKJ0iHD27/gfba8Yq43U1mlxEde6MeFnHVrEKZmipah9uK41ZQd5UmHAZjZNakGpfPH8qy6ymNpIbczhC+9vssiiFhPO/oid50nsa6kmr2ptj89cqtSaRliidIhw9tvmwWZjTbWR2torbrP/l5gcmJSgavG5lqJWu/mmQtQqI7UZNl8t0EhTISAE9J+AiFod8qGI2jhRm3RObfZ4OaORHNz9A60ulWfZCFcGqJS9Cufw7tK0uFRIVdQmk1P78MoMplx7Sr36S+ltqIz6qtko9i5wMQ1Xz+VivpGcHmhH1dit4qmwJ+wP2s4dyv7/OfCwbw9iUn+J9GX20kZMDVGfU/tNQw8umFfQodWroSkp5tRmj5czGsnBoflp82tlltw8im3x+NcI5/DwIrR2KqIaqU0up3bfZKbue4rp0FX0qqz0r5qNYu+uONDIZAo+FSZy4thkjGOPkUuFPSFbaGfYBzdzRwJc+sT5N+Iac2pXx/6K+pzar+3P4W0Xk/irIVtNmmklarWdbypErTKSnWHz1YSJtBECQiDTEBBRq0OuFFEbJ2ovZW/EvL6bGFgoWlHEVT9oxfZx67FRBkjPH6hNnROhdLQ+zuaqBaN3VANvgn6nz8aJ7HxpqCpq37rS06EXW760YceAZbSLrX5wGfvVLZj5tAaOI/bRL7nqB/yH94HmmJ64SY1GBznapGJsCSqt7eEBTqtNGPIwH1bmK5lfsxoFIx7geWwWU6/+zeWXCUp6vTtCf4curM/VD88B0zHNqZxx+H3WbG7OxIe1WDp8I51V0zFTtcrDLjrxi+1iLkSmf/UDn3zNmOOxgwFllP6NrX5gzZb7W7HJHW3yhRmVqTsrhI6/n2dj+8Jx/r31G30tR7DrXnFVUfvSmd4/dGBr7q5sO7GadrHVDy4yvWl9Zl8yYbnfIfrGbKRTW9LrP87PaED9WdeoPv0UR8ZWjvWv1vZwH6fmlRjuWYA289fj0L0GBd4/wHP5FKbtOsyVOwlKeoUdYEApKzYUGsoRz3mYxhRNfh/A2i4NmHzKhMUXt9OpYKpcSnLpH+pyarWbbypEbUbPN5WYpJsQEAL6SUBErQ75TURtnKi9W64zpvfP8d+PDTD6PDhenVo3TjYzjhUZ74PW0cppAkc/fEfNks0xyZuTN6GXcA/4mmZGAay9/rmqqEW1Tq1VGRN+yPaCy7eclXVqd3G0VZ0U69TyzpsJKyyZ/6Iq8wfsZXjh6HCt9vbA28BVtFo/jRPv43KCcxedwcS8Mxntk2CjGOHc8epBPedDhH5dHeuS1Sjy+Uv877njHPKWmibbcWtpglITpml1Hx/7PyyWP40aI73r1AZ07kPdY6d4a2GG0ZdB8erUnuDEpGpx/r3lhKXJcDzfFqR66zaYFM/O24cXcPf8hmbN77JuS7YEG5s+cDNendo2ijq12V/gc2BXdJ3aMa54zEi5Ti2vzzHRtCEL79Ri3plDDCun9K/W9sBbn2W0bjaWk6Fx/s3TeBHjS0xk7PoEG8UI5+6mTtTv58yLYiZYt6xB4Wyv8P97H/uvvqG6nTOu9qap969WkVp4r9V8UyFqM3q+aboDpLMQEAL6RkBErQ55TERtnKj1q76La1VuMungOlye/MP7HBVoWX0UMxKdKBbBs8BdzD+yEdd/bvLgQ25KGVrQ12wMxr4tMTmZUNQqHP4W/2urWXA6+kSxZ58XpmzUCWTanSj26vYUam1cTaChPd79bCkVlcybGnvg3YsLOF89jm8Y5C9gQpuKtbiyryitL1VJ9kQx90d3ef5ZAUrmr0O7Wv2xrVKRvIn3y6Vqlb88u4DOveZzLgNOFPMf5I5PhxtMmebEfu/7vC9YhRY9JzA90YliETy7vJ0Fc37F7ZwvD97mpWTtlvQdPwFjt8aYzk4oaqPi9Nx2dYw+UczLj+fZDSmtOIFMcaJYW81PFHt1Yhwm5ksIrL8AL/fBlIyqdJEae+DdI29cnD3xDYZ8pU1pY2nCldG5sVpTPdkTxdzP+fM8WyGMKtajXZ/B9LeunDb/ailqtZtvakStgul/xJyglu7zTdXKl05CQAjoKwERtTrkORG1caL2WtXtPLOOX9dJhxz1kUxx32WI5eVqqodBfKRrZ9hllKLquu1+gpc0ybDL6MPA7oO/oe3a2izzP0y/VNUVDuXkmkUceJDCbIs1Y2RfU2LOs9AHNmKjEBACQiA1BETUpoZaBvURUZt89YMMwq6jwz5ghVMNRjz6iX1TltNCXT1cHbU8WbOSiRTq43RSb/N9HJuUZpR3D/56upoW6urhpjh4IE4WRow4nnxoPrL+Ym4ftCUDaimkaKE0EAJCQAh8TAIiaj8m7RSuJaI2q4ral5w+vRTX58oFEvmOkCeH2HL3DkWq7cCrXUOVk7d0aMlqb0qWFLX/cnrdAtwC4vz77Io7W91v8P1AV84sMss8/tV+RUgPISAEhEC6ERBRm24o0z6QiNqsKmqDWLOmEoMfREfcIsjB97nLU7/iIOwbt6JkqqJ4aV+PGTLCiRk0MJ/Fta7rCFnXFQICoFcv2LABihfPnP/dswtrDc4z5HS0fyMjDShsVJn6nScwrX1ljAb2ztzzT0//ZsiilEGFgBDILARE1OqQJ0XU6pAzxJT0J/D332BvD1Onyr+Fg/brwMMj/dekjCgEhECmIiCiVofcKaJWh5whpqQ/ATMziUhm5oh0ekZk1UXwFZF8+RMCQkAIJENARK0OLQ8RtTrkDDFFCAgBISAEhIAQ0CsCImp1yF0ianXIGWKKEBACQkAICAEhoFcERNTqkLtE1OqQM8QUISAEhIAQEAJCQK8IiKjVK3eJsUJACAgBISAEhIAQEALqCIiolXUhBISAEBACQkAICAEhoPcERNTqvQtlAkJACAgBISAEhIAQEAIiamUNCAEhIASEgBAQAkJACOg9ARG1eu9CmYAQEAJCQAgIASEgBISAiFpZA0JACAgBISAEhIAQEAJ6T0BErd67UCYgBISAEBACQkAICAEhIKJW19eA/15mbPUlt2EJytdrjlmZPHym6zaLfUJACAgBISAEhIAQ+MgEDIKDgyPz5cv3kS+bMZfLlIcXHB1FvhaOvDYwINKgII2n/cGOsXX4JmMQyqhCQAgIASEgBISAENBLAgb+/v6RuXLlonDhwhgYGOjlJGKMzpSiVjG5iLeE3DrAjK6dcbpamyU3jmJbQq9dJcYLASEgBISAEBACQiBdCRiEh4dHPnjwIGrQYsWK8dln+vtyO9OKWqXLrzrUpMaU+ww5+IT5DdJ1HchgQkAICAEhIASEgBDQawJRObWRkZE8fvyY169f87///Y8vvvhCLyeV2UXtpVnG1JnxCrvj/tjX1EsXidFCQAgIASEgBISAEMgQAiobxUJCQlD8o4jY5syZM0MumJGDZnZRe2xMUSyWF2H2ZS9GlslIkjK2EBACQkAICAEhIAT0i0Ci6gcvX75EIQ5Lliypd6kImVvURrDf9mtsNjbA8bY7fQz1a6GJHomJrQAAIABJREFUtUJACAgBISAEhIAQyEgCakt6Xbt2jQoVKmTkdTNk7MwtaiNxHZgH6/W1WXH7IL+IqM2QNSSDCgEhIASEgBAQAvpJQEStHvkt6I/OlOvhRu3p7qyxrcr332aXmrV65D8xVQgIASEgBISAEMg4AiJqM45t+o8c+Yyzq+0YPGkzV8Oiy69FRuZikFsICxun/+VkRCEgBISAEBACQkAI6AsBg6tXr0YqjI2fbiDpBzrqvkfuDLfqytqgirSzqk3x3Dn4jC+o/vNkrErqqM1ilhAQAkJACAgBISAEPgIBidR+BMjpdYnz0ythOjuccSd8mFYjW3oNK+MIASEgBISAEBACQkDvCYio1RsXhrOv71f8tNmc1QEu9CikN4aLoUJACAgBISAEhIAQyHACImozHHH6XeDQsHxYrq7IIt+/GfhD+o0rIwkBISAEhIAQEAJCQN8JiKjVIw96TSlLA4cvmerlw/jKemS4mCoEhIAQEAJCQAgIgQwmIKI2gwGn5/C+C+pQddIDhh8JZK6pBiNfmEH5urO4Q1GGHrqGQ/3sGnSSJkJACAgBISAEhIAQ0D8CImr1xmev2G9bFpuNObA77o99zZQN91/WkEp2XkQaz+DyqdGUia4CJn9CQAgIASEgBISAEMh0BGJLeiWcmZwopiO+9t/LjI0neex7mJ37r/O6nB2eZ+ypkWLQ9SkbrYpheyA7luv82NlVdpbpiEfFDCEgBISAEBACQiADCKiN1GbAdT7KkJnymNyjo8hv+RvfGpWjetMejBrdgzqFv0iZZ9geehTpxB+5f8HFdwXmX6XcRVoIASEgBISAEBACQkBfCYio1VfPpWD3e4+RFG+5ksKTz+A90ViO082kfpZpCQEhIASEgBAQAtEERNRm0pXgPa0C9RYUw/GmO30MM+kkZVpCQAgIASEgBISAEFASEFErS0EICAEhIASEgBAQAkJA7wmIqNV7F8oEhIAQEAJCQAgIASEgBETUyhoQAkJACAgBISAEhIAQ0HsCImr13oUyASEgBISAEBACQkAICAERtbIGhIAQEAJCQAgIASEgBPSegIhavXehTEAICAEhIASEgBAQAkJARK2sASEgBISAEBACQkAICAG9JyCiVu9dKBMQAkJACAgBISAEhIAQEFEra0AICAEhIASEgBAQAkJA7wmIqNV7F8oEhIAQEAJCQAgIASEgBETUyhoQAkJACAgBISAEhIAQ0HsCImr13oUyASEgBISAEBACQkAICAERtbIGhIAQEAIJCbx7wnnX3ex4XIUZtqZ8KYSEgBD4BATecdJpMpcL/4R1y+oUlhvxE/hAvy4pola//CXWCoE4As9OMG/ITI4amDF5+VhM8wqc9CAQeuk3Jg4Yx/pLoXzedTvP1lqJqE0PsDo4hvvO5uwpMJpRjcwplWb7DmPr6ELbDktoXjCtg91myc4DtOowMB3sirPlludwFtI6neYL6ctPHbN37P3lOzptCSePcS/mrJpNT+M8aYUr/TMxARG1mdi5MrXMTSBsdw/yd9sRNcmOW4LZaP1V5p7wR5hd6Nk5tLO053TOBoxZMJdBltUonOMjXFgu8UkIuO8sxCy2cLyDeZqvf8uzORU9LlHL7CTHGxmlbbygldRfbg+Vt7C+g3aCO0a4ti0EPHHB8gg4z1hCc4VFvsOp/2RI2u1Tzk7BzzJoKtcHpa/4VoH39jEXnB2xGz2f42/qMs3lT8bVEmGbtgWWeXuLqNUL3x6m3+SubMjZj78nzKAuZxkzuw1L3nTEecay6IdVpvrLavNNpfMCdtLTaigHaMEK5/XYFEvlOGq7BeJkYcTwYz3Z89ZJD9dYKuwPdaN/tXb8FmHJmiNb6G6U1LvOrLY+dW2+6WdPlKgtcCqByLuNe5CRltHWw9hO7sq1JluweeqX5ghrlFhkC++TENu3gqBUEtFghbjujWP0nHyH88XV1nHjJBK10dHlsmatKQvcuLqA3QWUfTV4nCiuVf7p6CTtVD9E6vz37vYmupj1wyVbb/adX4mF6FoNPJT1moio1QufH6H/5C6sz9mfYxOmY4IXY2dbsvhNJ1xmLKWZXsxBGyOz2ny1YfOx2qZCFH4s0zS6jrb2R3B+ejVMZz+h45bL/GaT3PvjrLY+dW2+qbAn6DbuIXcTrZwbHl3ZXXAqEyuWVn7mx56t9qyjKvOHuDNcozSC2yxxrMuYgkoRGrQS279LM0rLCGusccoobYUmW4iKtib8e+KClcf2JCPCWovayS60VUZyFekENxpqOm9IVtQGHcYdczU/DlLhPyWDoJ1dqdh9N0WnnOX8hCoYaPQskEZZiYCIWr3w9gmGT7fBMccwzo6dQDUuM9XBgtlve3J4yjwa6sUctDEyq81XGzYfq622ovBj2aXpdbS0P8KbSRXqsSBiJMd8Z1Prs+Suk9XWp67NN/3sUR+p1XSNRbdTG1VVREQ9SjOxw0AtI77RAnl3hYTR4zibUnrlr07UXm8It0MU6QgLmPW0DRPZh6VPWZxntGZPcqI2iR8DMdYoIrtjgtrgbBbzoyDmk+R+HKTBf+GnsSvdmKU57Dh11Z5qomq1W6xZoLWIWr1w8kUmOzRnbo6JXBs6lNL4s2CZKePfDuH02EnUiD+H4NXUXzqFK8ZbuWl8g3EHN3EgOJTcearQtNpYJpvUoECiL+zX+PtuYtmZPzn65Db/ROSjVP4atKkznMGVSvNt7IPjA3u3G9L+/mB2tXzNAuedBObtyYbuv/DqUB8GXn1AkZKjWGvdgwoqb27/496Ntcw/uYsDj+4STF7KFjGnq+lw+pcxVLMJR4v5xpv7y7ML6dLLAa/ImozZuI3Rtb9JH++GP+HU+vks3HSEy37+PAzLiWHJ8phY2TJuZCcq5k54mTfccVvJwlU7OHjuFs+/MKR0xVpY9hvNQKty5FZ5ED9mbasSDD72C863O3J57GTWHbxCULaiVG/5M+MmD8XM8It4F4gWayOOqz7N26z/hz86q9kpdteRBuVGcc3WBb+ud5k6dSUu3vd5V6AyLXtMwH5EU+KGP8+UsqbMD0j+myLJa2lKOyKIk6umM2PNPs49BMOqLbCdPpPSf5SltVMVlvh5YPu/+IP9R8DBVSxw3MZBb3+CyU/pWi3oOng0/ZoUjbd+0mD/vVU0KjuCq3338nh5M7IlOxct1mcWvh81XQ7at9OCfwqDp1XUKiKbsxitNu/1lu9wem+9QYUmmm9ES+l1ftTnRxRiVJkjq2Z+UaJWIVwV0ecnC7CMnx6gLv0glZHamBziiEpTcC5QmuaNNM1LTov/3uM26HvaravEkptHsS2u/eqRHpmbgIhavfDvLRyW1mNijjnc698bQx6z+tcqDH4zjivDRkTlQsX+xXyJlrKmWeBl3ho1wOjzIE7fdMP7jQG1Gh3Cs0kF4mTSO66f7Ia5+9+EfVOHtiUrU9DgGVf8XTjybyS1Gu7Dw9yY7FEXUIrau9Ww+qEMxSJusN33IiWMrCn6ZR6++9eV9YFPad7KG+c6RZQmfeD22R7UcznMi29qYG1kTCGCuXDbhRMvv6WdlTvbahTncxU/aDHfeP1O2BWn6bKgqP9TcOghAubVSwfvhnN9iTl1x50mZ8XW2DQuw3fZP/Ds5hF2Ol8lm8UqTu7rRYnYK33g5hprGg85yLN8VbC0qkeJL0O5cnA3nnciqTzaFY+Zpnwd2z5G1Lamfasz+LxsQZNyX/H8kju7T9wjvNRA3E4somGscA7l5JpFHHgQPcDb63tYvv8WKYradj/T8tw5/jVvTKnsTznn8hdnAyOoPOk4JyZVVwrDAPbaL+PYv4qRw/DZs5HjgeVoPciM+N8dZX+aTt/aqd2UFon/KguqjzjOfwWr0rZNXYq898fjUC6q1TzI1r0JRe0H7vzWifr9Xfi3eF2sLapRwCCYCwd2cyogL23XHWNL1xLK9ZMG+72mYNTAgW+nenFxfOUU1o0W6zML34/pcPMlMYQW/NMian0P417OPIl8ckV1gkHsRikeE17n6gIsfaBPl9GUvboAuyuXiCjUifkVWtOq/A+UKqhmI1lMdNfMj1keYGM2hOHl4topBHR0dDVpQasw4+OkHyhziAtX5UzB0byv6MeSfAM1TNdIm/985lSllv1L7I77Y18z41aZjKyfBETU6oXfHuG02pgh2ZfxtGdH8vCKbZuM+Pn1TO7Y9kVlf5DyS/Rc9oYs7ruJAYWit25/CN3NzysHsvNdJ1wmL6VZjIr8cIpxy2zZkasbO3qPpUZMhPXdBSatbMG851bsnPArbaNUrVLUXmvB1okb6ZAjkJVO1RiG0o43u7GZPZAjxlt5btMkOt/p3SH6OnRj09cDOWY7ldoxO8nfejPByZL5YZ1wG7MYc5XIrhbzjee/sIur6NN/CRepyvDV6xhQNbXCK/6iuMVCk0pMvNeDv26tpkWsGn2Nl9N41l/KTzv7yTSLyX175UzvEh3Ymqcb24870fZ7Zcwv7BIzLeox83wdlt06TL9YpylF7ZHs1Jl6lP3jqxFldWQoR0bVp9XK25g73sKlj6Halfp8W0eK9N6Xoqi98F1THI7sYGC5nFHjRAS7M9i0Lesft2NLwDZsEm260PL1vab30fujDC/RAqcIK9Z5/05XZZj49dUlWDeZhOeLWqqR2jA3+pdqx2bDURz1mEVs8P3lWSaaNWbho964+K3APFdCA7S0/+go8rVwpMK8KxwbllJxJy3WZxa+HzVdEtq304J/VH6rX5KXuBa0DVRyapVNn7gw68g2ztA5kYi85buShVehbUPNUwsUfXp72EeNN7/DEIYnFLUJ83Cj8mr9mBglYJU5uwpbBiUvaJMStdcrwm3FhzHpBxX9mKWIIncZDVu1z6mNiShfL7BAuVEMbHeCk0ZVJLTwnxrP3VragEp21xjkFsLCxtqvHumRuQmIqM1s/lV+iZ4ptYKQnzvwbez8PuC680esfMqzeJg7g/OnPPFje8vSxLswcwd7MipKtClFrW8X3OwXY85rdmz+ga6sJLS7DV/hwcCpnVlTbj1vOrWKfoV7fy6l1izmu0bHONukjMpFrx8xo4rnK6b292JS0ZTt+TQtbuBQ05gpT/qx328ZTVIq76SM+BmMOor/LBMVkwNdZzLH9Sm1+y+le6WYj2JErRmr7rrS6/t4XS7PplLt6QT2d+bZ0qZpErVebTfydHsn4idknJ5YksYLv2TS6etMqppGUaipc5Sv+S/1/pOQlS3jReifs9nme/rur6sqas9Pp6zpbPLMvMiZ0eVUruK7oA5VJ71k8plrTDROo/1aiVpNJwvI/agFrI/bVJF6YHXFgFpmvzOx0A80jxcVVW/Jbdw9D0D5FMSsIuJ6tbTq5jMPe65V2MJ6dfVwg1ayJKSZSlQ29vpBh7Hd2ZVrBTUv7ZVcpDa6rqwjTrElxxQRVy1FbTzBbRSv+oHKdTPQlSJqMxBuJhhaRG0mcKLKFGJz+LYRamOm8tEpl8o0PPs1Mwecwi4mO0DRIvJffP0OcvzRPf55/ZZwZa/Au+vZ/LhwvPapELW3JvDdpnXkK9GLTt/HvXRXXOLloz9xvBfKkJ/vsCil4Ngn89N7fBwaUnfKBXIbW9PZqh5VypSibKWqVC6Zn+wJ00+1FkcxorYbu1+tpVX8ZM5nR5k/ZTcBVXuxrE911O1d0jRSq8ipDVmimvOW/JeDlpFOTf1zYQbl6s4i24STXJlSXaXXoWHfYbnaWFXUeo4if3NH8jcbyE9VVNfPq8s7WHkgmEHuwSxspNui9oqx3I+aLpGP0k5R6mor9Km8jWsFTrGe5ewvv0TD1+eKV/zRhxjEVCeIKoUVk1urEH07YX1s7dboSOsNsyc4qf4uS3aqimv0PnIDmy6O6gVvEr2TzqlVCNgFlFWp6qCtqI1OO6BL9FxUc4AV8xzEDTN3reaprb9F1GpLLGu1F1Gb2fytraj94IvjxvaMDAgGg8QbhCIif0ybqPUbT57N63mjZmwF+ojIHAzufo/FCTfP6pJf3j/m5Ib5LFq/hyOXAvlPOZevyrRh9MJFjG1iGCc401PUasBA70StMvL6hRpRe3h4vsQbxZQ8XyexfiIjcyXxGlJLUf73aAo2W0GZuT4cH56Oi1HuRw1W8cduEifM2l6NqVN7F1tHP0ZpeIhAwqikyn+nVdQqIr1bt3GmcGfmK+vHJiIUlbNbFuchiU8vSzJSGxVBbs3xhuAeYk7zKIGtjahNXJkh0ca2qCjuPip0ccQpxch36vzut6Q+lcfdZPCBIBZkvtI/qYMivWIJiKjNbItByy/RB6fbU8r1FJWrrWaTRVNKf5UjVqAljuymPlJbp8VFXOvGDw/rI/hI3j57yN3bN/E5tpNF837jckRz1l7eQ7eYlFcRtck71mcuVWpNIyxRekY4+23zYLOxptpIbe0Vt9n/i/q8YvUX1FLUettTpt4cPrM7jm967j6R+1HHbnRVYRa/+kF0hHO0RqeLZYyoVaQ3DMLymgJZm+RP6VJEmj1Kq22jsG1hIWW0NN7hC+47h3OjYXQ0Oq4eraai9jbuOwcxK8HBDImrNdzmlu9yKm7bTq1KU5ioRd6xpgvFa0pZGjgYMPGUL5OradpL2mUVAiJqM5untfoSjeTg7h9odak8y0a4MuC7+DDCOby7NC0uFUpbpFaZU/tNQw8umFfIRLQjubm4AVXGX6Tn7mc4tVLudEsup3bfZKbue4rp0FX0qhwTFU8m/UADWppGapPOqc2ePjmpGtga1SRkC+0M++Bm7kiASx9ia8tHXGNO7erYX1GfU/u1/Tm87WITkTW4mpai9ulmrIr15ZDlOgJ3dkVNcTQNrqmmidyPqeOWQb1iSnDFHIurWtJLKXg1yF9Nb1EbVf4rpuJBvgMJ0hfUwEhG1KocoBAjahv6YXu9WVwubVQ0GCamVKc26tLRgnZPRUdGcTd6w5nyT7VOrbI2beGpOCsqOGzdhpeBQZS4Xd8hvY7RDWGzTTH67rdg7cM9dNNgb0gGLSUZVkcJiKjVUcek2iytvkTh/IHa1DkRSkfr42yuWjD2hJY3Qb/TZ+NEdr40TJuofXeE/g5dWJ+rH54DpmOaUynmwu+zZnNzJj6sxdLhG+msmi6ZqumHXXTiF9vFXIhMx+oH/7pjZ+3A+fID2LSkA0ViE1vfcmpCLcwWhTD00EMc6ivn9dKZ3j90YGvurmw7sZp2sdUPLjK9aX1mXzJhud8h+sZujPs4otYnXzPmeOxgQJno4mxx1Q+s2XJ/KzaJau2+ZHunAvTc05qNj3fRSYMjKV95LaRzzwV4U5Oxm7Yxooa66hP3cWpeieGeBWgzfz0O3WtQ4P0DPJdPYdquw1y5k6CkV9gBBpSyYkOhoRzxnIdpTJHf9wGs7dKAyadMWHxxO50Snfykrf13WNqgPHZXLfnt5k46FkjVEkzcKQvfj+lEMN2GiRK0CSKNievUKo6N7cq6pKoUKK1JH1EbvfHsBqVpVd487tjbROkL2ohahTBfTtmYKglRorY0zthjGVSVOkCFCm1oW740N3Z25YbZFti6gLJdHGmVD/b/PQjinygWdJglf/tRNomIa0onii0J+UGrfOAUnR20FetSvXGtMg/fY8P4IcUO0iCrERBRm9k8ruWX6PugdbRymsDRD99Rs2RzTPLm5E3oJdwDvqaZUQBrr3+eNlFLOHe8elDP+RChX1fHumQ1inz+Ev977jiHvKWmyXbcWpqQSFOlwi/Hx/4Pi+VPo3qmX53aYPbb1sNmYyBF69pgWbsY33z2lhC/v/nT2YdXVcZx9Og0asSWlFKtU9tGUac2+wt8DuyKrlM7xhWPGWrq1B5Rs1FMHQP/vczYdJ73ys9i6tSWajWEtuVjSjP8QBu7XkRpSuXhCwGd+1D32CneWphh9GVQvDq1JzgxqZqaAzDg7urmGA/zJG/tjljVyK88kCAf5iMn0EJNJoCm/N/6LKN1s7GcDI3L4c7TeBHjS0xk7PoEG8UI5+6mTtTv58yLYiZYt6xB4Wyv8P97H/uvvqG6nTOu9qZq14+29j/a+hOVeu/DcJA7xxc2ilc5JBWLMaZLFr4fuTCD8nVncYeiDD10DYf60T+oPv6foqbscqioWvdVYYf6wxeihe2GJwbRtWUT1ItV9FPZjAVEbRSLEcxKUTqxQ2lQnOKFIoK5L8EGrWQopEnUKmyPlxscG6lV5NGqVnhQbETbX741N5Yrqx/4Dsf2yZC4aG7UaWIkWxUipcMi0tfXL/AYWY+WKx/RduNVtncqnPzwOrP+0peCjJY8ARG1mW2FaPklChE8C9zF/CMbcf3nJg8+5KaUoQV9zcZg7NsSk5NpFbUKwHEnirk/usvzzwpQMn8d2tXqj22ViuRNp6MOX55dQOde8zmX3ieKvbmL26oFrNh+lMv+9wh+/w1FjUpTxawbI0f1wtRQpcgu8Ibbro7RJ4p5+fE8uyGlK9ShjeJEsbZJnCimqahNYeOUgnZkpAVrHuyluyLaqBS1/oPc8elwgynTnNjvfZ/3BavQoucEpqucKJbgZnh3H3eHiczeehSfO8FRG+QiI8sy3fsiYysmvnH+PTmXn/os4gI1GL1hO2NN4grKJWz97pE3Ls6e+AZDvtKmtLE04cro3FitqZ7siWLu5/x5nq0QRhXr0a7PYPpbV056/WhpP+F3+NXKhKGHs2ExYydrR9aloOqpINo/LbLw/ei/rCGV7LyINJ7B5VOjKZNO97lWTlCUy7pemlbqSmkldcRt1AWUOaRJnRamyL/FkePK0lhJbxRTjFMXy6CpyefIxp9UWkStQpiyJK76QLycWvXcVHNqtWKrFPfl459Ypu0AmrYPf8qpRX3oMPkgEU2Xc3JPX35M4d7UifWn6fykXboREFGbbihlICGggwSUova67X6ClzTRQQPjTHIf/A1t19Zmmf9h+n2qusXPTmLfvgNzToVSuFZneo+ZwERLowQn3uk0Rh0x7ikbrYpheyA7luv82Nk1NntaR+yLNkMRqbVkC+81OjQgzvTozVhJ7PBPJt9Vo8lHiVo/bJKqfKAYRHH87bXEm8ncPVdi1GggKEqOKV5aBW1jXcHk5pc2UZtafhpxiGoUzm3n2cyZv46tXo/JU3c8O3dNxVRl/4e60fRj/WnOQVpqSkBEraakpJ0Q0EcCSlGrrk6tbk3nPo5NSjPKuwd/PV1Ni4TB749p7Nt7uC2zZ+ribfg028qLjdbKY6I/phF6fq2wPfQo0ok/cv+Ci+8KzNPjcL8MQOLuOZwbhRKnJaTpUopNWE9ac7yRal1ojcdU5sFeT25zle9KlpDgwIagw7hjTvOY/HKlOJ7YIXHZrzhbDrPE0Y9WGpYySzgHdXnKGs9To4b/8WfP3HQ5UJnOI6czdWhzSmiSxaIn608jBNJIKwIiarXCJY2FgJ4R0ElR+y+n1y3ALUDJMvIdz664s9X9Bt8PdOXMIjOVk88+FfGIsEAu3gXjioYSqdXSCe89RlK85UoKTz6D90RjtQeHaDmkNM+SBMIJvHoJfqiK4Vfqjp9RD0XWX5ZcLFGTFlGbdX0vM9eEQEAA9OoFGzZA8eKgb/99YgYNzGdxres6QtZ1TX/7NWGYqE10xYchHtFJlpEGuShcuhL1249k2og2GOloVC9VU82inbynVaDegmI43nSnjzblhbMoL5l2+hKQ9Ze+PPVpNBG1+uQtsfXjEvj7b7C3h6lT5d/qOHh4fFx/yNWEgBAQAkJACCRDQEStLA8hkBQBMzP9jdB+jIiyInItf0JACAgBISAEdISAiFodcYSYIQSEgBAQAkJACAgBIZB6AiJqU89OegoBISAEhIAQEAJCQAjoCAERtTriCDFDCAgBISAEhIAQEAJCIPUERNSmnp30FAJCQAgIASEgBISAENARAiJqdcQRYoYQEAJCQAgIASEgBIRA6gmIqE09O+kpBISAEBACQkAICAEhoCMERNTqiCPEDCEgBISAEBACQkAICIHUExBRm3p20lMICAEhIASEgBAQAkJARwiIqNURR4gZQkAICAEhIASEgBAQAqknIKI29eykpxAQAkJACAgBISAEhICOEBBRqyOOEDOEgBAQAkkSePeE86672fG4CjNsTflSUAkBIQC846TTZC4X/gnrltUpLDdGll8VImqz/BLQYQBhp5j7pwMeBg2Z2m4Epl/psK1iGjw7wbwhMzlqYMbk5WMxzStQ0oNA6KXfmDhgHOsvhfJ51+08W2slolYBVp4P6bG89HyMd+z95Ts6bQknj3Ev5qyaTU/jPHo+JzE/LQRE1KaFnvTNUAJhl/rx3Z/7oq7xk80dNlfJlaHXk8HTRiBsdw/yd9sRNUjHLcFstJZfIWkjCqFn59DO0p7TORswZsFcBllWo3COtI6aOfrL8yFz+DHNs3j7mAvOjtiNns/xN3WZ5vIn42qJsE0zVz0dQEStXjjuMP0md2VDzn78PWEGdTnLmNltWPKmI84zltFcL+aQCiOf7ab7BjsO0JSVvVfR/pNF/rIof21dFrCTnlZDOUALVjivx6aYtgMk1z4QJwsjhh/ryZ63Tnq45lNhf6gb/au147cIS9Yc2UJ3o6TerWbR9SnPhyRumFSshw+BuB0aQt9TJ3lqYIBRXTeuN6+aTjfwS65cWsmisy54PAngGbkpWagB1rWHMNy4LN8kukoq7FckItzeRBezfrhk682+8yuxEF2bTv7Tr2FE1OqFv47Qf3IX1ufsz7EJ0zHBi7GzLVn8phMuM5bSTC/moM9GCv9P771UiMJPb3Q8C7S1P4Lz06thOvsJHbdc5jebgsnMRtbnp3W1rvHXzp43T/czdddIFv/znmqGRtwN9CG/qXs6idrXeB1oS5MTl3mXqwrtStWgCI84c8udc6+/xKTBX7g3rYbqOzjt7I/v+6CdXanYfTdFp5zl/IQqGHzahSFX/wQERNR+AugXOYq2AAAgAElEQVTaX/IEw6fb4JhjGGfHTqAal5nqYMHstz05PGUeDbUfUHpoRUD4a4UrQxprKwozxIg0DKql/RHeTKpQjwURIznmO5tanyV3aVmfaXBMOnTVNf5a2PN8G5YrhuP+WQ1GWS5nap4dVF6zmC/SS9Q+34D54nEcz9uPQ/3safBV9EIODzvG6NUdWRFam1Uj9/CLSlRVC/sTei/8NHalG7M0hx2nrtpTTVRtOqxv/RpCRK1e+Osikx2aMzfHRK4NHUpp/FmwzJTxb4dweuwkasTO4Tm/b6xIr9sVWDT0IEMKJJjcyy20nj8Sj5IrCPy5A3Fv8//j3o21zD+5iwOP7hJMXsoWMaer6XD6lzFMsCkliDVrKjHwYRdcR7fn0r5ZrL17nSefFaZmyS6MtxiAWZ4vVC8cEcSpM0tZcOEol54H8OB9Dgxzl6Fuud6Mb9yeSjnjN/8HJ6eqDPtH9WnUps0NdtZI6n3Sa276rGT+mb0cfhJASGQeShZuyE8mwxhWqaRqFCB4NfWXTuGK8VZuGt9g3MFNHAgOJXeeKjStNpbJJjUokEhAaMpfddovzy6kSy8HvCJrMmbjNkbXTvyiLVXLL/wJp9bPZ+GmI1z28+dhWE4MS5bHxMqWcSM7UTF3wlHfcMdtJQtX7eDguVs8/8KQ0hVrYdlvNAOtypFbBfVj1rYqweBjv+B8uyOXx05m3cErBGUrSvWWPzNu8lDMDOP7N1qsjTiewF/r/+GPzmryRe460qDcKK7ZuuDX9S5Tp67Exfs+7wpUpmWPCdiPaErc8OeZUtaU+QHJfzO1SepamsKNCOLkqunMWLOPcw/BsGoLbKfPpPQfZWntVIUlfh7Y/i/+YP8RcHAVCxy3cdDbn2DyU7pWC7oOHk2/JkXj3S9psP/eKhqVHcHVvnt5vLwZ2ZKdi6brU54PuvR80HR5at9O0/UA/LMEC7d32NkMp0meL+H+XEqlo6j9z2cQ3+7ajXmLi+w3+V5lKoGnbPjR/STdOgSwrlL2eJ9pYX8iOO9xG/Q97dZVYsnNo9gW156e9NBvAiJq9cJ/t3BYWo+JOeZwr39vDHnM6l+rMPjNOK4MG0HZeHMI8e5Bsb3u1DQ/zd8Nf1SZXdC5rhTb54lV2yvsqP6d8rMP3D7bg3ouh3nxTQ2sjYwpRDAXbrtw4uW3tLNyZ1uN4nweO1KMqDWng9F5Lv9nTtOCOQl5dITdgYGE5+7FwUFzaRgrVMO55mlJnSPnyZnPnPY/lCZftnBCnnqy4/ZNvii+gFO/dOeH2PFfcPLUctxDo//H2yBnlt0JIGlR+57rxzvS4OBJXuasTLvSNSli8ISzfq54vf4Ki+au7DUtHScKYkRtKWuaBV7mrVEDjD4P4vRNN7zfGFCr0SE8m1RAVZZrzj8+8BN2xWm6LCjqfxUceoiAefXSYbWFc32JOXXHnSZnxdbYNC7Dd9k/8OzmEXY6XyWbxSpO7utFidgrfeDmGmsaDznIs3xVsLSqR4kvQ7lycDeedyKpPNoVj5mmfB3bPkbUtqZ9qzP4vGxBk3Jf8fySO7tP3CO81EDcTiyiYaxwDuXkmkUceKD01/U9LN9/iySFZoyobfczLc+d41/zxpTK/pRzLn9xNjCCypOOc2JSdaUwDGCv/TKO/asYOwyfPRs5HliO1oPMiP9dVfan6fStndpNaZH4r7Kg+ojj/FewKm3b1KXIe388DuWiWs2DbN2bUNR+4M5vnajf34V/i9fF2qIaBQyCuXBgN6cC8tJ23TG2dC2hvF/SYL/XFIwaOPDtVC8ujq+cwrrRfH3K80F3ng/p8DBIYgjN1wPvwniV7Su+jvkhn86i9rl3DwrvO0CPnx7ya0XVn2Yfrg7lqx07sLK6wY7q8QMWWtivhoDPnKrUsn+J3XF/7GtmHGUZWTcJiKjVTb8ksOoRTquNGZJ9GU97diQPr9i2yYifX8/kjm1fVPbjhO3GxmEg+wrZ4zfQNp5YDOX3jRXoddeM38dupmOMBnh3iL4O3dj09UCO2U6ldszO6rfeTHCyZH5YJ9zGLMY8do+KUtTe/4K6DVxwbWpM1FCRLziyx4LmF+5j0fI8+02KKOegjCq/+Il9Y5fTIvYH+Ru8Tk5mbWABbJrb0exb9Y6IeSgmKWrf7qeHQ2+2Zu/InkGLafV1tPyOCDvEQMdurHtrw192K2kdc12lqD2XvSGL+25iQKHoCX8I3c3PKwey810nXCYvpVmcige04B9vGmEXV9Gn/xIuUpXhq9cxoGpqhVd8NrdYaFKJifd68Net1bSIVaOv8XIaz/pL+WlnP5lmhZR9XjnTu0QHtubpxvbjTrT9XvnFEnaJmRb1mHm+DstuHaZf7CJSitoj2akz9Sj7x1dT+jeUI6Pq02rlbcwdb+HSx1Ctw55v60iR3vtSFLUXvmuKw5EdDCwX/esnItidwaZtWf+4HVsCtmGTKCiv5et7Te/r90cZXqIFThFWrPP+na7KMPHrq0uwbjIJzxe1VCO1YW70L9WOzYajOOoxi9jg+8uzTDRrzMJHvXHxW4F5okIdWtp/dBT5WjhSYd4Vjg0rlcJstFif8nzQmeeDpktU+3ZarIeEg2ewqH3/Nohn5KVQji+IEbWJn+1psB+4tbQBleyuMcgthIWNtacnPfSbgIha/fafGutD2bqpIj1uVWbpcFcG5lM2eb2bDvMG4mbkyMOf2xOrGZQPse8aHeNskzIq410/YkYVz1dM7e/FpKIxH8WIWlNWj/6T3vFfdQfOp7zTAgKNt/LCpomyw03mLWnApNfdcB+zkCYJMhNSwp+iqA2YxY9rl0EdZ+60qqUy3On9VWhwBsb/cpnpMaE9pag9U2oFIT93IE5Lf8B1549Y+ZRn8TB3BudPybJP9fkNHGoaM+VJP/b7LaNJSuWdlBE/g1FH8Z9lomJ0oOtM5rg+pXb/pXSvFPNRjKg1Y9VdV3rFf2N4eTaVak8nsL8zz5Y2TZOo9Wq7kafbO6nsfD49sSSNF37JpNPXmZRo47WWolBT9yhf81/q/SchK1vGeyPxnM0239N3f11VUXt+OmVNZ5Nn5kXOjC6nchXfBXWoOuklk89cY6JxQgO0tF8rUavpZBXt5PkQQytzPh+0WQtq2makqC3hQqfF/dlNK7aPWI/VvehIbfKpZdrPR0St9swyUw8RtZnJm8q5PDvfi6J7XKlj4YVH/Wg1F3qpL0V3u9K63VW2V4uX63hrAt9tWke+Er3o9H3cS2hFn5eP/sTxXihDfr7DothgUYyobc8ee0daxc8/DTuGg9tf3DP8mRUmVYn+6D2Xj7SgtucV8hZoRZdydahS0Iiy3xtTpUA+sqeQyJ+iqFXaX6HJSY43KqniTT/P5lQ44qdqf2xO7TZCbcxU2p9yqUzDs18zc8Ap7GICzTq3Pt7j49CQulMukNvYms5W9ahSphRlK1Wlcsn8iXlqLY5iRG03dr9aS6v4bwyfHWX+lN0EVO3Fsj7Vlf5VBaRppFaRUxuyxFylc/JfRlqKQk39dmEG5erOItuEk1yZUl2l16Fh32G52lhV1HqOIn9zR/I3G8hPVVTvl1eXd7DyQDCD3INZ2EhXRS3I8yHaN5nz+aDpwk+iXUaK2pKnGOvUh9/ozB+206nnL6I2jd6S7moIiKjNjMsibDcdHAay5/sZ3Lbtx/8IY/eW8nTya8xWu410iP9q1G88eTav542BenUZEZmDwd3vsbh0DKhkRG1SLMODOHlmCQvPu3Do6RPeKa/1Ve5mjGk9B7syRdQKJMVwKYpapf2VkhS1N1Tt13tRq/id8JiTG+azaP0ejlwK5L8YnmXaMHrhIsY2MYzjmZ6iVoN7Re9ErTLy+oUaUXt4eL7EG8WUPF8ncb9ERuZK4rWnlqL879EUbLaCMnN9OD489ubTwAMaNJHnQzxRmwmfDxosgSSbZKSoTSKnNr0jtX5L6lN53E0GHwhigZQGSstq0Mu+Imr10m0pGR3Ktk0V+fmWMctHumD7lSs95/Ri148redjdJi71QDGMMtJZp8VFXOtqEp5MhaiNNTeSt2GB3An2w+f2Xyw6sYOLNGb90O10T6KwQYqiNstFauP7PpK3zx5y9/ZNfI7tZNG837gc0Zy1l/fQLSblVURt8jeLz1yq1JpGWKL0jHD22+bBZmNNtZHa2itus/8X9XnF6i+opaj1tqdMvTl8Zncc33Tf7SLPB4nUfoJIrcYbxVL6fkv+c68pZWngYMDEU75Mrpa2saS3/hEQUat/PtPI4ucXelPsr/3Ub3GB3bnnU3T7Lpq1u8q2agnUo/KX+TcNPbhgXkGDsdMialUF2c2jzajocZVeHe/xa0X1pyWlKGpTzKk1YMIvl7BPkFN7xVhf0w+SclEkNxc3oMr4i/Tc/QynVkqeyeXU7pvM1H1PMR26il6VYyL1yaQfaLA6NI3UJp1Tmz19clI1sDWqScgW2hn2wc3ckQCXPsTsryPiGnNqV8f+ivqc2q/tz+FtF5uIrMHVtBS1TzdjVawvhyzXEbiza7zyexpcSoMm8nyA6JzarPJ80GBRKJqkc6Q2pZJeJdxO07vTPVZXSOq0PA3tjm0WwmabYvTdb8Hah3voprN7I7Sdl7TXlICIWk1J6Vu713/y07wB7P1hAZu/nUXXyyZss9tA+4S7st8dob9DF9bn6ofngOmY5lSKm/D7rNncnIkPa7F0+EY6x6YPailq3x5m7MbFnC/Qm83WNhSJzXJ4yymXhjQ8G8rwHjeYX1J9+kOKovY/N3rN68nvSVY/6MCecSuI0Xh8xPSDsItO/GK7mAuR6Vj94F937KwdOF9+AJuWdKBIbE7zW05NqIXZohCGHnqIQ30lz5fO9P6hA1tzd2XbidW0i61+cJHpTesz+5IJy/0O0Td2I+DHEbU++Zoxx2MHA8pEl6WIq35gzZb7W7FJVGv3Jds7FaDnntZsfLyLThocgfnKayGdey7Am5qM3bSNETXUVZ+4j1PzSgz3LECb+etx6F6DAu8f4Ll8CtN2HebKnQQlvcIOMKCUFRsKDeWI5zxMY4r8vg9gbZcGTD5lwuKL2+mU6AAwbe2/w9IG5bG7aslvN3fSMWHN6bQ+j+T5oKyO8umeD2l1YYb010LUvrq3jE47luFFNcZ13MDI4mrur2QOXxizuiPLQ+vy68jd9NLgftZovkFbsS7VG9cq8/A9Nixe9R+NekujTEBARG0mcKL6Kbzgj82V6Hb7e0rlvMeDItGpB4m0AuHc8epBPedDhH5dHeuS1Sjy+Uv877njHPKWmibbcWtpEq+flqKWEPbvaErbK08oVqQ1bYoV5RuD/wh+eoLdt315lX8YxwZMoEbMD/Wg/Uz3vsh75aRi6tSW/LEv1gVj6nIVp415d2pG9fmA74mfqH9AWae2TK2oOr5nlHVqmzV3Y49pqcR1aj9CpPb42P9hsfxp1EzSr05tMPtt62GzMZCidW2wrF2Mbz57S4jf3/zp7MOrKuM4enQaNWJ/vKjWqW2jqFOb/QU+B3ZF16kd44rHDDV1ao+o2SimbqH572XGpvNx/lLWqS3Vaghty8eUZviBNna9iNKUyjq1AZ37UPfYKd5amGH0ZVC8OrUnODGpWoIDP6IvfHd1c4yHeZK3dkesauRX+jQf5iMn0EJNJoCm/N/6LKN1s7GcDI37YZWn8SLGl5jI2PUJNooRzt1Nnajfz5kXxUywblmDwtle4f/3PvZffUN1O2dc7U3V3Gfa2/9o609U6r0Pw0HuHF/YKF6ljvR4aMnzQVHH+lM+H7gwg/J1Z3GHogw9dA2H+vEPIEgPH2swRughZnl6EBzT9JU3v9304bNCbeheVBnmzNuSKQ3rJ3pbcHxfOcy9n0f1LFDzTx5a1lVzwTC8DrRLcEzuY87ccos6Jte04V5czY0THJOrgd1qm7zAY2Q9Wq58RNuNV9neqXBqB5J+ekxARK0eOy8l00Mv/kLRP535jy/4yeYqW4yT+jkcd6KY+6O7PP+sACXz16Fdrf7YVqlIXpUgqraiFnh3D7cTS1h+5SSXnj/kaWQuin1rhPGPnRjVuBumipNsYv5S2LimaBYR2ZD1dn/QPV6N1huKE8VO/8WhJwE8IzclCzemY9SJYqWSOFEs49MPXp5dQOde8zmX3ieKvbmL26oFrNh+lMv+9wh+/w1FjUpTxawbI0f1wtQw4au8N9x2dYw+UczLj+fZDSldoQ5tFCeKtU3iRDFNRW0KG6cU/oqMtGDNg710V0QblaLWf5A7Ph1uMGWaE/u97/O+YBVa9JzAdJUTxRKs8Hf3cXeYyOytR/G5Exy1QS4ysmzUj6CxFRPfDf+enMtPfRZxgRqM3rCdsSZJFENWLNFH3rg4e+IbDPlKm9LG0oQro3NjtaZ6sieKuZ/z53m2QhhVrEe7PoPpb105wf0Szy4t7Sf8Dr9amTD0cDYsZuxk7ci6FFSpn5zSEyD5z+X58GmfD/7LGlLJzotI4xlcPjWaMp/iSNd/FlFl1TxuJLHxMep5W2QW92z7kPB34793FtJ+10rOU4WxHX7D7oekTkx8ic+FlSzy2otH0ENeGOTFqFA9bGoNZZhxmXgHv6RhPYc/5dSiPnSYfJCIpss5uacvP6bjvZIGy6TrRyYgovYjA5fLCYEsTUApaq/b7id4SUwtY90k4j74G9qurc0y/8P0i03P+Mi2PjuJffsOzDkVSuFanek9ZgITLY3i1dP9yPbI5dKJwFM2WhXD9kB2LNf5sbNrbDZ3Oo2fVYYJ57bzbObMX8dWr8fkqTuenbumYhpzYGZWwSDzjCUgolYWgxAQAh+PQMwxuWrq1H48IzS50n0cm5RmlHcP/nq6mhbptY9Fk0snbPP2Hm7L7Jm6eBs+zbbyYqM1n+BFdWoslz5JEQjbQ48infgj9y+4+K7APD0OG8yStP/jz5656XKgMp1HTmfq0OaUkJsjS66EmEmLqM3S7pfJC4GPTEAnRe2/nF63ALcAJYvIdzy74s5W9xt8P9CVM4vMVE4++8jEYi8XERbIxbtgXNFQIrWfygnpdN33HiMp3nIlhSefwXuicZJ1utPpcpl4mHACr16CH6pi+FX8k4Ay8ZRlaskSEFErC0QI6BOBgADo1Qs2bIDixUHf/vvEDBqYz+Ja13WErOua/vanypfRFR+GeEQnNUYa5KJw6UrUbz+SaSPaYCRRtFRRlU5JE/CeVoF6C4rheNOdPtqUOxaoQkAIiKiVNSAEMgWBv/8Ge3uYOlX+rY6Dh0emcLNMQggIASEgBFJHQCK1qeMmvYTAxydgZqa/EdqPEVFWRK7lTwgIASEgBLIsARG1Wdb1MnEhIASEgBAQAkJACGQeAiJqM48vZSZCQAgIASEgBISAEMiyBETUZlnXy8SFgBAQAkJACAgBIZB5CGQqUZt53CIzEQJCQAgIASEgBISAENCGgIhabWhJWyEgBISAEBACQkAICAGdJCCiVifdIkYJASEgBISAEBACQkAIaENARK02tKStEBACQkAICAEhIASEgE4SEFGrk24Ro4SAEBACQkAICAEhIAS0ISCiVhta0lYICAEhIASEgBAQAkJAJwmIqNVJt4hRQkAICAEhIASEgBAQAtoQyPyi1n8vM7b6ktuwBOXrNcesTB4+04aQtBUCQkAICAEhIASEgBDQeQIGwcHBkfny5dN5Q1Nt4NFR5GvhyGsDAyINCtJ42h/sGFuHb1I9oHQUAkJACAgBISAEhIAQ0DUCBv7+/pG5cuWicOHCGBgY6Jp96WNPxFtCbh1gRtfOOF2tzZIbR7EtkT5DyyhCQAgIASEgBISAEBACn56AQXh4eOSDBw+iLClWrBiffZZ5X85fdahJjSn3GXLwCfMbfHr4YoEQEAJCQAgIASEgBIRA+hCIyqmNjIzk8ePHvH79mv/973988cUX6TO6jo1yaZYxdWa8wu64P/Y1dcw4MUcICAEhIASEgBAQAkIg1QRUNoqFhISg+EcRsc2ZM2eqB9XVjsfGFMVieRFmX/ZiZBldtVLsEgJCQAgIASEgBISAENCWQKLqBy9fvuTRo0eULFkyk6UiRLDf9mtsNjbA8bY7fQy1RSXthYAQEAJCQAgIASEgBHSVgNqSXteuXaNChQq6anMq7YrEdWAerNfXZsXtg/wiojaVHKWbEBACQkAICAEhIAR0j0AWErUQ9EdnyvVwo/Z0d9bYVuX7b7NLzVrdW5NikRAQAkJACAgBISAEtCaQpUQtkc84u9qOwZM2czUsunxZZGQuBrmFsLCx1uykgxAQAkJACAgBISAEhICOEDC4evVqpMKW+OkGmTP9AHjkznCrrqwNqkg7q9oUz52Dz/iC6j9PxqqkjnhEzBACQkAICAEhIASEgBDQmkCWitSen14J09nhjDvhw7Qa2bSGJR2EgBAQAkJACAgBISAEdJNAFhK14ezr+xU/bTZndYALPQrppkPEKiEgBISAEBACQkAICAHtCWQhUQuHhuXDcnVFFvn+zcAftIclPYSAEBACQkAICAEhIAR0k0CWErVeU8rSwOFLpnr5ML6ybjpErBICQkAICAEhIASEgBDQnkCWErW+C+pQddIDhh8JZK6pBrAuzKB83VncoShDD13DoX52DTpJEyEgBISAEBACQkAICIGPTSALidpX7Lcti83GHNgd98e+Zsqo/Zc1pJKdF5HGM7h8ajRloquAyZ8QEAJCQAgIASEgBISAjhGILemV0K5Mc6KY/15mbDzJY9/D7Nx/ndfl7PA8Y0+NFIOuT9loVQzbA9mxXOfHzq6ys0zH1q6YIwSEgBAQAkJACAiBWAJqI7WZis/RUeS3/I1vjcpRvWkPRo3uQZ3CX6Q8xbA99CjSiT9y/4KL7wrMv0q5i7QQAkJACAgBISAEhIAQ+DQEMr+oTSXX9x4jKd5yJYUnn8F7orEcp5tKjtJNCAgBISAEhIAQEAIfg4CI2iQoe0+rQL0FxXC86U4fw4/hCrmGEBACQkAICAEhIASEQGoJiKhNLTnpJwSEgBAQAkJACAgBIaAzBETU6owrxBAhIASEgBAQAkJACAiB1BIQUZtactJPCAgBISAEhIAQEAJCQGcIiKjVGVeIIUJACAgBISAEhIAQEAKpJSCiNrXkpJ8QEAJCQAgIASEgBISAzhAQUaszrhBDhIAQEAJCQAgIASEgBFJLQERtaslJPyEgBISAEBACQkAICAGdISCiVmdcIYYIASEgBISAEBACQkAIpJaAiNrUkpN+QkAICAEhIASEgBAQAjpDQEStzrhCDBECQkAICAEhIASEgBBILQERtaklJ/2EgBAQAkJACAgBISAEdIaAiFqdcYUYIgSEgBAQAkJACAgBIZBaAllU1Eby4qYH7ieucTfwBeW6TMaqZGoRSj8hIASEgBAQAkJACAiBT00gC4raV5xb2JEOU4/wJNyAyMhcDHILYWHjT+0Kub4QEAJCQAgIASEgBIRAaglkPVH7cA1N/8/emcfVnL1x/B1mYswMY19/DLJT2ckuWZLsjH2Xfd+VfYvsS5ZiGMswZixJlmSJSKTsZMm+Zo2Q7u9V3dLNVffWrW48/TOjznnOc97P8/3ezz3f831O0YEcK2nDpg22NDDKSvo0CcUn/YSAEBACQkAICAEhIAT0gYDB+fPnFeocKVWqlD74p3sfjowkp8Vi/jfFh1OjSuvevlgUAkJACAgBISAEhIAQSHYCaldqL1y4wDcrar3tKFzTnl/tTuI7zjjZgcuAQkAICAEhIASEgBAQAron8P2J2ssOVDQZz6NB+7ltX0P3RMWiEBACQkAICAEhIASEQLIT+P5E7b3VWBQegGfXbbxxtES20yZ7zsmAQkAICAEhIASEgBDQOYHvUNSuon7hgXj33M6LJQ0x0DlSMSgEhIAQEAJCQAgIASGQ3AS+I1EbxvtXD/B17EVDu5M0+vMSm9rmSG7eMp4QEAJCQAgIASEgBIRAEhD49kWtx3CyNlrKW4PINVlFxtJ0mraE2X0qk0WWaZMgpcSkEBACQkAICAEhIASSn0B0Sa+Y1Q6+qeoHATuYuu40Hwkj5NUdvHdu43z23mzaOY/6OZMfuIwoBISAEBACQkAICAEhoHsC3/5KbSxmoT6TKFt9Fj9M8MJvgqnuiYpFISAEhIAQEAJCQAgIgWQn8N2JWh6uxbKgDe6dtxK80oq0yY5cBhQCQkAICAEhIASEgBDQNYEvRG1wcDC3bt2iRIkSpEnzDRa8urmUmiWGc8HGhWcLzHXNU+wJASEgBISAEBACQkAIpAABFVEbLmjv3r1LtmzZyJo1awq4kwxD+s2gTOUphI4+yqXJFZNhQBlCCAgBISAEhIAQEAJCIKkJRIvaKEGbL18+MmbMmNTjppx9z9HkMV/I/6b5cmJEiZTzQ0YWAkJACAgBISAEhIAQ0BmBCFH73QjacGw+kylWfSbB3bZxebklP+sMpRgSAkJACAgBISAEhIAQSCkCBm/evFGEbzn45ldoowh/OMu06jWY5p+BkpatMS+RC7OutlgXSakQyLhCQAgIASEgBISAEBACiSVgcPnyZcV3I2iVtEIfebPOYS5r9/lwOeAVnXY9xaFOYlFKfyEgBISAEBACQkAICIGUIhCxUvtN76FNKbIyrhAQAkJACAgBISAEhECyEVBbpzbZRpeBhIAQEAJCQAgIASEgBISADgiIqNUBRDEhBISAEBACQkAICAEhkLIERNSmLH8ZXQgIASEgBISAEBACQkAHBETU6gCimBACQkAICAEhIASEgBBIWQIialOWv4wuBISAEBACQkAICAEhoAMCImp1AFFMCAEhIASEgBAQAkJACKQsgW9K1D548IDcuXOnLFEZXQgIASEgBISAEBACQiDZCYioTXbkMqAQEAJCQAgIASEgBISArgmIqNU1UbEnBISAEBACQkAICAEhkOwERNQmO3IZUAgIASEgBISAEBACQuxXgT8AACAASURBVEDXBETU6pqo2BMCQkAICAEhIASEgBBIdgIiapMduQwoBISAEBACQkAICAEhoGsCImp1TVTsCQEhIASEgBAQAkJACCQ7ARG1yY5cBhQCQkAI6BmBD4847bqNLQ+NmWpjxo965p64IwSEgD4S+MAxR1v8crWhRePy5NKDG4eIWn3Mk2/Vp+DjzPrXnoMGtZjYfChmGVPZRFO7/6kM9xfuBnkye+A0PAzqYrt4FGa/pfYJ6Yf/L87+yfi+Y3A++4K0HTYTtNr62xS1qf36Te3+60e6ixc6JfCBHT2z0G7DJzKbdGPm8hl0Ncms0xG0NSaiVlti0j7BBILP9ibLvzsj+rdpeYP1xj8l2FZKdEzt/qcEM12OGbytC9k6bokw2XbDU9a2SG3finRJQze2XpycSXOryXhlqMnIubPob1WOXOl1Y1vfrKT26ze1+69v+SD+6IhAyEPO7FrK6BFzOPquGpNc/mVMpZQTtiJqdRTXpDVzgN62HViToTeHx02lGicZOaMpC961ZdfURTRM2sF1Zz1oG53WjGYv9VnWfTmtdLrSdh9HR1MG3ktCJon0/8C2gjQ6W5z5g90YkC0m1m8kvrrLFPWWArfS1XoQe2nEkl3OtMyvywHv4WhRmCFHurI9xDH1XFPRCBLg/4s99CnXnD/DrFjlvoFOhb/27PAbyc9EXr9xZ5vcf3R3NepRvr3ZRNPZQ9hTfCVvOlhjqLtJ6rGlhPH/cH0d7ev2xiVdd3aeXoZFCulaEbV6nFqfXXOnj217nDP04ci4KVTFm1EzrJj/rh0uUxfSIFXMIamdTIYPlURO4euiVuKbSLQ66J4AUaiDUXVnQlv/wzg9pRxmMx7RdoMff7bMEYcrkp/xx0nuP/Ez0rSFHuXbdylqE87/8dYOlO60jXx2Jzk9zhgDTUOuw3YianUIM+lMeTJkSkuWph/MyVHjKIcfE+0tmBHSlQN2s6mVdAOnIsup+UNF4pvyiaatKEx5j1U90NL/MB8mlKrO3LBhHLk0g0pp4pqP5Gf80Zb7T/yMNG2hR/n2XYraRPD/5MXoonVYmH40x89PplwKqFoRtZpeZynazhdb+4bMSj+eC4MGUZQA5i4yY2zIQLxGTaBCbN/CHnP8xELmnvHg7PNA7nxMT95MxahWojtj67SiTIbYHUK4fnElc4//x74HN3ieNhfFspXHqspg+pcpRiaVxHzMqlVl6He3Pa4jWnF253RW37zIozS5qFikPWMt+lI38w8xBoi82Q++r5rdTZteZmsFNc8nnq6gxkI7zpls4nqFQGz3rsLl4X3eZyiJZbnhTKldj3xpo8xHcrF/E/eV89WxNIqplv6H2/x0jwOHZjLddz++b9NRIFdDBja05ffT5Wl4xkjN9gMt46v0+/VJB9p3s8dbUZGRazcxovIvGs0o3kafHnHceQ4O69zxuxrA3eAM5C1SkqrWNowZ1o7SmWJbeMeNPctwWL6Ffaeu8fyHvBQtXQmr3iPoZ10iVv48ZLVlQQYc6cmu623xG2WL075zPE6Xj/KNOzPGdhB188bMn0ixNvRorPxxvs/ff6jZv3JzKTVLDOeCjQtXO9xk4sRluPjc5kP2sjTuMo7JQ+vz2fxp7IqbMScwnvz52ljxglQ2CHvMseVTmLpqJ6fuQl7TRthMmUbRv4vTxNGYBVcPYvO/mMbeE7hvOXOXbmKfTwBPyUbRSo3oMGAEvevli/ESVyL8v7Wc2sWHcr7XDh4ubkC6OOeiZX7K/UeF5rd6/9E0/bVvp0W+3Z+H8fLZvKy8k1tNKqsMddylLLVO/sy0vscZnUf5p+jPl41cMbnMmH3r2Pv0BZkyG1O/3Chsq1Yge8wveHGI2sfnB1Hl778JLbackx1akDv8NqKt/Qi33nLFfxlzTuzgwKNAnikyUyRXLdpUHczgMkWIfvPk3hxKOs6jcuubrCkbvvH9BCNmWLOQqCe4oLg2juzrDjLc5gRj8ybUHy34fxHcj+zpn5vmTmVYcMUDmwLaRz+xPUTUJpZgsvS/hv3C6oxPP5NbfbqTl4esWGnMgHdjODd4KMVVfPjEhUNWVHE/TYas5rT6vShZ033i2ZNDbLl+hR8KzOV4z078Ht0nlCvH21Nzz2GCDEvStFgVfk/7Ev8AFzxeh2FSZSsellX5Obp9lKg1p3Xh0/i9N6d+jgw8e+DOtnv3+JSpG/v6z6JWtHB+ybHji3F7EWkg5PEuFt0IJF5RW7QNlvdP8/r3mhilfcapa7vxClZgUt2VYw1MlR/st9mxZzmH3odbDubc5b85HFwYq/K1iHktlTCxpXfBhL6UpqX/fMBnrwVmnpcw+MmUFkXLkfPTTTxu/UrN/EdYfrGAGlGrTXw/B9tzdAHqL3oc8Yscg/YTOLu6DrLxExcXmFNtjBcZSjehZZ1iZDEMJeiKO1t3nSedxXKO7exGwZj5s6oFdQbuIyirMVbW1Sn44wvO7dvGoRsKyo5w5eA0sxj5EyVqm9DK8gT+rxtRr0RGnp91Y5vnLT4Z9WOP5zxqRQvnFxxbNY+9d5T5c3E7i3dfo2l8orZ5ZxqfOsUr8zoYGT7hlMt/nLwXRtkJR/GcUF6ZP4HsmLyII68i88d/+1qO3itBk/51VfKneJsp9Kqc0JfSFAQst6D80KO8z2FKs6bVyPMxgIP7f6JcxX1s3BFb1IZy48921OjjwqsC1WhhUY7sBk85s3cbxwN/o5nTETZ0KEjk97pE+O9tR+Ga9vw60RvfsWXjyRtt8lPuP9/L/UcHN5uvmNAi3xIqao1a0OCeHyGFa1I47WO8ruzB550BlWrv51C9UkR/rf6KqFW82Eabpf3Y/kM7XPovpEHU7SFK1Gpqn49cPNqWmvuO8TpDWZoXrUgeg0ecvOqK99uMWDR0ZYdZ0cgvnSH/0mZ6X+7W9eR4HSN4sxGreRPx/lSOuSP/ptPP8PBEW/K7/sLfE1bTInyLvNb+hA+kBX81EfSfaUqlya8ZfTSAyRWTLku+ZllEbfIzT8CID3BcYcJAw0U86dqWzLxh07rCdH47jRs2vVB9X0a5ivuyDTtHLaZR9M72d3gfs2X1vey0bDiaBr8q3XjvStfZ3dhg2IqtNgtplkm5ZvPBn6krGzLlUXmWDNtFn+hFMaWovf0D1Wq64FrfhIjrWfES9+0WNDxzG4vGp9ldNeqrsep0n/t0IdfOvfGK2lOGNXHouZ7+ylexw4IP0G9pB5yCG7NpzBpafbHanDyP/+L1/9122s3qw7aMf7Cr/zwaZoz82h/yyIn2TlPY9a6EGlGrTXw/8wz2XU6PPgvwxZQhK5zoa5pQ4RUzRtdwqFqG8be68N+1FTSK/jbzFm/HsTifzUbzybY0yKns82YX3Qu2ZmPmjmw+6kiz3Mr8CT7LNIvqTDtdhUXXDtA7OkmVotbdkCoTPdg9tpwyf17gPrwGlsuuY770Gi49wpcZvvx5vqktebrvjFfUnslSH3v3LfQrEZkoYU/dGGDWDOeHzdkQuImWXzwk0PLxvaZX8UcPhhRshGOYNU4+f9FBuUz89vwCWtSbwKGXlVRXaoP30MeoOevzDsfj4HSiF99fn2R83To4POiOy9UlmH/xHU1L/z2Gk7XRUkrNPseRwUbxzEab/JT7T1K+vKtP9x9NLwHt22mRbwkUtacMazG/1zr65ows9RH6Yhudl/Vj64d2uNgupEHU00B1ojbsJo5O5gy8k4Nhnfcxu0iMJ2RKEamx/ZDddLHvzkbDtmzvPx/LnyMHDgveT7+lHXEKacl/o5fRJOJzPHLb4cLCGwlqWY80t6ZScPcj6oUeIY+1P1MLwondJtS40oEzw0ZSJryLtv5EjK4FfzXBvbawJmVGX6D/nmc41NE++ontIaI2sQT1rv8VZi+oyYS3HXEb6UC9mE9y1fl6axoFnRaTpsoublhWUmlx74I90y89pmrVuXSK1hhRotaMFSP+pXvMR9ERj0fmcs9kIy9b1lMvSjQUtSeMlhLUuRUxH6h77Tam5okfsetzCtt8sc3riai9a0/xFQ58rOLCdcuYX1OVX0SumaoRtfqURJexr2iC3aPe7L66iHrxlXdSrvgZDPcgYHpV1fxxncZM1ydU7rOQThF32PCfKFFbl+U3XemWO0YXvxmUqTyFe312EbSwvvr80VDUejdby5PN7VTzZ3wR6jj8yASvi0wwjW1eS1GoaciUj/nPdv+XZ8saK1dYwzs/Z33L3PTaXU1V1J6eQnGzGWSe5suJESVURrk0twqmE15je+IC400S6b9WolbTyYa3k/tPioraVH//0SbXgASK2hNGS3jWuTVRazsQiuvWQlj7l1S9P38haj/g794Ms0N+lK6+i4MNyqGyvqIUkRrbD5xOodWLQM3nb+TnHYzt6ceUiEePr/hrrRHd3kc+sc3g04kCN1qx5lNf/ja6yNYK6SIWu7qmXcHzDs0ity1o64+W+NU1F1GrA4hRJh48eEDu3DE/JXVoPNWY+oifeyMqHzrHb9ktaV+iCsY5ClM8twnG2bNiGHv74NWxZF7vTJl6xzhau4gGs4wSta3YPnkpljH3HwUfwX7Pf9zK25klVU1R9+5JvCsNMfbUvmhZV8Wfq4caUsr9MgM63WJ+UT0VtXHw/Hr1Aw2wJ1uTj/jb16Ka3RkymbTgD+vqGBczongZU8oWyfZl/mgtjqJEbUe2vVmNZczNnEEezLHbRqBpNxb1KK8+fzQUteF7ap8tMFehFvfNNolE7ZmplKg2nXTjjnHOrryKP/sHZ8FqhYmqqD00nGwNl5KtQT/aGH/e9BPe8Y3fFpbtfUp/t6c41NZXUSv3nxQVtan+/qPljS6Bojb8nY3Yny9q9+BGidrfGjKyuBFpPwWw89QebuWx40Sv/pSIfr9D6Xccn19q7V8bR5Z1TpRS8/kb+Xl3lYGdbzBP+TDl5G5TqvtZRVRB+mFPJQal34Djpx60C13IxYY/Ms2hLtvKuuNbv3SkQ9r6oyV+EbU6ABaXCRG1SjqfHnPsxAIcTruw/8kjPhhEKtmMmRowsslMRhfL81kw6FLUahBfEbXq6tRqAC45m3x8yLE1c5jnvB33s/d4H5U/xZoywmEeo+rl/Zw/uhS1GsxR0+0HeiNqlSuvP6gRtQeGZP3yRTElz7dK5rGRKBQ/feWxnpai/PAIcjRYQrFZ/hwd8sU3RA0iEUcTuf8kWZ3jeO+fImqjEzPuF8W0E7V7Y12Phcr/g4919citUzF/tBWRccRL3SLOk1MdyLMT/hyzkrT/FsPd9AbzQweQ5VwDgtploP/UHihaXufPqIONtPUncVd+RO+rC2pQdswVBux9zNwUKM0k2w90EET9NaEgJPgeN55exf/6f8zz3IIvdXAetJlOUXsKRdRqFb7v60NFQUjQXW5ev4L/ka3Mm/0nfmENWe23nY5R21FE1MadP/6zMK40ieAvtmd8YrdNZlqurah2pbbykuvs7ql+X7H6AbUUtT6TKVZ9JmlGH+VSkr3NIfcfrW4uGjT+vu4/GgB5MB+TZbN48dXqB78wvd8xRkU9wNVW5MXefvDpKg4r6zLmQQHGdj/AlIKxXu7Q1r6WK7XcnEw+Z1f62jij2DyQjJ0OMvSDPSW2GLClY0Z6Lf6L5mqrPWgo4jVAHl8Tb7vi1LQ3YPzxS9iWi6+17v8uolb3TPXUooIrHg0offA83dreYmVp5elBceypvXtuKnYXnlC9xkK6543atxDH9gMNZh7vTTl6D9DX9tQaMrGPNxP0dU/tndkUWzmP0C/21AazaV0hOuv9ntqvBVHBlfk1MR7rS9dtQThaKvMnrj21O22ZuPMJZoOW061sVP7Esf1Ak/zRcPvB1/fUGupmT6oGvkY0ebaB5nl7sMd8KYEuPYh6v46wC8ysXJ7J59Tvqf158il8RkdvRNZgNC1F7ZP1WOfvxX4rJ+5t7YBOD/dT663cfzQIYrxN4r1/frP3n6+gebaKWgsmcLKUM6/aWcYod/ee7Zt+p/VFExYNdaVvFmV/bUWnmhfFPtybT60Vs/DNOgyvfqMxjfneirb2491Ta8C4nmeZHFXO59VfWM4ZSc5mS/i4y4N2E5ZgGbqNVjP20771z3Tb+oo/J6ykWdThgNr6E28GxtfgGetb5qfXbgtW391OR5WTM+Prq5u/i6jVDUf9sRJygFFr53M6e3fWt2hJnug9tCEcd6lFrZMvGNLlMnOKKP8Q4kpX+25s+LElW/ouonl09QM/Jq9oxLQnFVg6dCe9v6h+oGZPrQYU4r0pKy/Cs4a1md1rHf1yRpZv+Fz9wJLNY5xp+UX1g6gXscxZN3YDfyS0glc8c4jX/3f/0XaWDf/Gqn7w/rEzrVZMwO1DWZ29KBbs60hPm/mcUeiw+sErN0a3sOd0yb6sW9CaPNEbo0M4Pq4Sdec9Y9D+u9jXUObP6110/701GzN1YJPnCppHVz/wZUr9Gsw4W5XFV/fTK/pLSPKIWv+sDZh5cAt9iynzJ7r6QQs23N5Iyy9q7b5mc7vsdN3ehLUP/6GdBkc8vvF24I+uc/GhIqPWbWJoBXXVJ27j2LAMQw5lp+kcZ+w7VSD7xzscWmzHpH8OcO5GrJJewXvpa2TNmpyDcD80G7OoItEfA1ndvia2x6sy33cz7b44AExb/2+wsGZJRp+34s8rW2mbXYOLV5Mmcv/5bu4/mqRDkrdR+DBujiVzQuqyov+fdM8aqeY+PFlDy+VjcEs/EK+RE6gQ9TmorchTW9LrPT57G2LmeYUKtffhUa/0ZzGtrf33e+g2uyt/fbX6QWu2j1lC1BoCeDF8ejPOFGnDy0dF2DRoMMU4wwT74QQV+oVVd2pxduhwSkWB19afxAbs8UZaGHXH1Xg2l44MjlE6NLGGNe8volZzVqmk5TN2b6lPs3OPyJ+nCU3z5+MXg/c8feLJtuuXeJNtMEf6jqNC9DHvqnVqrYtV5fd0L/G7tktZp/YfPCyrfFmn9raGovbxbqb4+PJRSS+qTm2RQr1okSOq3lgBmpp3omKMuno3S/yB2e1TvC8UXkfwaYw6tXs41sAkxjfyz2G5cawZZd28yJLLGuu8WZUF5bNgUXskjTQQKWoDrK3/X9SpLU/OsFscup6O0rkPszlAd3tqj476HxaLn0S4rbs6tU/ZbVOdlmvvka9aS6wq5+eXNCE8u3qYf3f588Z4DB4ek6gQ/aUhlCsx6tQ2Da9Ta/gS/73/RNapHenKwalq6tS6q3lRTF0AAnYwdd3pz/mjrFNrZDmQZiWjSjP8TtPR3YjQlMrDFwL/6EG1I8cJsahL4R8fx6hT64nnhHJq8+fmioaYDD7Eb5XbYl0hmzJ/smI+bByN1OwE0JR/iP8imjQYxbEXn9/SzFxnHmMLjmeUc6wXxfjEzXXtqNF7Fy/zV6VF4wrkSveGgMM72X3+HeVH78J1shlfaPLwqWvp/4ONbSjTfSd5+7tx1KF2jDfBE3Ork/vP93L/4cxUSlabzg3yMWj/BexrRNePTEwCad33nl9favzzL3cMS2BdvBr5CeTwpQOc+5iXbm3cWFk6xjdAbUXe1w5f+ODDuCVWzHlpypy+OxiSS7lcq619Qrnk2YYae5V1aotViqhDf0JZp7ZBwz1sNzOKcTjKI1auLMu4x5n5WGQeTyJWp5+zbk1pxtxPT9Dv83nevunnigxa+6M1/hgdXnJwWHUaL3tAs7Xn2dwuV9zGkih/RNQmJob62vfDLfZ4LmDxuWOcfX6XJ4qfyP9rYUwKtWN4nY6YZY5WtFFSk4ALK5jrFXmiWFDaXBTPVoGmcZ0opqmoVe7ZffeVF18iVmEVtXAeHVk8Ouptzavl/+GC8RUm7HPC5dF9PqYvRePyw5mqcqJYrAB8uoPbgSlM9zvK2dfPI16QC1MUUj1RRtuYaet/uP2oE8XO7OXM23Tky2mOjYUdJXwr0uis7kTt65Nz+aPbHE7p+kSxdzfZs3wuSzZ74Bdwi6cffyFf4aIY1+3IsOHdMMsbO3/ecd11aeSJYt5XeW6Yl6KlqtA0/ESxZl85UUxTURvPi1PhuBUKC1bd2UGn8NVGpagN6O+Gf+vL2E1yZLfPbT7mMKZR13FMUTlRLFYyfLiNm/14Zmz0wP/G04gX5BSK4hFfykYpXyaO2ePVsVm06TGPM1RgxJrNjKr6uUBQ7DT78MAHl12HuPQUshY1o6lVVc6NyIT1qvJxnijmdiqA5+lyUrh0dZr3GECfFmX57WsHoGnpP59usNK6KoMOpMNi6lZWD6tGjthvc2t7vUQsk8n953u4/wQsqkWZ0d4oTKbid3wExVLgSNTI9PzA7SurmXX0b3bfv04QWSmRz4IuNYfRp0hu1dPytBV5cZwo9ua6HZXWruBe3sn49LbBKPyplrb2I/x/y+XwE8W8/mP/o0CCyESRXHVoG3GimNHnE8WU16LHdiMannmNSa3DnKxXLOK34S/F1fF+TKma7pwxj16nTaA/CbjoPz3h+LwetLbdR1j9xRzb3otC8dxLkip/RNQmIH7SJQkJKG8KF0w3E9RC15WbVU8H++osMpszvFoVErq4m4R0xHR8BJSi9qLNbp4uUF8rOT4TyfV3twG/0Gx1ZRYFHKD3F3vEk8mLoGNMbtWamcdfkKvSH3QfOY7xVoVj1NNNJj/0ZRi5/2gYiSestc6PzV5DrJyusrVD9G5xDftLs2+DwCeu75rBzDlObPR+SOZqY9n6z0TMovYwf3WSSZc/Imq/jcz6dmYRxzfdxE8y8oCGwffjXlIIyzOdWzY90Obd88T7JhZ0QkApatWV9NKJfZ0Zuc3SekUZ7tOF/56soFHsxW+djaOBoZBb7Fk0mYnzN+HfYCMv17YgZR4ka+BrUjeR+49mhIO30yVPO/7O1BOXS0sw18VhhpqNLK30isB7/u2aifZ7y/LHsClMHNSQgprcPJIwf0TU6lWCiDNxPb4ROkIgXgJ6KWpf4eU0lz2BSu8VHwg658ZGt8vk7ufKiXl1VU4+i3eOSdQgLPgevjfBpHTe736lVl1x/iTCnirNfjw4jAKNl5HL9gQ+403UHpSSKicmTmtJ4BP3zp+F303JqzwSXhMDSZk/Imo1iYC0ST4CSbpSknzTSLUjBQZCt26wZg0UKACp7d+eU6lpPp0LHZx45tRB9/4nKLCRFR8GHox8QqAw+IlcRctQo9UwJg1tSmFZ5UoQ1STpJPcfjbD6TCpF9bn5WXrFjR7ySEsjZtLoM4GkzB8RtZJpQkAIRBI4fBgmT4aJE+W/6jgcPCiZIgSEgBAQAnpMQEStHgdHXBMCyUqgbt3Uu0KbHCvK4SvX8iMEhIAQEAJ6S0BErd6GRhwTAkJACAgBISAEhIAQ0JSAiFpNSUk7ISAEhIAQEAJCQAgIAb0lIKJWb0MjjgkBISAEhIAQEAJCQAhoSkBEraakpJ0QEAJCQAgIASEgBISA3hIQUau3oRHHhIAQEAJCQAgIASEgBDQlIKJWU1LSTggIASEgBISAEBACQkBvCYio1dvQiGNCQAgIASEgBISAEBACmhIQUaspKWknBISAEBACQkAICAEhoLcERNTqbWjEMSEgBISAEBACQkAICAFNCYio1ZSUtBMCQkAICAEhIASEgBDQWwIiavU2NOKYEBACQkAICAEhIASEgKYERNRqSkraCQEhEDeBIE9mD5yGh0FdbBePwuw3ASYEhIAQEAJCIPkIiKhNPtYykhD4pgkEb+tCto5bIubYdsNT1rbI+E3PVyYnBISAEBAC+kVARK1+xeMr3hygt20H1mTozeFxU6nGSUbOaMqCd23ZNXURDVPFHO7j6GjKwHv64rM2/nwL/JMhSQK30tV6EHtpxJJdzrTMr8sx7+FoUZghR7qyPcQxleR8Yuavb/PVN38Sw1b6CgEh8K0SEFGbKiLrTh/b9jhn6MORcVOoijejZlgx/107XKYupEGqmIM2IjI5JqSNP98C/+RgmpRjfG+iSt/mq2/+JGWuiW0hIARSKwERtakicp4MmdKSpekHc3LUOMrhx0R7C2aEdOWA3WxqpYo5aCMik2NC2vjzLfBPDqZJOcb3Jqr0bb765k9S5prYFgJCILUSEFGbKiLni619Q2alH8+FQYMoSgBzF5kxNmQgXqMmUOGLOYRw/eJK5h7/j30PbvA8bS6KZSuPVZXB9C9TjEwGsTu85Yr/Muac2MGBR4E8U2SmSK5atKk6mMFlivBTzOZPV1BjoR3nTDZyxeQyY/atY+/TF2TKbEz9cqOwrVqB7GmiOkT6bf/miwFVHGja9DJbK2SO8bv33Lq8mjnH/mHvg5s85TeK5zGng9kQ+hTLy4/J7o+2/CMdfH3Sgfbd7PFWVGTk2k2MqPyLbrLt0yOOO8/BYZ07flcDuBucgbxFSlLV2oYxw9pROlPsYd5xY88yHJZvYd+pazz/IS9FS1fCqvcI+lmXiJUPD1ltWZABR3qy63pb/EbZ4rTvHI/T5aN8486MsR1E3bw/xBggUuwMPaoa46bO9/n7DzVvit1cSs0Sw7lg48LVDjeZOHEZLj63+ZC9LI27jGPy0Pp8Nn8au+JmzAmMJ3++NpbGtLXhE240mCs7FuHguBX3Mzd4pshKofL1aNNvJIOsjFSvl+j57uJiqwuMs3Ni74UgMhUuT/0u4xnfszLZ00Y5mtD5vidw33LmLt3EPp8AnpKNopUa0WHACHrXy6d6vSSLPxqDl4ZCQAgIAZ0SEFGrU5xJZewa9gurMz79TG716U5eHrJipTED3o3h3OChFFcZNpQrx9tTc89hggxL0rRYFX5P+xL/ABc8XodhUmUrHpZV+Tm6z0cuHm1LzX3HeJ2hLM2LViSPwSNOXnXF+21GLBq6ssOsKOmi2keJWqMWNLjnR0jhmhRO+xivK3vweWdApdr7OVSvFJGy5zY79izn0PtIIXDu8t8cDi6MVflaFIjhcwkTW3oXjJLO8NHjPwAAIABJREFUoVw/2YXqLgd4+UsFWhQ2ISdPOXPdBc/Xv9Lc2o1NFQoQrQOS3J9wR7Xh/3linqMLUH/R44hf5Bi0n8DZ1XWQIJ+4uMCcamO8yFC6CS3rFCOLYShBV9zZuus86SyWc2xnNwpGjxTKlVUtqDNwH0FZjbGyrk7BH19wbt82Dt1QUHaEKwenmcXIhyhR24RWlifwf92IeiUy8vysG9s8b/HJqB97POdRK1o4v+DYqnnsvRM5YMjF7SzefY14RW3zzjQ+dYpX5nUwMnzCKZf/OHkvjLITjuI5obxSiAWyY/IijryKzB//7Ws5eq8ETfrXVcmf4m2m0KtyQl9K05bPRy4ts6b2sIO8zlmeZlZVyG3wEO/d/3HqfibMFxxiu02xz9dLlIhs1h4Lb1/eWdSh8I8P8dqxnTOP0lBxihcHR5VRXi8JmW8oN/5sR40+LrwqUI0WFuXIbvCUM3u3cTzwN5o5HWFDh4Kfr5ck90cHKS4mhIAQEAIJJCCiNoHgkrfbAxxXmDDQcBFPurYlM2/YtK4wnd9O44ZNL1Tex3nvStfZ3dhg2IqtNgtplkkpRz/4M3VlQ6Y8Ks+SYbvoE7WIFrKbLvbd2WjYlu3952P5c6RcDAveT7+lHXEKacl/o5fRxFA5Y6WIPGVYi/m91tE3Z/qIP4S+2EbnZf3Y+qEdLrYLaRCtOqNIafi4/8N+etl3ZN3P/ThiM5HKkeYhxIdxjlbMCW7HnpHzMY9ark1qfyIG14J/jMQI9l1Ojz4L8MWUISuc6GuaUOEVM9uu4VC1DONvdeG/aytoFP3t5C3ejmNxPpuN5pNtaZBT2efNLroXbM3GzB3ZfNSRZrmV+RB8lmkW1Zl2ugqLrh2gd3QSKUWtuyFVJnqwe2w5IrxWvMB9eA0sl13HfOk1XHrkVXsJPN/Uljzdd8Yras9kqY+9+xb6lcgQmW9P3Rhg1gznh83ZELiJljEX7iNaJNHjb235vN5Jt9/bsOm3rmw7thTLHMrr5ekeBpg1x/lZB/655USTqLgoReSZLBbM9diCTTHl9XJvK12rduKfN93Y8Wg5DWIufmsz3+A99DFqzvq8w/E4OJ3ohwGvTzK+bh0cHnTH5eoSzKO+Mya1P8l7Y5TRhIAQEAIqBETUfmsJcWsaBZ0Wk6bKLm5YVlKZ3b0L9ky/9JiqVefSKUqTBE6n0OpFoKa9125jap6AsT39mBK1tKoUkSeMlvCsc2t+jR4hFNethbD2L8n8wW4MyBYbrIai9vYsjFbNJ0vtI5ysV0zFyEX3uhgfesPEPt5MyKcqspPMH73Lj8vYVzTB7lFvdl9dRL0o0f81P73tKFzTHoPhHgRMr6qaD67TmOn6hMp9FtKpTNSfokRtXZbfdKVb7hhd/GZQpvIU7vXZRdDC+okStd7N1vJkcztibsjwGl+EOg4/MsHrIhNMY5tPIlGrLZ9TEylSYzao4RnpP4w+GsDkikr/lSLS23oNj//+Q/V66ZeNFs5lcbh0hP6/J3C+p6dQ3GwGmaf5cmJECRUjl+ZWwXTCa2xPXGC8STL5o3fXizgkBITA90RARO23Fu2rY8m83pky9Y5xtHaR+Gd3bRxZ1jlRSk37q4caUsr9KgM732CekaqIPGeyiRct66rYP+5Sllonf2Za3+OMzpNAUav0J2vBbrTL/XmTRLi11w/+ZemtF8nrT/wEk7nFR/zta1HN7gyZTFrwh3V1jIsZUbyMKWWLZMMw9vZTj+FkbbSUUrPPcWRwVBDjcjlK1HZk25vVWEbvOwGCPJhjt41A024s6lGe6K3TMcxpulIbvqf22QJzFUeuLaxJmdEX6L/nGQ51EijytI2GtnwODSdbw6WUVMMz0v+L9Hd7ikNtVRGpbr7HxxWm7rxfmeLjy6jSCZyv0p9sDfrRxlj1ennjt4Vle58mrz/a8pf2QkAICAEdEhBRq0OYemFKW1EbR/tIUXuZAZ1uMb9oMolapT/vDNS/HBSmSJ+8/uhFUGM58fEhx9bMYZ7zdtzP3uO9klXGYk0Z4TCPUfXyfhac2oo24hC1GrD45kVtHDzVivIYL8bFFvE6EbVKf95+5XpRKH5S/ZKQ1P5okCPSRAgIASGQVARE1CYV2ZSyq62o1dOV2iqNfHGt9sVy75dUo6sxJNHKcUrFUaNxFYQE3eXm9Sv4H9nKvNl/4hfWkNV+2+kYtb1ERG3cJLXlo6crtZWXXGd3T/X7nFUAiKjV6MqSRkJACKROAiJqU2fcvu51HHtq756bit2FJ1SvsZDueZUrofHuqTVgXM+zTI61pzbJth8o99T+UusgZ8xLxR+d71rUxsSj4Mr8mhiP9aXrtiAcLZVv0sW1Z3SnLRN3PsFs0HK6lY1aGU+eldqv76k1VN0DGj3FFNhTq45PvHtqDRjjeY1JUXX2klpEKvfU/jz5FD6jozdGf/26SWp/4r9ipYUQEAJCIMkIiKhNMrQpZDjEla723djwY0u29F1E8+jqB35MXtGIaU8qsHToTnpHVT94v4dus7vy11erH7Rm+5glRGkkEiwilRUbrpmzbuwG/lApfhuD1Qd3+ti3x/mn3hzqOwWzDEqx9ek2q9Y3ZPzdSiwcspY/orYPJrU/iQhjsK8jPW3mc0ahw+oHr9wY3cKe0yX7sm5Ba/JEb2wN4fi4StSd94xB++9iX0PJ7fUuuv/emo2ZOrDJcwXNo6sf+DKlfg1mnK3K4qv76RX14l0ybT/wz9qAmQe30LdYZFmNz9UPWrDh9kZaflFr9zWb22Wn6/YmrH34D+2+qI6QwEBpy+eNCz0KtmLD16ofPO/EtpursIwqdJFgEanhfIP30tfImjU5B+F+aDZmUUWoPwayun1NbI9XZb7vZtrlUPJJan8SGAbpJgSEgBDQBQERtbqgqFc2VOvUWheryu/pXuJ3bZeyTu0/eFhWiVGXNJRLnm2osVdZp7ZYpYg6uCeUdWobNNzDdjOjL+vUav2iGNw41oyybl5kyWWNdd6sSptZsKg9kkbRIuUTN7y7UH3Xfl78XJ4WRcqRJ+1rAm65setZCBWrbmZP46pEa54Ei1pN/Ul4cI+O+h8Wi59EGNBdndqn7LapTsu198hXrSVWlfPzS5oQnl09zL+7/HljPAYPj0lUiP7SoFqHtWl4nVrDl/jv/SeyTu1IVw5OVVOn1l3Ni2LqUATsYOq603xU/i2qTq2R5UCalYwqzfA7TUd3o0K40FOKqsA/elDtyHFCLOpS+MfHMerUeuI5oZzqgQFRemxFQ0wGH+K3ym2xrpBNmT9ZMR82jkYaPHlXH0lt+YRyeXlTag1V1qltWpU8POCksk5t/UWH+K+3mjq1al6Mi3tPLdzUaL6fuLmuHTV67+Jl/qq0aFyBXOneEHB4J7vPv6P86F24Tjb7fL0kWNRq6k8MymemUrLadG6Qj0H7L2BfI6ouYMKvKekpBISAEIiLgIjabzI/Qgi4sIK5XpEnigWlzUXxbBVoGseJYpfDTxTz+o/9jwIJIhNFctWhbcSJYrFOSEqEiOTTHdwOTGG631HOvn7OBwMDwhSF1FRL+HyimNuDmzxPk50i2arQvFIfbIxL81vMd8iSxZ+EJcnrk3P5o9scTun6RLF3N9mzfC5LNnvgF3CLpx9/IV/hohjX7ciw4d0wy6ty5hrwjuuuSyNPFPO+ynPDvBQtVYWm4SeKNfvKiWKaitp4XlQKJ6dQWLDqzg46Zf8sagP6u+Hf+jJ2kxzZ7XObjzmMadR1HFNUThSLxf3DbdzsxzNjowf+N55GvCCnUBT/SvUAbWKmDZ9wu8Fc2b6IuY5b2H/mBs/5jULl69O270gGNS36lRPFvqz2EJ+oReP5fj5RzO1UAM/T5aRw6eo07zGAPi3Kql4viRC1mvsTyT5gUS3KjPZGYTIVv+MjKBb3wXDaBEzaCgEhIATUEhBRK4khBIRA8hFQiqqLNrt5uqCejsdVPd3sq8bzN2BYLzN0tYNBx5P4Rsw9Ya11fmz2GmLldJWtHaJOA/lGpifTEAJCQC8JiKjVy7CIU0LgGyUQx0ph4mcc+TLZ0KNxLwkqaszn+j4bErxjIfGOfvsWgrfTJU87/s7UE5dLSzDXxWF63z41maEQEAKJJCCiNpEApbsQEAJaEEhSUauFH9I0SQl8PDiMAo2Xkcv2BD7jTdQe1JGkDohxISAEvksCImq/y7DLpFMtgcBA6NYN1qyBAgUgtf3bcyo1zadzoYMTz5w6pD7/Uxvv5PZXeWH5TCpF9bn5WXrFjR6yJJ5qbzfiuBBIbQRE1Ka2iIm/3y+Bw4dh8mSYOFH+Kxz0Lw8OHvx+r02ZuRAQAnpBQEStXoRBnBACGhCoWzf1rtAm94qhjJf8K/rhTw7kRwgIASGQggRE1KYgfBlaCAgBISAEhIAQEAJCQDcERNTqhqNYEQJCQAgIASEgBISAEEhBAiJqUxC+DC0EhIAQEAJCQAgIASGgGwIianXDUawIASEgBISAEBACQkAIpCABEbUpCF+GFgJCQAgIASEgBISAENANARG1uuEoVoSAEBACQkAICAEhIARSkICI2hSEL0MLASEgBISAEBACQkAI6IaAiFrdcBQrQkAICAEhIASEgBAQAilIQERtCsKXoYWAEBACQkAICAEhIAR0Q0BErW44ihUhIASEgBAQAkJACAiBFCQgojYF4cvQ+kJAwcsrB3HzvMDNey8p0d4W6yL64pv4IQSEgBAQAkJACGhCQEStJpSkzTdM4A2nHNrSeqI7jz4ZoFD8RP89z3Co8w1PWaYmBISAEBACQuAbJCCi9hsMqkxJCwJ3V1G/6ECOlbRh0wZbGhhlJX0aLfpLUyEgBISAEBACQkAvCBicP39eoc6TUqVK6YWD2jjx4MEDcufOrU2XVNL2AL1tO7AmQ28Oj5tKNU4yckZTFrxry66pi2io97PQY/+PjCSnxWL+N8WHU6NK6z1JcVAICAEhIASEgBBQT0DtSu2FCxcQUatPKeNOH9v2OGfow5FxU6iKN6NmWDH/XTtcpi6kgT65qtYXPfbf247CNe351e4kvuOM9Z6kOCgEhIAQEAJCQAiIqE3FOeDJkCktWZp+MCdHjaMcfky0t2BGSFcO2M2mlt7PTI/9v+xARZPxPBq0n9v2NfSepDgoBISAEBACQkAIiKhNxTngi619Q2alH8+FQYMoSgBzF5kxNmQgXqMmUOGLmb0l4NI6Fp34F49H17kflhWjbBVoWmUIA8oU5VeDGB2erqDGQjvOmWzieoVAbPeuwuXhfd5nKIllueFMqV2PfGkT0T6iq7b+R473+qQD7bvZ462oyMi1mxhR+Rfdx/DeaiwKD8Cz6zbeOFoi22l1j1gsCgEhIASEgBBIDgKy/SA5KCd6jGvYL6zO+PQzudWnO3l5yIqVxgx4N4Zzg4dSXMX+By4e64i522GCf6lCsyJlyWEQxLkAF9xfKahUaycHzU0wjOoTJWqLtsHy/mle/14To7TPOHVtN17BCkyqu3KsgSk/JrR9RD9t/P88Gc/RBai/6HHEL3IM2k/g7OqJJvmFgXurqF94IN49t/NiSUNi6n3dDyYWhYAQEAJCQAgIgaQiIKI2qcjq1O4DHFeYMNBwEU+6tiUzb9i0rjCd307jhk0v8sccK/Q4YxbZsOWnjmzpPooKUWr0wxkmLGvE7OfWbB23kmZRqlYpak8Z1sSh53r650ofYS0s+AD9lnbAKbgxm8asoVUG5SDato/opoX/MeYS7LucHn0W4IspQ1Y40dc0ow6phvH+1QN8HXvR0O4kjf68xKa2OXRoX0wJASEgBISAEBACyUlARG1y0k7hsY7sKE49n1zMGnCI4TlVReoJo6UEdW5FzAf8XruNqXniR+z6nMI2XwLbp/CcvxjeYzhZGy3lrUHkmqwiY2k6TVvC7D6VySLLtPoWLfFHCAgBISAEhIDGBKJLesWsdiDVDzTmp58NFa+4dHUfRx/c4v7bED4pvbx305n1D3Mxre9xRudRFanhe2pftKyrMp+rhxpSyv0yAzrdYn7RBLbXN0IBO5i67jQfCSPk1R28d27jfPbebNo5j/pRQl/ffBZ/hIAQEAJCQAgIgXgJyEptvIhSWYPQSyxd24phgU9BuRoZcwZhikLft6iNFc5Qn0mUrT6LHyZ44TfBNJUFW9wVAkJACAgBISAEogiIqP3GcuGOVyuMXI9TttwK1lnUp2jG9NFv9B93KUutkz+LqI0Z84drsSxog3vnrQSvtCJmoYdvLDVkOkJACAgBISAEvmkCX4ja4OBgbt26RYkSJUiTJnUVOPp2TxTTNAcV7Nv2O5ZnS7JoqCt9s8Ts94kD24rS6GxOtaL263tqDZnYx5sJGu+pjdVeU9dTqt3NpdQsMZwLNi48W2CeUl7IuEJACAgBISAEhEAiCaiI2nBBe/fuXbJly0bWrFkTaTr5u4uohdN7K1PF8wVtWxxlvWmO6BJV7x7/RY+149n6Oq9aUXvWsDaze62jX87Isgifqx9YsnmMMy1jVT/QuH0i0iDY15GeNvM5o0iK6gdKx/xmUKbyFEJHH+XS5IqJ8Fa6CgEhIASEgBAQAilJIFrURgnafPnykTGjLksnJd/0RNTCx8dOWDqOwyM0CxWLNKTqbxl49+IsboE/06BwIKsvplUram+W+AOz26d4X6gmhdM+jVGndg/HGph8UadW4/aJCP/RUf/DYvGTCAtJVqfWczR5zBfyv2m+nBhRIhHeSlchIASEgBAQAkIgJQlEiNpvQdCGQxRRG7HGStC9f5jjvhbX+1e4E5oJo7wW9Ko7EpNLjal6TL2ovVr+Hy4YX2HCPidcHt3nY/pSNC4/nKlfOVFM4/aJyO7XJ+fyR7c5nErKE8V8JlOs+kyCu23j8nJLfk6Ev9JVCAgBISAEhIAQSDkCBm/evFGEbzlIzSu0UfhE1CYgkZSHKVww3UxQizrxG9C2ffwWU7bFh7NMq16Daf4ZKGnZGvMSuTDraot1kZR1S0YXAkJACAgBISAEtCNgcPnyZcW3IGhlpVa7wEe3jjomV02dWrUWtW2fQLeSs1voI2/WOcxl7T4fLge8otOupzhooO+T00cZSwgIASEgBISAEIibQMRKbWrdQxt7arJSm4B011akats+AS5JFyEgBISAEBACQkAIaEtAbZ1abY3oS3sRtQmIhLYiVdv2CXBJuggBISAEhIAQEAJCQFsCImq1JSbthYAQEAJCQAgIASEgBPSOgIhavQuJOCQEhIAQEAJCQAgIASGgLQERtdoSk/ZCQAgIASEgBISAEBACekdARK3ehUQcEgJCQAgIASEgBISAENCWgIhabYlJeyEgBISAEBACQkAICAG9I2AQ+uGZQu+8SqBDj5++J0c2wwT2Tvluqd3/lCcoHggBISAEhIAQEALfKwERtXoUeRG1ehQMcUUICAEhIASEgBBIVQRE1OpRuETU6lEwxBUhIASEgBAQAkIgVREQUatH4RJRq0fBEFeEgBAQAkJACAiBVEVARK0ehUtErR4FQ1wRAkJACAgBISAEUhUBEbV6FC4RtXoUDHFFCAgBISAEhIAQSFUEdCZqg739eH34JB8C70UA+LFAXn6pVZmMlYyTDUhqF4Wp3f9kC7QMJASEgBAQAkJACAiBWAQSL2oVCh4vXkewj79auBkrlCXHwM5gYJDk8FO7KEzt/id5gGUAISAEhIAQEAJCQAh8hUCiRe2LXQd5vnV3tPnf1zlE/P/NzsOjf/dba0syW9VN8iCkdlGY2v1P8gDLAEJACAgBISAEhIAQSCpRe3fcHD7efRinqP0hXy7yzRiZ5EFI7aIwtfuf5AGWAYSAEBACQkAICAEhkFSi9laP0Sg+hsYpag1+SEdBp9lJHoTULgpTu/9fC7BCcYi+U/uyNkMnPEaMpQpnGD23I4veNWO77QwaJsPWlIQmnyJ4G80dJuBW1IEXbRuRXo99/Rb5JzRumvZTPN1Ci9+HsK/1Sp45WabK+Go6V2knBISAEPjWCSR6+8GdwVMIff4yTlGb7rdM5F9ol+QsU7soTO3+f11UHabfVBvWZOjMoRFjqIwvY+Z2YOG75uywnU4DPRaK34aoTb38k/qmIaI2qQmLfSEgBIRA8hFItKh9vGQd4ZUP4vrJWMmEHAM6JfmsUrsoTO3+f13UejF8VneWpe+N15AhmHCByQtaMyvkD/aOsaWWiNokvTYUitTLP0nBACJqk5qw2BcCQkAIJB+BRIva9wG3uD91CSgUEV5/8aKYgQF57AZhWPh/ST6r1C4KU7v/Xxe1/kyc3xb79EM517cXRbjJvOWWjA/pybGhwygfQ9Qqnv1JraWzuGC8kqumd5h4YD27Hz3kffqiNDbpz6SaNciXVrWShkLxjutX/mbJKRcOPb7F/bAsFMlqjFUlG/qXKsSvsUSzQhHCjcvrmHfSlf0Pb/E8bU6KZi1Lk4q96Ve6CJli+hPH9oPHF8di9s92QovO5XjbxuRW9tPen6d4HV/AFJ+DnHoLeXPUxKbeSIr6mdPErxgLB26iz2+f56xQvOf21fXMPeHCvoeBPCUzxXLXon3V3vQukpsfv5iv5vxjxvC191I69lzMKYUJw51WMbzSL4m+hhU3V1OnrB0Xe2/kUrvbTJ7qzO7Td/mQrRSNOg9h4qDa5P0hdnzfcmP/Rpau/pdD/jd48DErhUqWw6rXIPpZFVET33fc3OfM/BU72O8TwPMf8mBUypQmPQfQ16qoanzj2H7w2HU4NdpuIrSlI55rrGLEV0t/wp7gtWIOU53cOH0P8pqY03vSOIy2VMF6ZWnmX/yP3vlV43vnwBocHP9l/+kbPCULRhXNad+vP71q5/kivtoE5TP/Dfi3uILt5L/Yd/EFmQoZY955GGO7lSP7F9eXZvNVKELZafM/2h8bwEb7EOYP3sqDIp1ZuaEbb2bZMOTv2+RsOIyV8ztQ8qfkma82bKStEBACqZ9AokVtOIKgTbt4ueeQWlGb2aoev7VunCykUrsoTO3+f13U3sBhmSUT0k/gevf25OEJq9fUYuC7wZzt14fi6kRtEWsaP/TjdYGqFEn3HJ+A/ZwIVmBcdRNHzMtgGC0gP3LphA0N9h8n+JcKNC1cghy84Nz1fXi8horV17O/TunovZLhH7xXvftQZ+9xggyLYWVUnoLpXnHu+n4OvQ7DuLITBywq8EuU/a+I2rAXu/hj5Sh2pGvOjj7TaZAx8kNaodDWnzCue3Wm/IHTvM9QgmZFypH30y0O3kqPae5jbLyuKmrD/b/h059ae47w8mdjmhcqQw6C8L2xj2NvfqGZ5d9sKJePtDGZKjTnHzOGnuNMaLjkScSvcgz4hxszqib6Oo4WVdZtaXTal1d1a1DE8Ck+rrvxvhdGmbEuHB5rrBLfy05daTjUg7cFq9G0QWmyGQRxfp8Lh25Aebv/2DeirEp8rzl3od4QD4KylqaJVRUKGD7n3L7dHLmpoMywTeyfVPlzfL8iasPu/UeH6v3ZmbE9/x6ZQ4Msn+OrnT9hXF/ZmkojvHifoyzWTSqR5+MNPNwzYFreg027VEVteHxv/tWT2v328Sp/JZpZGJPd4Cm+e13wupMJ65UurG+XXyW+2gQlmn/TFtT3Oc878xoU+vERJ3a54vsoDeUn7cV9WHF+iHF9aTrfaFF7qBxWtUuSP+wCf2/25X+NW5D/1yxkuevKWs/H1F9yku1dciuvl6SdrzZspK0QEAKpn4BORO3HJ8+4O3yGWhr/WzqFtL9kTBZSqV0Upnb/vy5qH7HKuTaDfpzBw47NyEQwf2+sSNd347jWoyP51Yja04ZVmdN1Gf1ypo8w+yn4EANX9MX5bT02DF9MywxKkRHqzbhlw/knYxs2dxpA+R+Vv//gh93Kdsx50YjNIx1oZqj8/fsD9Jg3kI2GVmzuOYNmv6aL/HD9cIHpzm2Z9tiYxQP/opdyZVTdnlpFWCAr/2zJ4LvZGNJhK7MKfV7BVGjrzycvhs7tjqOiDs42C2mf+YcIf94+WE2LPxdw6ENplZVaxQcPbOb3Y33Gbnj0HEnl9Mp5hfgyYXVHHN42x2XIVMyVHCKFtub8Y8Yw+Kwzvfo5cpayDFq2CBuTnxJ9HUeJKt8stZnl5kTfEhki4/vMncE1OrHmsSXrA1bSInNUHL0Yb9afbdk6sOmfYZSL+vIQ7MtEc0scrjVjw62lNPtZ2f6NG72MurMpcys2eMyjWS5lfIPPMaOxJTPOVGDBpW30yqdsr0bUKkJvsapVQ4Z65GTQ7l3MrP5r9LwVH7T056Mnw43asCKsEau8HGmfVxnfC460bDCDIy/LqazUKoIP0K9kZ/7K048D+8ZT+Reln69PY2thzfyH7dlxYTbmMVY6tQnKZ/51sN/nRJ9ikddX6P0ddK/Rl21v2vPv3Tk0UK6WazPfaFG7sTHr7q2ixS/3WdGoIsOZxpU93cj7cjvt8vfHo9cGHjrUJo2BAUk9X23YSFshIARSPwGdiFp9wZDaRWFq918XeRC1/cC78GyetLeKXlELt33CrRa1vX9gQvf9TFCKkrjGPOJSFYszOZhhs51hOZTi4LYDRdauJk2lDVxrWE6l+71Li5h5+RlVKk+iYx5l+1grtYZ85NzhTtQ8cpFSVf/igHlZMmi4J1itP0HrqbtkBr6ll/Gsee3oFTiF4iUb/qpCz5vGqqL2zgJKrFnBbzV34lXbSMX/i4eaU+5IMLbd9zJeAz66iJe2NqJE1ammS3j4V3PV+NpVoN78Hxl39BjjTeI/rOXImDI0WpqTaT77GVpMGa9TMylWdzEGQ3dwZUpF1fi6zWX2nmdU7jWDDqXVi9rw+J5f0JradmcpMXY7+8eaaB5fdf4EOlOv9AT8uv7J40XmMeL7go3tStLbtZKqqD1jT+laC8g0xYPjQ4up+H9pfgMq2L1hvKcn44zj56MuNtH8rRbzYEOL6K0b4YLUbVAczSmSAAAgAElEQVRRWq0twRx/F/r9Hr/92PyjRe3Wjux4Npt6vGNblyJ0YTmP/2zKTxxmcNb2OLVezUvHRqQLF7VJPF9t81PaCwEhkLoJ6EzUDhsxWS2JeXMnJhuh1C4KU7v/ugh0zD21z6xrqJi8dqQ1ZQ4F0L/9GRyKxNyT94rL1w7h+fAO99+F8EnZ6/6tDfz1KCdTerkyKrdSxARMJdvGjZSqvZsjNQvF63L0Sm3mOgwvVpi0n27gcvogt3IP51i3HpSItf8w3KBCoYU/dxdSytmRtFX+5pxFWRV/9u8wwcqvuKqovT6NHBs2kLXAH7TJpfoEJPjhbpYGvqB/h9M4FI5flMQ7+SRoEHNP7WOH2iojBCy2xHjcFfq5XGNOrRjxDXvJFQ93PC8Ecj/oc3wfHHFmw6m8TDrhwchSyvgetiNnk9WUnOHJoYEaxDdqpbZ4I4ZaFiHtx+vsXuZKYGU7ju7sQ/EYK95Rziq08cd3DmVqzifdaFfOTjBRje+wQjRbVVZV1B6xI5flarJZ9KBVGdWV8eBz21m+L4i+u68yt2bC4hsXfy/bcpgv+FWFZ0Q+azjfBInaJJ5vEqSwmBQCQkCPCehM1OrDHFO7KEzt/usiB7QVtYrQKyz/qwcjbj9TexRzmKKATkTtvlirsYVMnThpWYWMsV/K0tYf5crrD2pE7YEdpl+8KKZQivJ3X1kdDlMYfiH6dREXXdnQVtQqPlzCsV17Ru1/hELNnBUKI52I2v2x49t3C16zqn0ZX239Ua5E/qBG1B4YXuSLF8UUSlH+9ivxVSgyfCH6tYmNtqJWG/4JErVJPF9t2EhbISAEUj8BnYnaixevsubPLXz6FLlOljZtWrp1aUPJkkWTjVJqF4Wp3X9dBFpbUXvHuxvF3U5RxmQua+vVxugnw+hHvF57alDn1M86EbVRhy8Yht1gvnNzxj3Mx+gu25j8v8g9oVE/WvtzfxmmqxcTHGs7RLhAcP3XlJYXSqldqa3cwAOXyrl0gTxZbWgrau+uaUepQccpabOctWPrUeS3GPFVs7IYJQq1XqlVHr5gGBrAgsYWTPAuwMgDe5hUUTW+WvtzbgHlq9kTHGs7RER8BxSmzTpTtSu1lRaeZlf3yJepdPmjrajVZr4JErXKldqkmq8u2YktISAE9J+AzkStPkw1tYvC1O6/LnIg/j21htF7RhWKMPbvKE9T/6IsGLgZG5WyV6G476xCE7/sqqI2jj21dy/MZdLFZ5hVm063vGkipqPuRbH39x2p67SQs1ls8Ow9CNOol2oS4k/wf7R0GIdr/onc6tqWXNFvnV9h1tJmTA5Sv6f25+r/4VO3uC6QJ6uN+PfUGkbvGY2I77CiNF9dinkXttPnfzG3nITiPqI01itzqa7UxrWndtcMJrs8o1r/OXQtq4yvmhfF3p9fTL0aMzlXciiHD47AJOolw4T4E7SVVgUG41bPnuv/dfgc37BLzDarx9Tz6vfU/mTnzqmRJXQeG21Erbb8EyRqlSvZSTVfnQMUg0JACOg1ARG1ehQeEbUQJWr9Dc2Y2W0pfXMYRkToc/UDczYOX0QLZfWDM/sbUM3rBW2sXVhbNlvEG9XhP++ebKXX+un88ya3qqgNOUCP+QPZ+GMTNveaGaP6wXmmOrVjxlMTFg9YH3f1A8V7zhxoSw2vAMrX2Ip77eLRtUO19kdxl5XOjRl87zea1pmNfXljsinuc9jTgUkXvTj3OlZJrw+H6Tc//HS2Trj3GoNZBqU4+3QXp41tsb1vwvwBS2inrBKQmPQOr37Qu78jvgrdVz84l7Uu0/c5YVNUGd/o6gdN+Ov6Cppnioyj7/QaVJ/1nNZr3XFukeNzfAM206fZOLYF/k9V1L52o1fR7mzK1JINh+bHqH7gz7RGTZjlV5GFF/6hZ1zVDxTv8Z1hRa1ZlzGd6MaB4SWi46u1P4q7rGpSg6FHsmI1axGz25uS9dNdDi+ZxZR/D3P+ZqySXsEHGVCyI2tz9GbfATvMMinj+/EOzp2smHiiAg6nVtE2e/LsqdVmvgkStUk838Tkv/QVAkIg9REQUatHMRNR+1nUBhZrSbW7Z3hfsCqF0gXFqFO7mSPmpaPrmH588hdWq6dzKPQ3KhSqS5Xf0hPy8hx7b/+Mxe93cbqcRlXUxqpT29SoQkSdWv/r+5R1ap05YFE+3jq1ig++THDsiMOr0szu9ReDc0aWatLWn/A+IfecsVo/h2MfPwuVTHnHMjazA6POx3pRLLyO6ekB1HI9zIufy9K8sDG507zheqA7LkHvqVB5FbstKqgcMJDQFD86tiyNlj6L6K7rOrW323akqqc3IeY1KfTjkxh1andzeGzZz/ENWEPTGuM5EpKNco0bUqVAet7f9WPvkZ+xsAjEeVM6VVGrCCVmnVqr8Dq16V/gv9clsk7t8M3sn1gp3jq1irdnsK3VlPk3TZl59F8GlVDGV0t/IuLrv5KmTSZx/MXn+GauPZXRBaYxZm2sF8UUodza0IvafffyMn9FmjU0JVe6N1w/7IbrxbeUG7ERF7vKCY6vNiu1EfmsxXwTJGqTeL4JzX3pJwSEQOokIKJWj+ImovazqA0wdca/bAB2Bzaw+/FDPqYvRiOT/kyOdaKYQvGJoPu7cDi0CbeH17kT+itF8tSmZ60BmFz+A7MTqqI2PNzhJ4pdv/yn8kSxQILS5qBY+AlkWp4o9vrGTKr9tY57eUfj3a0LRdIYkBB/wn16/8oP14snuPgGsmWviFVJU87tNsbav2ScJ4rtfRjI8zRZKZy1As3Kd6F32eJk0bDEWHyp/9p7CR16LsEnCU4Uu953C76trjJp8p+4nrnDx+xlaNh5CJMGq54oFsHT/z/m2f/J3tPXuBOSicKVLOg5cggme62pMVtV1EbG9x039joxf8V29p+6wXPD3BiFn0AWfqJYU81PFHt9bAo1Gjpyr/oUvFx6UCTt/9u7D+ioioaN4//wihQLKL0JSu+hl1AkhE4IEJGm0gQiXVroGBDQ0EsoUkT4KIIoJUDoSAepIfTQRSCEolTBkO9ssgnp2U0W2E2enOPxaO6dO/Ob2c2zs3PnGvvXzPqE9O+NI6xfu5uTtyBj/go0bFiW4+4f0XRuyTifKLbh4AXuvpGZj4pWoHHbjnRsUjhR/WtuqDXHPyGhNrS//iXsCWqWbm98Y1y/l4AEkpaAQq0V9adC7YtQe8p+NrcaVbGi3nn1VfH5rTiNj5eI9DCIV18Ly14xLFSd6ryEm+OqW7ZwGyvNp2duXOeVifQwCHOaYNjLeO+86Wy4Gs9ZuRz5un150lvow445ddSxEpCABF6lgELtq9SO51oKtS9C7YmSPxB1n1or6qqXXpXg4D+ZPrcWfW64sHLgGOrGsB/uS6/ES7hAXDOFL+FyVlukoX9n1C1Pv0MtWPHXeOrGsB9ufJUPDr7O7AZl6L0r7vW1wVW+5dzatmRXqI2PVL+XgARsXECh1oo6UKE2eYba4OD77P/jB9bdDRuMT7lz83cWX7pMdvu57HWuFOnJW1Y0ZM2uSnIMtYaHceyf78X6y2Fcz7jrt4UlG86Rze1ndntWSTL9a/aA0AkSkIAELCigUGtBzMQWpVCbXEPtLebOr0aPP0Nn3J6TimzvFqBKkS8ZXt2JfAmYxUvsWHxZ5wfvHotj3YmcaDmZgB+awZWrpPiyG8/nTIMPciXJ/7br0JE5dr703Gd86lmwHVk/KkqV5r0Y1rQo+Xt0T9Ltt2j/vqyBqXIlIIEkIaBQa0XdqFBrRZ2hqlhcwG7Hbuy+9SR4SH/9Ww5mj4PnG1dZfEyqQAlIIGkJKNRaUX8q1FpRZ6gqFhdIUdtFM5JJeEbaojOyMczgh8zk60cCEpBAHAIKtVY0PBRqragzVBUJSEACEpCABGxKQKHWirpLodaKOkNVkYAEJCABCUjApgQUaq2ouxRqragzVBUJSEACEpCABGxKwC44ODjYpmocR2WvX79OtmzZkkpz1A4JSEACEpCABCQgARMFFGpNhNJhEpCABCQgAQlIQALWK6BQa719o5pJQAISkIAEJCABCZgooFBrIpQOk4AEJCABCUhAAhKwXgGFWuvtG9VMAhKQgAQkIAEJSMBEAYVaE6F0mAQkIAEJSEACEpCA9Qoo1Fpv36hmEpCABCQgAQlIQAImCijUmgj12g7zX8XIxadIlyMPRarUxbFgelK8tsrowhKQgAQkIAEJSMA6BewCAwODM2TIYJ21M7NWSXKf2m19yFDPi0d2dgTbZabGNz+zrH9F3jHTRodLQAISkIAEJCCBpCxg5+/vH5w2bVqyZs2KnZ2dTbc1SYZaQ488f8LtcxsY2bolM/0qMOn0Ntzy2HRXqfISkIAEJCABCUjAogJ2QUFBwVevXg0pNFeuXKRIYbtfbifZUGvscj/PcpQddoXuG28ytppFx4EKk4AEJCABCUhAAjYtELKm1vCk3Bs3bvDo0SM++OADUqZMaZONSuqh9ugoeyqOfID7Tn88ytlkF6nSEpCABCQgAQlI4KUIRLpR7Pbt2xj+MczYpkmT5qVc8GUWmtRD7Y5+Oak9NTujjx2gd8GXKamyJSABCUhAAhKQgG0JRNv94P79+xjCYb58+WxuKULSDrXPWev2Nq7zq+F13ocOOWxroKm2EpCABCQgAQlI4GUKxLil14kTJyhatOjLvO5LKTtph9pg1nVJT9N5FZh2fiNfKtS+lDGkQiUgAQlIQAISsE0BhVob6reAn1tSuM16KozwYbZbKbK9m0p71tpQ/6mqEpCABCQgAQm8PAGF2pdna/mSg++wf5Y73YYsxO9h6PZrwcFp6br+NuNrWP5yKlECEpCABCQgAQnYioCdn59fsKGyEZcbaPmBlXbfdR96ubRmTkAxmrhUIHe61KQgJWW+GIpLPiuts6olAQlIQAISkIAEXoGAZmpfAbKlLnFoRHEcRgcxYJcv35R9w1LFqhwJSEACEpCABCRg8wIKtTbThUGs7vgWny50YtZlb9pksZmKq6ISkIAEJCABCUjgpQso1L50YstdYFPPDDjPKsaEU7/T5UPLlauSJCABCUhAAhKQgK0LKNTaUA8eGFaIap5vMvyALwNL2FDFVVUJSEACEpCABCTwkgUUal8ysCWLPzWuIqWGXKXXlmt852BCyYdHUqTyKC6Qkx6bTuBZNZUJJ+kQCUhAAhKQgAQkYHsCCrU202cPWOtWCNf5qXHf6Y9Hufgr7j+lOsXdDxBsP5Jje/pSMHQXMP1IQAISkIAEJCCBJCcQvqVX1JbpiWJW0tf+qxg5fzc3Tm1m+dqTPCrszvZ9HpSNd9L1FvNdcuG2IRXOc8+yvLXuLLOSHlU1JCABCUhAAhJ4CQIxztS+hOu8kiKT5GNyt/Uho/NPvJu3MGVqtaFP3zZUzJoyfs+HK2mTvQU/p/sS71PTcHor/lN0hAQkIAEJSEACErBVAYVaW+25eOr9bGtvctefTtah+zg42F6P002i/axmSUACEpCABCQQKqBQm0RHwsFvilJlXC68zvjQIUcSbaSaJQEJSEACEpCABIwCCrUaChKQgAQkIAEJSEACNi+gUGvzXagGSEACEpCABCQgAQko1GoMSEACEpCABCQgAQnYvIBCrc13oRogAQlIQAISkIAEJKBQqzEgAQlIQAISkIAEJGDzAgq1Nt+FaoAEJCABCUhAAhKQgEKtxoAEJCABCUhAAhKQgM0LKNTafBeqARKQgAQkIAEJSEACCrUaAxKQgAQkIAEJSEACNi+gUGvzXagGSEACEpCABCQgAQko1GoMSEACEpCABCQgAQnYvIBCrc13oRogAQlIQAISkIAEJKBQqzEgAQlIIKrA05scWreCZTdKMtLNgTclJAEJvAaBp+yeOZRjWT+laf0yZNUL8TX0gW1dUqHWtvpLtZXAC4E7u/i++7dss3Nk6NT+OLwnHEsI3Dv6E4O/GsC8o/f4X+ul3JnjolBrCVgrLMNneV1WZupLn4+dyJ/o+m3Gzcubxs0mUTdzYgs7z6TlG2jQrIsF6vWiLue292I8DS3UXrCsX0xmT1n15fu0WBREevt2jJkxmrb26ROLq/OTsIBCbRLuXDUtaQs8XNGGjJ8tC2lk80WBzG/6VtJu8Cto3b39Y2ji7MHeNNXoN+47ujqXJmvqV3BhXeK1CPgsz8IoFrGzmVOir39ue12KbT1Kecfd7Pw4b+LKC5hO1akeUGIR85qZF7jDgmvjLMBNb5y3wJqRk6hrqNGpXlS92T3x9TO2zuDnHDCck10tG74j4T25weE1Xrj3HcvOx5X5xvtXBpRXsE3cAEu6ZyvU2kTfbqbT0Nb8mKYTvw8aSWX20290IyY9bs6akVNC36yS1E9ya28CO+/yctq69GAD9Zi2Zh6uuRJYToynXWNm7bz02tGWlU9m2uAYS0D9762nc+km/PTcmdlbFvF53ti+60xu49Pa2mu5+oSE2kx7ooS88/gE5DVztnUzbkNbc6LmIlxvnU30DGtIWGQRz2IJ2+cCIH8ss8GGcN0er9A2nepFSr+GL8qJFmpDZ5cLOTakEHDabxwrMhnPNeHtxHCtIrf6xlrPmItIWP89Pb+AVo6d8H6jPasPTae2cq0JPZT8DlGotYk+30Lnoa2Yl6YzOwaNoBIH6D/amYmPW+A9cjJ1bKIN5lQyubXXHJtXdWwCQuGrqppJ1zG3/s85NKI0DqNv0nzRMX5yjev74+Q2Pq2tvQmoT8B5fG5fjDZyTm9tzYrMwxlcrIDxd2dZudiDuZRibHcfepm0jOA8k7wq0y+zMYQGTMft9wL0MXOGNbxyxlnaojUXETLbGvXnpjcuW5fGOiNsdqgd6k1j40yuYTnB6eqmthviDLUBm/HBKYYPBwnoP6NBwPLWFPt8BTmH7efQoJLYmfReoIOSk4BCrU309i56jXDFK3VP9vcfRGmOMdyzNqOftGXzsO+pbhNtMKeSya295ti8qmPNDYWvql6mXsfM+j8/yJCiVRj3vDc7To2mfIq4rpPcxqe1tddy9Yl5ptbUMRZ6XIyzqoYZ0a0FGNysi5kzvqEBeUXRqLPHL+oU31f+MYXak9Xh/G3DcoRxjLrViMGsxtm3EGtGNmRlXKE2lg8DYbUxzOz2C2jEGsewDwVhv4nrw0Ei+i9oL+4FajA5tTt7/DworVRr3mBNBkcr1NpEJx9hqGddvks9mBM9elAAf8ZNcWDgk+7s7T+EshHbEDiLqpOHcdx+MWfsTzNg4wI2BN4jXfqS1Crdn6GVypIp2h/sR/ifWsCUfb+y7eZ5/nqegfwZy9KoYi+6FS/Au+FvHP+xamkOPrnSjV/qP2LcmuVce68tP37+JQ82daCL31Wy5+vDnKZtKBrpm9t/uXR6DmN3/8KG6xcJ5D0KZXeitUMvOhfMEcNNOGa0N0Lb7+8fT6t2nhwILke/+UvoW+Edy/Ru0E32zBvL+AVbOHbWnz8fpiFHviJUcnFjQO8WFEsX9TKPubB+OuNnLGPjH+e4mzIHBYqVx7lTX7q4FCZdpDfiG8xpkIduO75kzfnmHOs/lLkbjxPwRk7K1P+CAUN74JgjZYQLhIa1r3dGfjdvNO8vfm4Zw51iF72oVrgPJ9y8Odv6IsOHT8f74BWeZipB/TaD8Pi6Fi+KP8SwQg6MvRz3X4pYr2Wq9vMAds8YwcjZq/njT8hRqh5uI76lwM+FaDizJJPObsXtg4iF/cvljTMY57WEjQf9CSQjBcrXo3W3vnSqmTPC+ElE/S/N4ONCX+PXcRU3ptbhjTjbYsb4TMavR1OHg/nHmeEfT+GJDbWGmc1R9I1x3eu5U71ov/g0RWuafiNafF/nh/x+iyGMGtfIxtC+kFBrCK6G2eeb43COuDwgpuUHCZypDVtD/Lz4MNZkKkDdj01dl5yY/nvG+q7ZaDK3OJPObMMtt/mjR2ckbQGFWpvo33N4Tq7C4NRjuNS5PTm4wawfStLt8QCO9/w6ZC1U+E/YH9H8Talz7RhP8lYj7/8C2HtmPQcf21H+401sr1mUFzHpKSd3f4aTz+88fKcijfOVILPdHY77e7Pln2DKV1/NVid7UoVcwBhqL5bG5cOC5Hp+mqWnjpAnb1Nyvpme9/9Zx7xrt6jb4CBrKmY3Vuk/zu9vQxXvzfz9Tlma5rUnC4EcPu/Nrvvv0sTFhyVlc/O/SP1gRnsjnLfLPTe1pgSE/J/MPTZx+fsqFujdIE5OcqLygL2kKdYQ1xoFeT/Vf9w5s4Xla/x4o/YMdq9uR57wK/3HmdlNqdF9I3cylMTZpQp53rzH8Y0r2H4hmBJ917H1WwfeDj8+LNQ25JMG+/C9X4+ahd/i7lEfVuy6RFD+LqzfNYHq4cH5HrtnT2DD1dACnpxcydS154g31Db5gvp//ME/TjXIn+oWf3j/xv5rzykxZCe7hpQxBsPLrPKYwo5/DCU/xHflfHZeK0zDro5E/NtR6NMRdKyQ0JvSgvGfUZsyX+/k38ylaNyoMtmf+bN1U1pKl9vI4lVRQ+1/XPipBVU7e/NP7so0rV2aTHaBHN6wgj2X36Px3B0sap3HOH4SUf8Dw8hbzZN3hx/gyMAS8YwbM8ZnMn49WuDFF0sRZvgnJtSe2oxPYadY1pMbdifoygqM4THqdfzG4ewLHVr1pZDfONyPH+V5lhaMLdqQBkU+JH/mGG4kC5vddTzLqK3g6tidXoVfHGcI0KGzq7EHWkM1Xs3yA+Ma4qyl2Je5L8+KnWVShi4mLtdIXP/5jilFeY/7uO/0x6PcyxtlKtk2BRRqbaLfrjNzlj3dU03hVtvmpOcBSxbk5YtH33LBrSOR7g8y/hH9I1V1JnZcwFdZQm/d/u/eCr6Y3oXlT1vgPXQydcJS5H97GDDFjWVpP2NZ+/6UDZthfXqYIdPr8f1dF5YP+oHGIanWGGpP1GPx4Pk0S32N6TNL0xNjPR6vwHV0F7bYL+aua83Q9U5PN9HR8zMWvN2FHW7DqRB2J/mTgwya6czYhy1Y328iTpFmds1ob4T+e3hkBh06T+IIpeg1ay5flUpo8Io4KM4xvlJxBl9qw2/nZlEvPI0+4sDMgcw7mpEmHkOpE7b27cEa2udpxuL0n7F050waZzPO+T08yre1q/DtoYpMObeZTuGdZgy1W1JRcfg21g4sTUitg++xpU9VGkw/j5PXObw75IhxpN5d0pzs7VfHG2oPv18Lzy3L6FI4TUg5zwN96ObQmHk3mrDo8hJco910YebX96a+jp5to1eeesx87sLcg/9Ha+M08SO/STStOYTtf5ePPFP7cD2d8zdhYY4+bNs6ivDJ9/v7GexYg/HX2+N9dhpOaaNWwMz6b+tDhnpeFP3+ODt6xre5kxnjMxm/Hk0dEuYfZ4Z/yPrWs7Fe4kTAEoi0ptZ46E1vRm1Zwj5aRguR505NZ7wfNK5u+tICwzntt3qElDe2WXd6RQ21UdfhhqyrPcvgkABrXLNrqEvXuANtbKH2ZDE4b/hl2PKDYmcZZZhFbtUXFpu/pjZsRvlkpnHGG8XAbTnMNGkXCTP6L4aeOze5GsXdT9B1/W3G1zB/9OiMpC2gUJvU+tf4R3Rf/mnc/qIZ74a37z/WLf8IF98iTOzpQ7eM8Td8x6pC1DyYle+6badPSGgzhtpTrVjvMREnHrFs4Ye0Zjr3PnflLbbSZXhLZheex+MWDUK/wr3yHflnT+T9j3ewv2bBSBc9ucWRktsfMLzzAYbkjL8+r+eI03iWs2fYzU6sPTuFmvFt72Sc8bPrsw3/UZUiVfnaum8Zs+4WFTpP5vPiYb8KC7WOzLi4jnbZIpxybDTFK4zgWuc13JlcK1Gh9kDj+dxa2oKICzL2Ds5HjfFvMmTvSYaUSmQoNLVzjF/zH23/K7en148wQ3+Xha7Z6Li2cuRQe2gEhRxGk/7bI+zrWzjSVU6Nq0ipIfcZuu8Eg+0TWX+zQq2pjQX0ejQD69Uealh64HLcjvKO/8fgLB9SN8KsaMw1OY/P9g1QJJ4wa5hx9SsQ+eazrR6cKLqIeTHthxswnUm360SalQ2/fsBm3Ja35kRm07f2imumNnRfWS9mhm85ZphxNTPURgjceSPsfhDpui+xKxVqXyJuEihaoTYJdGKkJoSv4VvCPVfHSL/a412C6vvf5tuv9uAetjrAcETwP5w6u5Gd1y/x16MnBBnPunZxHgtvZI1wfAJC7blBvL9gLhnytKNFthdfuhsucf/6r3hdukf3Ly4wIb7JsdfWT8/w9axO5WGHSWfflJYuVShZMD+FipeiRL6MpIq6/NTscBQWaj9jxYM5NIi4mPPONsYOW8HlUu2Y0qEMMd27ZOpMrWFN7e1Jkde8xf3HwcyZTlP75/BIClcexRuDdnN8WJlIZ23q+T7Os+wjh9rtfchY14uMdbrwacnI4+fBsWVM3xBIV59Axn9s3aH2uL1ej6YOkVdynGGrq8XQocQSTmTawzymsrbIJBO/Pjd8xR/6EIOw3QlCtsIKW1trCH3LYV743q2hM62nHW8yM/LnsjibarhG+y2ncW3lFXPgjeXs2NfUGgLsOApF2tXB3FAbuuyAVqFtibwG2NDOrpx29DGrneb2t0KtuWLJ63iF2qTW3+aG2v9O4TX/E3pfDgS76DcIPQ/+KHGh9uxA0i+cx+MYyjbQPw9OTbfPLzEx6s2z1tQvz26w+8exTJi3ki1Hr/GvsS1vFWxE3/ET6F8zx4vAaclQa4KBzYVa48xryhhC7eZeGaLfKGb0fBTL+AkOThvL15BmhvLf+5K5zjQKfufLzl4WHIx6PZowil/1IS+CWWO/sH1qL+LmdZY+Jj5EIOqsZKT/TmyoNcz0Ll7CvqwtGWvcPzaaUMia3UKs6R796WWxztSGzCA3ZGd18LntRN2QgG1OqI2+M0O0G9tCZnFXU7SVFzPjnflOWL+fnVSVEgPO0G1DAOOS3tY/CUPRWeECCgprf4wAACAASURBVLVJbTCY+Uf06t5PyL9uDyVKz2JB7VoUeCt1eECLPrOb8JnaivWOsK5yxOlhW4QP5smdP7l4/gy+O5Yz4fufOPa8LnOOreSzsCWvCrVxd6zvd5Qs/w0Poy3PCGKtW3pc55eLcaa2wrTzrP0y5nXFMV/QzFB70IOCVcaQwn0npyx594lej1b2Qo8czCLufhA6w9nXpKeLvZxQa1je0BXnEwayRnE/pcsw07y1QIzHGOo2PotxtjTCwxd8lvfidPXQ2egX+9GaGmrP47O8K6OiPJgh+m4N5zl3airFliylfPFhDDZj3bGpA+XAsEJU87Rj8J5TDC1t6lk6LrkIKNQmtZ42649oMBtXfEiDo0WY8vU6vno/IkYQm1cUoN7RLImbqTWuqX2n+lYOOxVNQtrBnJlYjZIDj9B2xR1mNjDe6RbXmtrVQxm++hYOPWbQrkTYrHgcyw9M0DJ1pjb2NbWpLLMm1YS6hhxyexFNcnRgvZMXl707EL63/PMTjKlQBo/jMa+pfdvjDw66hy9ENuFqZobaWwtxydWRTc5zuba8NTFsjmbCNWM4RK/HhLm9pLPCtuAKeyxu5C29jIHXhPWrlg61Idt/he14kGFDlOULMWDEEWojPUAhLNRWP4vbyTov1tKGzAbD4Pj2qQ25dGigXVnMiz5cDL3hzPgTeZ9a4960WYezxrCDw+IlHLCzCwm385pZ6jG6t1nomouOa2sz58+VfGbCvSEvaSipWCsVUKi10o5JcLXM+iMKhzZUoOKuezRvupOFpTKHP6HlccD/0WH+YJbfz5G4UPt0C509WzEvbSe2fzUChzTGMBd0hdkL6zL4z/JM7jWflpGXSyao+Q+PzORLt4kcDrbg7gf/+ODe1JNDRb5iwaRmZA9f2PqEPYPK4zjhNj02/YlnVWO77q+h/YfNWJyuNUt2zaJJ+O4HRxhRqyqjj1Zi6tlNdAy/Me7VhFrfDHUYs3UZXxUM3Zztxe4HTVl0ZTGu0fbavc/SFplou7Ih82/8QgsTHkn54MB4WrYdx0HK0X/BEr4uG9PuE1eYWbc4vbZnotHYeXh+XpZMz66yfeowvvllM8cvRNnS6+EGvsrvwo9ZerBl+/c4hG3y++wyc1pVY+ieSkw8spQW0Z78ZG79LzC5WhHc/Zz56cxymmdK0BCMflIyfj1aSNBixYQE2igzjdH3qTU8NrY1c2PbpcBYG8uE2tAbz05TgAZFnF489jba8gVzQq0hmE+lUNguCSGhtgBr8MA5oBQVgaJFG9G4SAFOL2/NacdFsHgchVp50SADrP29K0R8oljAZib9fpZCscy4xvdEsUm3PzRrPXC8nR2wmKb527Ou5Pec2tGTD+M9QQckNwGF2qTW42b+EX0WMJcGMwex7b/3KZevLpXeS8Pje0fxufw2dfJeZs7J/yUu1BLEhQNtqLJmE/feLkPTfKXJ/r/7+F/yYc3tJ5SrtJT19SsRLVMloF929v+A2lNvhZxpuX1qA1nrVgXX+dfIWdkV5wq5eCfFE26f/Z1f1/jyoOQAtm37hrLhW0pF3qe2kWGf2lR/47vhl9B9avutY+vIGPap3RLDjWIxGfivYuSCQzwz/i5sn9r8DbrTuEjY1gwf0si9HSGZ0vjwhcstO1B5xx6e1HYk75sBEfap3cWuIaVjeAAGXJxVF/ue23mvQnNcymY0PpAgA069B1EvhpUApvo/8Z1Cwzr92X3vxRru9DUmMDDPYPrPi3KjGEFcXNCCqp3W8HeuSjStX5asbzzA//fVrPV7TBn3NazzcIhx/Jhb/+uLP6V4+9Xk6OrDzvEfR9g5JAGDMeyUZPx65PBIilQexQVy0mPTCTyrhn6gevU/hj1lp0KxyPu+GuoR88MXQoPtjzftQveWjbJfrOG8SDdjASE3ioUFZmMoHdysABie4oVhBnN1lBu04lBIVKg11D3C2uDwmVrDOtrIOzwYbkRbW6Qhp6cadz841Qu3m91fzOaGPE2MOHeFiO9hEZbt67/Z2rsK9adfp/F8P5a2yBp38VYz/iyroNLiFlCoTWojxMw/ovCcO9d+YeyW+az76wxX/0tH/hy16ejYD/tT9am0O7Gh1gD84oliPtcvcjdFJvJlrEiT8p1xK1mM9yz0qMP7+8fRst1Y/rD0E8UeX2T9jHFMW7qNY/6XCHz2DjnzFqCk42f07tMOhxyRNtkFHnN+nVfoE8UOnOVuqhwUKFqRRoYnijWO5YlipobaeG6cMmgHB9dm9tVVfG6YbTSGWv+uPvg2O82wb2ay9uAVnmUuSb22gxgR6YliUV4MT6/g4zmY0Yu34XshMOQGueDgQow4eIT+xaK/cP7Z/R2fdpjAYcrS98el9K/0YkO5qEc/vX4Q7zXbORUIGQo40Mi5Esf7psNldpk4nyjm84c/d9/IQt5iVWjSoRudm5aIffyYWX+CLvCDSyV6bH6D2iOXM6d3ZTJHfiqI+e8Wyfj16D+lOsXdDxBsP5Jje/pS0EKvc7M6wbBd1skCNIhpK63YHnEbcgHjGtLYnhZmWH+LFzuNW2PFfqOYoZzKOAcMj3uNbMRGJSbUGoIpk17sPhBhTW3MbpHX1Jplawz3RSI+sczcAkw9PugWeyZ0oNnQjTyvNZXdKzvyUTyvTasYf6a2T8dZTECh1mKUKkgCVihgDLUn3dYSOKmmFVbwRZV8ur1D4zkVmOK/mU6va9/iO7vx+KQZY/bcI2v5lrTvN4jBznmjPPHOqhmtpHK3mO+SC7cNqXCee5blrcNXT1tJ/UKrYZipdWYRz0x6aMCLqofejBXLHf5xrHc1qfEhofYsrrHtfGAoxPD42xPRbybz2T6dvB93AcOWY4YvrQKWMDdzXO1LXKhNqJ9JDiEHBXF+zWjGjJ3L4gM3SF95IMt/GY5DpPs/YirNNsaf6Q460lQBhVpTpXScBGxRwBhqY9qn1rqacwWvmgXoc7ANv92aRb2ok9+vsrJPLrF+igfDJy7Bt85i/p7f1PiY6FdZCRu/1sOVtMnegp/TfYn3qWk4WeLhfi+BxGd7L05nib4sIVGXMtyEdbMhOz+OvC+0yWUa18GejOvmqlPTmUSUBzYEbMYHJ+qGrS83huPBzaJv+/WiLpuZ5HWWBiZuZRa1DTGtUza5nSYd+C+/tk1Hqw0laNl7BMN71CWPKatYbGT8mUSgg8wSUKg1i0sHS8DGBKwy1P7D3rnjWH/ZaBn8lDvHfVjsc5psXdaxb4JjpCefvS7x5w+vceQi2BfLoZlaMzvh2dbe5K4/naxD93FwsH2MDw4xs0gdniwFgrjmdxQ+LEWOt2J6/EzMKBp/yXKwhDRaoTb59r1aborA5cvQrh38+CPkzg229t+7RlLNaRQnWs/l9tzWlq+/KYbRjgnd8aH71tBFlsF2aclaoDhVP+nNN183Iq+VzuolqKnJ9KSD3xSlyrhceJ3xoYM52wsnUy8127ICGn+W9bSl0hRqbam3VNdXK/D77+DhAcOH698xOWzd+mr7Q1eTgAQkIAEJxCGgUKvhIYHYBBwdbXeG9lXMKBtmrvUjAQlIQAISsBIBhVor6QhVQwISkIAEJCABCUgg4QIKtQm305kSkIAEJCABCUhAAlYioFBrJR2hakhAAhKQgAQkIAEJJFxAoTbhdjpTAhKQgAQkIAEJSMBKBBRqraQjVA0JSEACEpCABCQggYQLKNQm3E5nSkACEpCABCQgAQlYiYBCrZV0hKohAQlIQAISkIAEJJBwAYXahNvpTAlIQAISkIAEJCABKxFQqLWSjlA1JCABCUhAAhKQgAQSLqBQm3A7nSkBCUhAAhKQgAQkYCUCCrVW0hGqhgQkIIFYBZ7e5NC6FSy7UZKRbg68KSoJSAB4yu6ZQzmW9VOa1i9DVr0wkv2oUKhN9kPAigEe7uG7Xz3Zaled4U2+xuEtK66rqgZ3dvF992/ZZufI0Kn9cXhPKJYQuHf0JwZ/NYB5R+/xv9ZLuTPHRaHWAKv3B0sMLxsv4ymrvnyfFouCSG/fjjEzRtPWPr2Nt0nVT4yAQm1i9HTuSxV4eLQT7/+6OuQan7peYGHJtC/1eio8cQIPV7Qh42fLQgppviiQ+U31KSRxonBv/xiaOHuwN001+o37jq7OpcmaOrGlJo3z9f6QNPox0a14coPDa7xw7zuWnY8r8433rwwor2CbaFcbLUCh1iY6bjOdhrbmxzSd+H3QSCqzn36jGzHpcXPWjJxCXZtoQwIqeWcFn//ozgZqMb39DD55bTN/ydTf3C67vJy2Lj3YQD2mrZmHay5zC4jr+GvMrJ2XXjvasvLJTBsc8wmo/731dC7dhJ+eOzN7yyI+zxvbd6vJdHzq/SGWF0wCxsN/11i/qTsd9+zmlp0deSuv52TdUhZ6Ad/n+NHpTNjvzdabl7lDOvJlqUbTCt3pZV+Id6JdJQH1NyxEOL+AVo6d8H6jPasPTae2cq2F+s+2ilGotYn+2kLnoa2Yl6YzOwaNoBIH6D/amYmPW+A9cjJ1bKINtlxJ+b/+3ktAKHz9lY5QA3Pr/5xDI0rjMPomzRcd4yfXzHG0RuPz9Xa1tfmbV5/Ht9Yy/JfeTPzrGaVz5OXiNV8yOvhYKNQ+4sCGxtTcdYynaUvSJH9ZsnOdfed8+OPRm1Sq9hs+tUoT+Ts48+ofse8Dlrem2OcryDlsP4cGlcTu9Q4MXf01CCjUvgZ08y+5i14jXPFK3ZP9/QdRmmMM96zN6Cdt2Tzse6qbX6DOMEtA/mZxvZSDzQ2FL6USiSjUzPo/P8iQolUY97w3O06NpnyKuC6t8ZmIjrHAqdbmb0Z97i7BeVovfFKUpY/zVIanX0aJ2RNJaalQe/dHnCYOYOd7ndjUyYNqb4UO5KCHO+g7qznT7lVgRu+VfBlpVtWM+kftvaC9uBeoweTU7uzx86C0Uq0FxrdtFaFQaxP9dYShnnX5LvVgTvToQQH8GTfFgYFPurO3/xDKhrfhLv83vxjtzhdlQo+NdM8UpXH3F9FwbG+25pvGtS+a8eLb/H+5dHoOY3f/wobrFwnkPQpld6K1Qy86F8wR5aaUAGbPLk6XP1uxru8nHF09ijkXT3IzRVbK5WvFwNpf4Zg+ZeQLPw9gz77JjDu8jaN3L3P1WWpypCtI5cLtGVjjE4qniXj4X8ycWYqef0V+N2rU6DTLy8b2fdIjzvhOZ+y+VWy+eZnbwenJl7U6n1bqSc/i+SLPAgTOourkYRy3X8wZ+9MM2LiADYH3SJe+JLVK92dopbJkihYgTPWP3Oz7+8fTqp0nB4LL0W/+EvpWiP5FW4KGX9BN9swby/gFWzh21p8/H6YhR74iVHJxY0DvFhRLF7XUx1xYP53xM5ax8Y9z3E2ZgwLFyuPcqS9dXAqTLhL1DeY0yEO3HV+y5nxzjvUfytyNxwl4Iydl6n/BgKE9cMwRsX9Dw9rXO6P017y/+LllDOtFLnpRrXAfTrh5c7b1RYYPn473wSs8zVSC+m0G4fF1LV4Uf4hhhRwYeznuv0yNYruWqbjPA9g9YwQjZ6/mjz8hR6l6uI34lgI/F6LhzJJMOrsVtw8iFvYvlzfOYJzXEjYe9CeQjBQoX4/W3frSqWbOCK+XRNT/0gw+LvQ1fh1XcWNqHd6Isy2mjk+9P1jT+4Opw9P840wdD8Bfk6i9/inurr2omf5NuPId+S0Yav/17cq7v6zAqd4R1lbKFqkp1/a48pHPbj5rdpm5xVNF+J0Z9Y+G84z1XbPRZG5xJp3Zhltu8/V0hm0LKNTaRP+dw3NyFQanHsOlzu3JwQ1m/VCSbo8HcLzn1xSK0IbbB9uQa5UP5Zz28nv1jyK1LuCP1uRavR2XxsdZVuZ94+/+4/z+NlTx3szf75SlaV57shDI4fPe7Lr/Lk1cfFhSNjf/Cy8pLNQ60SzvIY7960StzGm4fX0LK65dIyhdOzZ2/Y7q4UE1iBPbnam45RBpMjjxyYcFyPBGELdvbWfZ+TOkzD2OPV9+zofh5f/N7j1T8bkX+j+eBKxhyoXLxB5qn3FyZ3OqbdzN/TQlaFKgHNntbrL/7DoOPHqL2nXXscqhwItQEBZq8zelzrVjPMlbjbz/C2DvmfUcfGxH+Y83sb1mUSLHctP9I4Lvcs9NrSkBIf8rc49NXP6+igVGWxAnJzlRecBe0hRriGuNgryf6j/unNnC8jV+vFF7BrtXtyNP+JX+48zsptTovpE7GUri7FKFPG/e4/jGFWy/EEyJvuvY+q0Db4cfHxZqG/JJg3343q9HzcJvcfeoDyt2XSIofxfW75pA9fDgfI/dsyew4aqxv06uZOrac8QaNMNCbZMvqP/HH/zjVIP8qW7xh/dv7L/2nBJDdrJrSBljMLzMKo8p7PjHUPZDfFfOZ+e1wjTs6kjEv1WFPh1BxwoJvSktGP8ZtSnz9U7+zVyKxo0qk/2ZP1s3paV0uY0sXhU11P7HhZ9aULWzN//krkzT2qXJZBfI4Q0r2HP5PRrP3cGi1nmMr5dE1P/AMPJW8+Td4Qc4MrBEPOPG9PGp9wfreX+wwJtBLEWYPh54+pAHb7zF22Ef5C0cau8ebEPW1Rto8+mf/FAs8kez//x68NayZbi4nGZZmYgTFmbUPwYB3zGlKO9xH/ed/niUe3nKKtk6BRRqrbNfotTqOjNn2dM91RRutW1Oeh6wZEFevnj0LRfcOhLpfpyHK3D17MLqLB6c7eIWISze4//mF6XdRUf+r/9CmodlgKeb6Oj5GQve7sIOt+FUCLuz+slBBs10ZuzDFqzvNxGn8HtUjKH2SkoqV/NmXS17QooK/pstK2tT9/AVatc/xNpK2Y1tMM4q//0pq/tPpV74B/LHHNg9lDnXMuFa150678bcEWFvirGG2idraePZnsWpmrOy60QavB0av58/3EQXr8+Y+8SV39yn0zDsusZQ+0eq6kzsuICvsoQ2+L97K/hieheWP22B99DJ1HmR4gEz/CM04+GRGXToPIkjlKLXrLl8VSqhwSuizTnGVyrO4Ett+O3cLOqFp9FHHJg5kHlHM9LEYyh1shjPebCG9nmasTj9ZyzdOZPG2Yx/WB4e5dvaVfj2UEWmnNtMp/BBZAy1W1JRcfg21g4sbezfe2zpU5UG08/j5HUO7w45Yuywu0uak7396nhD7eH3a+G5ZRldCod++nke6EM3h8bMu9GERZeX4BptUt7Mr+9NfV0/20avPPWY+dyFuQf/j9bGaeJHfpNoWnMI2/8uH3mm9uF6OudvwsIcfdi2dRThk+/39zPYsQbjr7fH++w0nKJt1GFm/bf1IUM9L4p+f5wdPfPH0xozxqfeH6zm/cHUIWr+cWaMh6iFv+RQ++xJAHd4jyypUxIWaqO/tyei/sC5ydUo7n6CrutvM76G+Xo6w7YFFGptu/9iqP09Fi8oRptzJZjcax1dMhgPebSCZt93YX1eL/784hPCM4PxTez9j3ewv2bBSOWd3OJIye0PGN75AENyhv0qLNQ6MKvvr7SP+FX3tbEUmTmOa/aL+du1pvGEM3w/qRpDHn2GT7/x1IyyMiE+/nhD7eVRfDRnClRcw4UG5SMVt3dtSartg4FfHmNE2NSeMdTuyz+N218040WW/o91yz/CxbcIE3v60C1jfDV7Xb8/jWc5e4bd7MTas1OoGd/2TsYZP7s+2/AfVSlSpa+t+5Yx625RofNkPi8e9quwUOvIjIvraBfxG8NjoyleYQTXOq/hzuRaiQq1BxrP59bSFpHufN47OB81xr/JkL0nGRLtxmszQ6Gp3WP8mv9o+1+5Pb1+hG8k7rLQNRsd11aOHGoPjaCQw2jSf3uEfX0LR7rKqXEVKTXkPkP3nWCwfdQKmFl/s0KtqY01HKf3hzCtpPn+YM5YiOHYlxlq83jTYmJnVtCApV/Pw+VS6Ext3EvLzG+PQq35ZknpDIXapNSbxrbcOdSOnCvXUbH2AbZWDU1z9452JOeKdTRs4sfS0hHWOp4bxPsL5pIhTztaZHvxJbThnPvXf8Xr0j26f3GBCeGTRWGh9hNWenjRIOL604c78Fz/G5dyfMG0SqUI/dUzjm2pR4Xtx3kvUwNaFa5Iycx5KZTNnpKZMpAqnoX88YZaY/2L1tzNzo/zRerNs9vrUnTL2cj1D19Tu4R7ro6Rjt/jXYLq+9/m26/24B420Wx14+MZvp7VqTzsMOnsm9LSpQolC+anUPFSlMiXMbqn2eEoLNR+xooHc2gQ8RvDO9sYO2wFl0u1Y0qHMsb+jQxk6kytYU3t7UlOkU6O+4+RmaHQ1H47PJLClUfxxqDdHB9WJtJZm3q+j/Ms+8ihdnsfMtb1ImOdLnxaMvLr5cGxZUzfEEhXn0DGf2ytoRb0/hDaN0nz/cHUgR/LcS8z1ObbQ/+ZHfiJlvzsNoIq/gq1iewtnR6DgEJtUhwWD1fQzLMLK7ON5LxbJz7gISsWFaHF2Rosdp9Ps4hfjZ4dSPqF83hsF3O6fB6cmm6fX2JigTCoOEJtbJZBAezeN4nxh7zZdOsmT43XeitdHfo1HIN7wewxBiRDcfGGWmP9i8caak9Hrr/Nh1rD54Qb7P5xLBPmrWTL0Wv8G+ZZsBF9x0+gf80cLzwtGWpNeK3YXKg1zrymjCHUbu6VIfqNYkbPR7G8XoKD08bytaeZofz3vmSuM42C3/mys1f4i8+EHjDhEL0/RAi1SfD9wYQhEOshLzPUxrKm1tIztWcnVaXEgDN02xDAOG0NlJjRYJPnKtTaZLfFV+l7LFlQjC/O2TO1tzdub62j7Zh2/PLRdP783PXF0gNDMcaZzor1jrCusinTkwkIteHVDebJw2tcCDyL7/nfmLBrGUeowbweS/k8lo0N4g21yW6mNmLfB/Pkzp9cPH8G3x3LmfD9Txx7Xpc5x1byWdiSV4XauF8svt9Rsvw3PIy2PCOItW7pcZ1fLsaZ2grTzrP2y5jXFcd8QTND7UEPClYZQwr3nZyy+N0uen/QTO1rmKk1+Uax+P6+xf37A8MKUc3TjsF7TjG0dOLK0tm2J6BQa3t9ZlKN7x5uT67f1lK13mFWpBtLzqW/UKeJH0tKR0mPxk/m71TfymGnoiaUnZhQGzmQndlWh2Jb/WjX/BI/FIv5aUnxhtp419TaMejLo3hEWVN73N5Wlx/E1kXBnJlYjZIDj9B2xR1mNjB6xrWmdvVQhq++hUOPGbQrETZTH8fyAxNGh6kztbGvqU1lmTWpJtQ15JDbi2iSowPrnby47N2BsPvreH6CMRXK4HE85jW1b3v8wUH38IXIJlzNzFB7ayEuuTqyyXku15a3jrD9ngmXMuEQvT9A6Jra5PL+YMKgMBxi4Zna+Lb0yrN+L+1bXGJW0dielmdivcMPu81C11x0XFubOX+u5DOrvTfC3HbpeFMFFGpNlbK14x79yqfff8WqD8ex8N1RtD5WiSXuP/JJ1Luyn26hs2cr5qXtxPavRuCQxhhugq4we2FdBv9Znsm95tMyfPmgmaH2yWb6z5/IoUztWdjUlezhqxyesMe7OtX336NXm9OMzRfz8od4Q+2/62n3fVv+L9bdD5qxcsA0wjIer3D5wcMjM/nSbSKHgy24+8E/Prg39eRQka9YMKkZ2cPXND9hz6DyOE64TY9Nf+JZ1eh5fw3tP2zG4nStWbJrFk3Cdz84wohaVRl9tBJTz26iY/iNgK8m1PpmqMOYrcv4qmDothQvdj9oyqIri3GNttfufZa2yETblQ2Zf+MXWpjwCMwHB8bTsu04DlKO/guW8HXZmHafuMLMusXptT0TjcbOw/PzsmR6dpXtU4fxzS+bOX4hypZeDzfwVX4XfszSgy3bv8chbJPfZ5eZ06oaQ/dUYuKRpbSI9gAwc+t/gcnViuDu58xPZ5bTPOqe04l9P9L7g3F3lNf3/pDYLnwp55sRah9cmkKLZVM4QGkGNP+R3rljeH3F8fCFfrOaM/VeZX7ovYJ2JryeTWpvwGKa5m/PupLfc2pHzwi7/5h0tg5KAgIKtUmgE2Nuwt/8vLA4n53PRv40l7iaPXTpQbSsQBAXDrShyppN3Hu7DE3zlSb7/+7jf8mHNbefUK7SUtbXrxThPDNDLbdZu6wWjY/fJFf2hjTKlZN37P4l8NYuVpw/xYOMPdnx1SDKhn1QD1jLiINHeGZsVNg+tfk+6kjTzGH7cuWmkdPnlAs55z9O7fqUqhuM+9QWLB+yj+8+4z61dequZ6VD/uj71L6Cmdqd/T+g9tRbIS2x3D61gax1q4Lr/GvkrOyKc4VcvJPiCbfP/s6va3x5UHIA27Z9Q9nwDy+R96ltZNinNtXf+G74JXSf2n7r2Doyhn1qt8Rwo1hMA81/FSMXHHrRX8Z9avM36E7jImFbM3xII/d2hGRK4z61l1t2oPKOPTyp7UjeNwMi7FO7i11DSkd54EfohS/Oqot9z+28V6E5LmUzGvs0A069B1EvhpUApvo/8Z1Cwzr92X3vxQer9DUmMDDPYPrPi3KjGEFcXNCCqp3W8HeuSjStX5asbzzA//fVrPV7TBn3NazzcIjhdWZ+/a8v/pTi7VeTo6sPO8d/HGGnDku8aen9wbCP9et8f+DwSIpUHsUFctJj0wk8q0Z8AIEl+tiEMu5tYtT2rQSGHfrgID+d8SVFlkZ8ntM4zflefYZVrxrt24KdqwvjdPBuyJmZyv3Kn86VY7jgQw5saBLlMbk32Hdufchjch2qr2Kdk32Ux+SaUO8YD/mbrb2rUH/6dRrP92Npi6wJLUjn2bCAQq0Nd158Vb935Ety/rqGf0nJp65+LLKP7ePwiyeK+Vy/yN0UmciXsSJNynfGrWQx3os0iWpuqAWeXmL9rklMPb6bo3f/5FZwWnK9mxf7j1rQp8ZnOBieZBP2E8+Na4bDngdXZ577z3weYY/W04Yniu39jU03L3OHdOTLWoPmIU8Uyx/LE8Ve/vKD+/vHisAnsQAAC7RJREFU0bLdWP6w9BPFHl9k/YxxTFu6jWP+lwh89g458xagpONn9O7TDoccUb/Ke8z5dV6hTxQ7cJa7qXJQoGhFGhmeKNY4lieKmRpq47lxytBfwcG1mX11FZ8bZhuNoda/qw++zU4z7JuZrD14hWeZS1Kv7SBGRHqiWJQR/vQKPp6DGb14G74XAkNukAsOLhTyIah/seivhn92f8enHSZwmLL0/XEp/SvFshmyYYheP4j3mu2cCoQMBRxo5FyJ433T4TK7TJxPFPP5w5+7b2Qhb7EqNOnQjc5NS0R5vUSol5n1J+gCP7hUosfmN6g9cjlzelcmc6T9k+N7B4j793p/eL3vD/5TqlPc/QDB9iM5tqcvBV/HI13/mkDJGd9zOpYbH0Peb7OP4pJbB6J+bvznwng++WU6hyhJ/2Y/4f5hbE9MvI/v4elMOLCKrQF/8rfde+TNUgXX8j3oaV8wwoNfEjGeg26xZ0IHmg3dyPNaU9m9siMfWfC1koia6dRXLKBQ+4rBdTkJJGsBY6g96baWwElhexlbp4hPt3doPKcCU/w30yl8ecYrruud3Xh80owxe+6RtXxL2vcbxGDnvBH2033F9dHlLCRwi/kuuXDbkArnuWdZ3jp8NbeFyk8uxQRxfs1oxoydy+IDN0hfeSDLfxmOQ9gDM5MLg9oZLqBQq8EgAQm8OoGwx+TGsE/tq6uEKVe6glfNAvQ52Ibfbs2inqXuYzHl0lGPeXKJ9VM8GD5xCb51FvP3/Ka8hi+qE1JznRObwMOVtMnegp/TfYn3qWk4WeJhg8lS+19+bZuOVhtK0LL3CIb3qEsevTiS5UgIa7RCbbLufjVeAq9YwCpD7T/snTuO9ZeNFsFPuXPch8U+p8nWZR37JjhGevLZKxYLv9zzh9c4chHsi+XQTO3r6gQLXffZ1t7krj+drEP3cXCwfaz7dFvockm4mCCu+R2FD0uR462ITwJKwk1W0+IUUKjVAJGALQlcvgzt2sGPP0Lu3GBr/71rJNWcRnGi9Vxuz21t+fonqC9Dd3zovjV0UWOwXVqyFihO1U96883XjcirWbQEqeqk2AUOflOUKuNy4XXGhw7mbHcsVAlIQKFWY0ACSULg99/BwwOGD9e/Y3LYujVJdLMaIQEJSEACCRPQTG3C3HSWBF69gKOj7c7QvooZZcPMtX4kIAEJSCDZCijUJtuuV8MlIAEJSEACEpBA0hFQqE06famWSEACEpCABCQggWQroFCbbLteDZeABCQgAQlIQAJJRyBJhdqk0y1qiQQkIAEJSEACEpCAOQIKteZo6VgJSEACEpCABCQgAasUUKi1ym5RpSQgAQlIQAISkIAEzBFQqDVHS8dKQAISkIAEJCABCVilgEKtVXaLKiUBCUhAAhKQgAQkYI6AQq05WjpWAhKQgAQkIAEJSMAqBRRqrbJbVCkJSEACEpCABCQgAXMEkn6o9V/FyMWnSJcjD0Wq1MWxYHpSmCOkYyUgAQlIQAISkIAErF7ALjAwMDhDhgxWX9EEV3BbHzLU8+KRnR3Bdpmp8c3PLOtfkXcSXKBOlIAEJCABCUhAAhKwNgE7f3//4LRp05I1a1bs7OysrX6Wqc/zJ9w+t4GRrVsy068Ck05vwy2PZYpWKRKQgAQkIAEJSEACr1/ALigoKPjq1ashNcmVKxcpUiTdL+f9PMtRdtgVum+8ydhqrx9fNZCABCQgAQlIQAISsIxAyJra4OBgbty4waNHj/jggw9ImTKlZUq3slKOjrKn4sgHuO/0x6OclVVO1ZGABCQgAQlIQAISSLBApBvFbt++jeEfw4xtmjRpElyotZ64o19Oak/NzuhjB+hd0FprqXpJQAISkIAEJCABCZgrEG33g/v373P9+nXy5cuXxJYiPGet29u4zq+G13kfOuQwl0rHS0ACEpCABCQgAQlYq0CMW3qdOHGCokWLWmudE1ivYNZ1SU/TeRWYdn4jXyrUJtBRp0lAAhKQgAQkIAHrE0hGoRYCfm5J4TbrqTDCh9lupcj2birtWWt9Y1I1koAEJCABCUhAAmYLJKtQS/Ad9s9yp9uQhfg9DN2+LDg4LV3X32Z8DbPtdIIEJCABCUhAAhKQgJUI2Pn5+QUb6hJxuUHSXH4AXPehl0tr5gQUo4lLBXKnS00KUlLmi6G45LOSHlE1JCABCUhAAhKQgATMFkhWM7WHRhTHYXQQA3b58k3ZN8zG0gkSkIAEJCABCUhAAtYpkIxCbRCrO77FpwudmHXZmzZZrLNDVCsJSEACEpCABCQgAfMFklGohU09M+A8qxgTTv1Olw/Nx9IZEpCABCQgAQlIQALWKZCsQu2BYYWo5vkmww/4MrCEdXaIaiUBCUhAAhKQgAQkYL5Asgq1p8ZVpNSQq/Taco3vHMzH0hkSkIAEJCABCUhAAtYpkIxC7QPWuhXCdX5q3Hf641HOOjtEtZKABCQgAQlIQAISMF8gfEuvqKcmmSeK+a9i5Pzd3Di1meVrT/KosDvb93lQNpX5WDpDAhKQgAQkIAEJSMA6BWKcqbXOqiawVtv6kNH5J97NW5gytdrQp28bKmZNmcDCdJoEJCABCUhAAhKQgDUKJP1Qa43qqpMEJCABCUhAAhKQgEUFFGotyqnCJCABCUhAAhKQgAReh4BC7etQ1zUlIAEJSEACEpCABCwqoFBrUU4VJgEJSEACEpCABCTwOgQUal+Huq4pAQlIQAISkIAEJGBRAYVai3KqMAlIQAISkIAEJCCB1yGgUPs61HVNCUhAAhKQgAQkIAGLCijUWpRThUlAAhKQgAQkIAEJvA4BhdrXoa5rSkACEpCABCQgAQlYVECh1qKcKkwCEpCABCQgAQlI4HUIKNS+DnVdUwISkIAEJCABCUjAogIKtRblVGESkIAEJCABCUhAAq9DQKH2dajrmhKQgAQkIAEJSEACFhVQqLUopwqTgAQkIAEJSEACEngdAiaG2tP8MmwxvhFr+E4lOvWrR87XUWtdUwISkIAEJCABCUhAAhEE7AIDA4MzZMgQD4oPbqkb85OdXfhxwbn7sfv0CMqIUwISkIAEJCABCUhAAq9ZwM7f3z84bdq0ZM2aFbsIoTX2eh1iWCEHPOmvUPuaO0+Xl4AEJCABCUhAAhIIFbALCgoKvnr1ash/5MqVixQpUsRjo1CrwSMBCUhAAhKQgAQkYF0CIWtqg4ODuXHjBo8ePeKDDz4gZcqUcdRSoda6ulC1kYAEJCABCUhAAhKIdKPY7du3MfxjmLFNkyZNLDoKtRo2EpCABCQgAQlIQALWJRBt94P79+9z/fp18uXLF8tSBIVa6+pC1UYCEpCABCQgAQlIIMYtvU6cOEHRokU1U6vxIQEJSEACEpCABCRgEwIKtTbRTaqkBCQgAQlIQAISkEBcAgq1Gh8SkIAEJCABCUhAAjYvYOfn5xdsaEXE5QZafmDz/aoGSEACEpCABCQggWQloJnaZNXdaqwEJCABCUhAAhJImgIKtUmzX9UqCUhAAhKQgAQkkKwEFGqTVXersRKQgAQkIAEJSCBpCijUJs1+VaskIAEJSEACEpBAshJQqE1W3a3GSkACEpCABCQggaQpoFCbNPtVrZKABCQgAQlIQALJSiB8S6+orY78RLHT/DJsMb4hB91kx6yf2Pdef3afHkGZZMWlxkpAAhKQgAQkIAEJWKNAjDO10Svqg1vqxvxkZxf+q+Dc/RRqrbFHVScJSEACEpCABCSQDAVMDLXJUEZNloAEJCABCUhAAhKwGYF4Q+3Tp0+5dOkSefLk4c033yS+/7aZlquiEpCABCQgAQlIQAJJRiDOUBsWYLNly8b169eJ798FChRIMjBqiAQkIAEJSEACEpCA7QjEGWoNM7TZs2c3aYbWEIANM7n6kYAEJCABCUhAAhKQwKsWiHf5wauukK4nAQlIQAISkIAEJCABcwUUas0V0/ESkIAEJCABCUhAAlYnoFBrdV2iCklAAhKQgAQkIAEJmCvw/3qKfDG75lLaAAAAAElFTkSuQmCC;" vertex="1" parent="1">
          <mxGeometry x="1037.5" y="890" width="240" height="228" as="geometry" />
        </mxCell>
        <mxCell id="-zhdSYO7AKNaBKJBqnGX-3" value="" style="endArrow=classic;html=1;rounded=0;fontSize=12;startSize=8;endSize=8;curved=1;exitX=0;exitY=0.5;exitDx=0;exitDy=0;entryX=0.5;entryY=1;entryDx=0;entryDy=0;" edge="1" parent="1" source="yCtW0zK6xdps2pBfvqSu-26" target="yCtW0zK6xdps2pBfvqSu-15">
          <mxGeometry width="50" height="50" relative="1" as="geometry">
            <mxPoint x="640" y="850" as="sourcePoint" />
            <mxPoint x="330" y="890" as="targetPoint" />
          </mxGeometry>
        </mxCell>
        <mxCell id="-zhdSYO7AKNaBKJBqnGX-4" value="" style="endArrow=classic;html=1;rounded=0;fontSize=12;startSize=8;endSize=8;curved=1;exitX=0.5;exitY=1;exitDx=0;exitDy=0;entryX=0.5;entryY=0;entryDx=0;entryDy=0;" edge="1" parent="1" source="yCtW0zK6xdps2pBfvqSu-15" target="-zhdSYO7AKNaBKJBqnGX-5">
          <mxGeometry width="50" height="50" relative="1" as="geometry">
            <mxPoint x="480" y="670" as="sourcePoint" />
            <mxPoint x="390" y="640" as="targetPoint" />
          </mxGeometry>
        </mxCell>
        <mxCell id="-zhdSYO7AKNaBKJBqnGX-5" value="&lt;div&gt;&lt;span style=&quot;background-color: transparent; color: light-dark(rgb(0, 0, 0), rgb(255, 255, 255));&quot;&gt;第四步传入参数开始执行任务&lt;/span&gt;&lt;/div&gt;&lt;div&gt;&lt;span style=&quot;background-color: transparent;&quot;&gt;run_task(script_dic_by_package, task_apps, apps, device_tasks)&lt;/span&gt;&lt;/div&gt;" style="rounded=0;whiteSpace=wrap;html=1;" vertex="1" parent="1">
          <mxGeometry x="276.25" y="949" width="223.75" height="90" as="geometry" />
        </mxCell>
        <mxCell id="-zhdSYO7AKNaBKJBqnGX-7" value="" style="endArrow=classic;html=1;rounded=0;fontSize=12;startSize=8;endSize=8;curved=1;" edge="1" parent="1">
          <mxGeometry width="50" height="50" relative="1" as="geometry">
            <mxPoint x="276.25" y="993.5" as="sourcePoint" />
            <mxPoint x="160" y="993.5" as="targetPoint" />
          </mxGeometry>
        </mxCell>
        <mxCell id="-zhdSYO7AKNaBKJBqnGX-8" value="" style="rounded=0;whiteSpace=wrap;html=1;" vertex="1" parent="1">
          <mxGeometry x="-20" y="950" width="180" height="89" as="geometry" />
        </mxCell>
      </root>
    </mxGraphModel>
  </diagram>
</mxfile>
